<svg xmlns="http://www.w3.org/2000/svg" width="540" height="540" viewBox="0 0 540 540">
  <g id="グループ_307" data-name="グループ 307" transform="translate(777 -5338.012)">
    <g id="グループ_112" data-name="グループ 112" transform="translate(-777 5338.012)">
      <circle id="楕円形_1" data-name="楕円形 1" cx="270" cy="270" r="270" transform="translate(0 0)" fill="#3351f7" opacity="0.081"/>
      <circle id="楕円形_2" data-name="楕円形 2" cx="207" cy="207" r="207" transform="translate(63 63)" fill="#3351f7" opacity="0.135"/>
      <ellipse id="楕円形_3" data-name="楕円形 3" cx="87.5" cy="87" rx="87.5" ry="87" transform="translate(181.524 184.464)" fill="#3351f7" opacity="0.791"/>
      <circle id="楕円形_7" data-name="楕円形 7" cx="66.5" cy="66.5" r="66.5" transform="translate(202.522 204.478)" fill="#3351f7" opacity="0.791"/>
    </g>
    <g id="グループ_305" data-name="グループ 305" transform="translate(-556.431 5591.432)">
      <path id="パス_10" data-name="パス 10" d="M-42.38-5.491v2.983h5.605V0H-45V-13.3h8.132v2.508h-5.51v2.831h5.035v2.47ZM-29-4.864-25.527,0h-2.831L-30.41-2.888-32.481,0h-2.831l3.477-4.845L-35.16-9.5h2.831l1.919,2.679L-28.491-9.5h2.812Zm10.982-4.9A4.283,4.283,0,0,1-14.753-8.3,5.013,5.013,0,0,1-13.385-4.75a4.994,4.994,0,0,1-1.368,3.572A4.27,4.27,0,0,1-18.021.266,3.677,3.677,0,0,1-21.1-1.121V3.8H-23.55V-9.5H-21.1v1.121A3.677,3.677,0,0,1-18.021-9.766Zm-2.337,6.954a2.549,2.549,0,0,0,1.881.741A2.549,2.549,0,0,0-16.6-2.812a2.625,2.625,0,0,0,.76-1.938,2.562,2.562,0,0,0-.76-1.919,2.515,2.515,0,0,0-1.881-.76,2.515,2.515,0,0,0-1.881.76A2.6,2.6,0,0,0-21.1-4.75,2.661,2.661,0,0,0-20.358-2.812Zm18.7-.931H-8.825A2.418,2.418,0,0,0-6.146-1.957a2.507,2.507,0,0,0,2.128-.95l1.976,1.14A4.712,4.712,0,0,1-6.184.266,5.111,5.111,0,0,1-9.965-1.159,4.868,4.868,0,0,1-11.39-4.75,4.92,4.92,0,0,1-9.984-8.322a4.78,4.78,0,0,1,3.61-1.444A4.462,4.462,0,0,1-2.935-8.322,4.994,4.994,0,0,1-1.567-4.75,6.756,6.756,0,0,1-1.662-3.743Zm-7.2-1.9h4.845a2.393,2.393,0,0,0-.845-1.425,2.391,2.391,0,0,0-1.511-.494,2.578,2.578,0,0,0-1.634.5A2.406,2.406,0,0,0-8.863-5.643ZM3.354-9.5v1.634a2.532,2.532,0,0,1,1.1-1.358A3.414,3.414,0,0,1,6.242-9.69v2.736A2.792,2.792,0,0,0,4.228-6.5a2.186,2.186,0,0,0-.874,1.957V0H.9V-9.5Zm6.289-1.14a1.442,1.442,0,0,1-1.054-.446,1.442,1.442,0,0,1-.446-1.054A1.473,1.473,0,0,1,8.588-13.2a1.427,1.427,0,0,1,1.054-.456,1.449,1.449,0,0,1,1.073.456,1.473,1.473,0,0,1,.447,1.064,1.442,1.442,0,0,1-.447,1.054A1.464,1.464,0,0,1,9.642-10.64ZM10.877,0H8.427V-9.5h2.451ZM23.113-3.743H15.95a2.418,2.418,0,0,0,2.679,1.786,2.507,2.507,0,0,0,2.128-.95l1.976,1.14A4.712,4.712,0,0,1,18.591.266,5.111,5.111,0,0,1,14.81-1.159,4.868,4.868,0,0,1,13.385-4.75a4.92,4.92,0,0,1,1.406-3.572A4.78,4.78,0,0,1,18.4-9.766,4.462,4.462,0,0,1,21.84-8.322,4.994,4.994,0,0,1,23.208-4.75,6.756,6.756,0,0,1,23.113-3.743Zm-7.2-1.9h4.845a2.393,2.393,0,0,0-.846-1.425,2.391,2.391,0,0,0-1.51-.494,2.578,2.578,0,0,0-1.634.5A2.406,2.406,0,0,0,15.912-5.643ZM30.125.266a4.875,4.875,0,0,1-3.591-1.444A4.885,4.885,0,0,1,25.109-4.75a4.885,4.885,0,0,1,1.425-3.572,4.875,4.875,0,0,1,3.591-1.444,4.923,4.923,0,0,1,2.527.665,4.422,4.422,0,0,1,1.729,1.786L32.272-6.08a2.15,2.15,0,0,0-.865-.931,2.512,2.512,0,0,0-1.3-.342,2.455,2.455,0,0,0-1.824.731A2.552,2.552,0,0,0,27.56-4.75a2.6,2.6,0,0,0,.722,1.862,2.472,2.472,0,0,0,1.824.722,2.605,2.605,0,0,0,1.32-.333,2.094,2.094,0,0,0,.865-.921L34.419-2.2A4.633,4.633,0,0,1,32.642-.4,4.939,4.939,0,0,1,30.125.266ZM45.552-3.743H38.389a2.418,2.418,0,0,0,2.679,1.786,2.507,2.507,0,0,0,2.128-.95l1.976,1.14A4.712,4.712,0,0,1,41.03.266a5.111,5.111,0,0,1-3.781-1.425A4.868,4.868,0,0,1,35.824-4.75,4.92,4.92,0,0,1,37.23-8.322a4.78,4.78,0,0,1,3.61-1.444,4.462,4.462,0,0,1,3.439,1.444A4.994,4.994,0,0,1,45.647-4.75,6.756,6.756,0,0,1,45.552-3.743Zm-7.2-1.9H43.2a2.393,2.393,0,0,0-.846-1.425,2.391,2.391,0,0,0-1.51-.494,2.578,2.578,0,0,0-1.634.5A2.406,2.406,0,0,0,38.351-5.643ZM-30.913,9.7h5.282a6.031,6.031,0,0,1,4.56,1.919,6.526,6.526,0,0,1,1.843,4.731,6.526,6.526,0,0,1-1.843,4.731A6.031,6.031,0,0,1-25.631,23h-5.282Zm2.622,10.792h2.66a3.7,3.7,0,0,0,2.812-1.14,4.263,4.263,0,0,0,1.083-3,4.153,4.153,0,0,0-1.083-2.983,3.673,3.673,0,0,0-2.812-1.159h-2.66Zm20.8-1.235h-7.163a2.418,2.418,0,0,0,2.679,1.786,2.507,2.507,0,0,0,2.128-.95l1.976,1.14a4.712,4.712,0,0,1-4.142,2.033,5.111,5.111,0,0,1-3.781-1.425,4.868,4.868,0,0,1-1.425-3.591,4.92,4.92,0,0,1,1.406-3.572,4.78,4.78,0,0,1,3.61-1.444,4.462,4.462,0,0,1,3.439,1.444A4.994,4.994,0,0,1-7.391,18.25,6.756,6.756,0,0,1-7.486,19.257Zm-7.2-1.9h4.845a2.393,2.393,0,0,0-.846-1.425,2.391,2.391,0,0,0-1.51-.494,2.578,2.578,0,0,0-1.634.5A2.406,2.406,0,0,0-14.687,17.357ZM-3.04,16.2q0,.608,1.729,1.045a8.532,8.532,0,0,1,1.1.313,4.819,4.819,0,0,1,1,.513,2.311,2.311,0,0,1,.788.883,2.732,2.732,0,0,1,.285,1.273,2.627,2.627,0,0,1-1.1,2.261,4.588,4.588,0,0,1-2.717.779,4,4,0,0,1-3.99-2.261l2.128-1.2a1.78,1.78,0,0,0,1.862,1.235q1.311,0,1.311-.817,0-.608-1.729-1.045-.646-.171-1.1-.342a5.612,5.612,0,0,1-.988-.5,2.221,2.221,0,0,1-.807-.855,2.591,2.591,0,0,1-.275-1.225,2.637,2.637,0,0,1,1.026-2.2,4.067,4.067,0,0,1,2.584-.817,4.3,4.3,0,0,1,2.109.523,3.819,3.819,0,0,1,1.5,1.491l-2.09,1.14a1.563,1.563,0,0,0-1.52-.969,1.347,1.347,0,0,0-.789.219A.659.659,0,0,0-3.04,16.2ZM5.415,12.36a1.525,1.525,0,0,1-1.5-1.5A1.473,1.473,0,0,1,4.361,9.8a1.427,1.427,0,0,1,1.054-.456A1.449,1.449,0,0,1,6.489,9.8a1.473,1.473,0,0,1,.446,1.064,1.442,1.442,0,0,1-.446,1.054A1.464,1.464,0,0,1,5.415,12.36ZM6.65,23H4.2V13.5H6.65Zm10.279-8.322V13.5h2.394v9.044a4.068,4.068,0,0,1-1.463,3.363,5.409,5.409,0,0,1-3.5,1.159,4.691,4.691,0,0,1-4.5-2.318l2.09-1.2a2.569,2.569,0,0,0,2.489,1.33,2.6,2.6,0,0,0,1.824-.608,2.224,2.224,0,0,0,.665-1.729V21.518a3.58,3.58,0,0,1-3.04,1.444,4.531,4.531,0,0,1-3.382-1.406A4.889,4.889,0,0,1,9.158,18.1a4.786,4.786,0,0,1,1.368-3.439,4.479,4.479,0,0,1,3.363-1.425A3.58,3.58,0,0,1,16.929,14.678Zm-.76,5.3a2.515,2.515,0,0,0,.76-1.881,2.393,2.393,0,0,0-.76-1.843,2.572,2.572,0,0,0-1.9-.741,2.678,2.678,0,0,0-1.919.741,2.424,2.424,0,0,0-.741,1.843,2.5,2.5,0,0,0,.75,1.872,2.623,2.623,0,0,0,1.91.732A2.609,2.609,0,0,0,16.169,19.979Zm11.419-6.745a3.37,3.37,0,0,1,2.565,1.045,3.985,3.985,0,0,1,1.026,2.888V23H28.728V17.471a1.974,1.974,0,0,0-.5-1.444,1.842,1.842,0,0,0-1.377-.513,1.994,1.994,0,0,0-1.53.6,2.482,2.482,0,0,0-.56,1.757V23H22.306V13.5h2.451v1.064A3.136,3.136,0,0,1,27.588,13.234Z" transform="translate(46 15)" fill="#fff"/>
    </g>
  </g>
</svg>
