<svg xmlns="http://www.w3.org/2000/svg" width="487" height="487" viewBox="0 0 487 487">
  <g id="グループ_298" data-name="グループ 298" transform="translate(-1203 -752)">
    <g id="グループ_112" data-name="グループ 112" transform="translate(1203.223 752.261)">
      <circle id="楕円形_1" data-name="楕円形 1" cx="243.5" cy="243.5" r="243.5" transform="translate(-0.222 -0.261)" fill="#1d1d1d" opacity="0.081"/>
      <circle id="楕円形_2" data-name="楕円形 2" cx="187.5" cy="187.5" r="187.5" transform="translate(55.777 55.739)" fill="#1d1d1d" opacity="0.135"/>
      <circle id="楕円形_3" data-name="楕円形 3" cx="77.5" cy="77.5" r="77.5" transform="translate(165.777 166.739)" fill="#1d1d1d" opacity="0.791"/>
    </g>
    <g id="グループ_297" data-name="グループ 297" transform="translate(-1)">
      <path id="パス_10" data-name="パス 10" d="M-40.923-5.2v2.826h5.31V0h-7.794V-12.6h7.7v2.376h-5.22v2.682h4.77V-5.2ZM-23.3-9.252a3.2,3.2,0,0,1,2.475,1.008,3.833,3.833,0,0,1,.927,2.7V0h-2.322V-5.382a1.844,1.844,0,0,0-.4-1.26,1.408,1.408,0,0,0-1.116-.45,1.526,1.526,0,0,0-1.233.522,2.284,2.284,0,0,0-.441,1.512V0h-2.322V-5.382a1.844,1.844,0,0,0-.4-1.26,1.408,1.408,0,0,0-1.116-.45,1.547,1.547,0,0,0-1.233.531,2.229,2.229,0,0,0-.459,1.5V0h-2.322V-9h2.322v.954a2.8,2.8,0,0,1,2.5-1.206,2.642,2.642,0,0,1,2.448,1.3A3.023,3.023,0,0,1-23.3-9.252Zm13.77,8.136A4.6,4.6,0,0,1-12.915.252,4.6,4.6,0,0,1-16.3-1.116,4.6,4.6,0,0,1-17.667-4.5,4.575,4.575,0,0,1-16.3-7.866a4.6,4.6,0,0,1,3.384-1.386A4.6,4.6,0,0,1-9.531-7.866,4.583,4.583,0,0,1-8.145-4.5,4.6,4.6,0,0,1-9.531-1.116Zm-5.13-1.6a2.37,2.37,0,0,0,1.746.7,2.37,2.37,0,0,0,1.746-.7,2.414,2.414,0,0,0,.7-1.782,2.414,2.414,0,0,0-.7-1.782,2.37,2.37,0,0,0-1.746-.7,2.37,2.37,0,0,0-1.746.7A2.488,2.488,0,0,0-15.345-4.5,2.488,2.488,0,0,0-14.661-2.718ZM-.837-9v2.232H-2.871v3.744a.89.89,0,0,0,.234.684,1.074,1.074,0,0,0,.684.243A10.079,10.079,0,0,0-.837-2.106V0A4.977,4.977,0,0,1-4.194-.441a2.966,2.966,0,0,1-1-2.583V-6.768H-6.759V-9h1.566v-1.818l2.322-.7V-9Zm3.51-1.08a1.366,1.366,0,0,1-1-.423,1.366,1.366,0,0,1-.423-1,1.4,1.4,0,0,1,.423-1.008,1.352,1.352,0,0,1,1-.432,1.372,1.372,0,0,1,1.017.432A1.4,1.4,0,0,1,4.113-11.5a1.366,1.366,0,0,1-.423,1A1.387,1.387,0,0,1,2.673-10.08ZM3.843,0H1.521V-9H3.843ZM14.355-1.116A4.6,4.6,0,0,1,10.971.252,4.6,4.6,0,0,1,7.587-1.116,4.6,4.6,0,0,1,6.219-4.5,4.575,4.575,0,0,1,7.587-7.866a4.6,4.6,0,0,1,3.384-1.386,4.6,4.6,0,0,1,3.384,1.386A4.583,4.583,0,0,1,15.741-4.5,4.6,4.6,0,0,1,14.355-1.116Zm-5.13-1.6a2.37,2.37,0,0,0,1.746.7,2.37,2.37,0,0,0,1.746-.7,2.414,2.414,0,0,0,.7-1.782,2.414,2.414,0,0,0-.7-1.782,2.37,2.37,0,0,0-1.746-.7,2.37,2.37,0,0,0-1.746.7A2.488,2.488,0,0,0,8.541-4.5,2.488,2.488,0,0,0,9.225-2.718ZM23.1-9.252a3.192,3.192,0,0,1,2.43.99A3.776,3.776,0,0,1,26.5-5.526V0H24.183V-5.238a1.87,1.87,0,0,0-.477-1.368A1.745,1.745,0,0,0,22.4-7.092a1.889,1.889,0,0,0-1.449.567,2.351,2.351,0,0,0-.531,1.665V0H18.1V-9h2.322v1.008A2.971,2.971,0,0,1,23.1-9.252ZM36.045-7.938V-9h2.322V0H36.045V-1.062A3.534,3.534,0,0,1,33.111.252a4.118,4.118,0,0,1-3.1-1.368A4.809,4.809,0,0,1,28.737-4.5a4.786,4.786,0,0,1,1.278-3.366,4.094,4.094,0,0,1,3.1-1.386A3.534,3.534,0,0,1,36.045-7.938ZM31.761-2.664a2.414,2.414,0,0,0,1.782.7,2.414,2.414,0,0,0,1.782-.7,2.487,2.487,0,0,0,.72-1.836,2.427,2.427,0,0,0-.72-1.818,2.383,2.383,0,0,0-1.782-.72,2.383,2.383,0,0,0-1.782.72,2.46,2.46,0,0,0-.7,1.818A2.521,2.521,0,0,0,31.761-2.664ZM43.515,0H41.193V-13.14h2.322Zm-72.8,8.4h5a5.713,5.713,0,0,1,4.32,1.818A6.183,6.183,0,0,1-18.216,14.7a6.183,6.183,0,0,1-1.746,4.482A5.713,5.713,0,0,1-24.282,21h-5ZM-26.8,18.624h2.52a3.508,3.508,0,0,0,2.664-1.08A4.039,4.039,0,0,0-20.592,14.7a3.934,3.934,0,0,0-1.026-2.826,3.479,3.479,0,0,0-2.664-1.1H-26.8Zm19.71-1.17h-6.786a2.291,2.291,0,0,0,2.538,1.692,2.375,2.375,0,0,0,2.016-.9l1.872,1.08a4.464,4.464,0,0,1-3.924,1.926,4.842,4.842,0,0,1-3.582-1.35,4.612,4.612,0,0,1-1.35-3.4,4.661,4.661,0,0,1,1.332-3.384,4.528,4.528,0,0,1,3.42-1.368A4.227,4.227,0,0,1-8.3,13.116,4.732,4.732,0,0,1-7,16.5,6.4,6.4,0,0,1-7.092,17.454Zm-6.822-1.8h4.59a2.267,2.267,0,0,0-.8-1.35,2.265,2.265,0,0,0-1.431-.468,2.443,2.443,0,0,0-1.548.477A2.28,2.28,0,0,0-13.914,15.654Zm11.034-1.1q0,.576,1.638.99a8.083,8.083,0,0,1,1.044.3,4.565,4.565,0,0,1,.945.486,2.19,2.19,0,0,1,.747.837,2.589,2.589,0,0,1,.27,1.206A2.488,2.488,0,0,1,.72,20.514a4.347,4.347,0,0,1-2.574.738,3.786,3.786,0,0,1-3.78-2.142l2.016-1.134a1.687,1.687,0,0,0,1.764,1.17q1.242,0,1.242-.774,0-.576-1.638-.99-.612-.162-1.044-.324a5.316,5.316,0,0,1-.936-.477A2.1,2.1,0,0,1-5,15.771a2.455,2.455,0,0,1-.261-1.161,2.5,2.5,0,0,1,.972-2.088,3.853,3.853,0,0,1,2.448-.774,4.076,4.076,0,0,1,2,.495,3.618,3.618,0,0,1,1.422,1.413L-.4,14.736a1.481,1.481,0,0,0-1.44-.918,1.276,1.276,0,0,0-.747.207A.624.624,0,0,0-2.88,14.556ZM5.13,10.92A1.445,1.445,0,0,1,3.708,9.5,1.4,1.4,0,0,1,4.131,8.49a1.352,1.352,0,0,1,1-.432,1.372,1.372,0,0,1,1.017.432A1.4,1.4,0,0,1,6.57,9.5a1.366,1.366,0,0,1-.423,1A1.387,1.387,0,0,1,5.13,10.92ZM6.3,21H3.978V12H6.3Zm9.738-7.884V12h2.268v8.568a3.854,3.854,0,0,1-1.386,3.186,5.125,5.125,0,0,1-3.312,1.1,4.444,4.444,0,0,1-4.266-2.2l1.98-1.134a2.434,2.434,0,0,0,2.358,1.26,2.464,2.464,0,0,0,1.728-.576,2.107,2.107,0,0,0,.63-1.638V19.6a3.392,3.392,0,0,1-2.88,1.368,4.292,4.292,0,0,1-3.2-1.332,4.631,4.631,0,0,1-1.278-3.276,4.534,4.534,0,0,1,1.3-3.258,4.244,4.244,0,0,1,3.186-1.35A3.392,3.392,0,0,1,16.038,13.116Zm-.72,5.022a2.383,2.383,0,0,0,.72-1.782,2.267,2.267,0,0,0-.72-1.746,2.437,2.437,0,0,0-1.8-.7,2.537,2.537,0,0,0-1.818.7,2.3,2.3,0,0,0-.7,1.746,2.369,2.369,0,0,0,.711,1.773,2.485,2.485,0,0,0,1.809.693A2.472,2.472,0,0,0,15.318,18.138Zm10.818-6.39a3.192,3.192,0,0,1,2.43.99,3.776,3.776,0,0,1,.972,2.736V21H27.216V15.762a1.87,1.87,0,0,0-.477-1.368,1.745,1.745,0,0,0-1.305-.486,1.889,1.889,0,0,0-1.449.567,2.351,2.351,0,0,0-.531,1.665V21H21.132V12h2.322v1.008A2.971,2.971,0,0,1,26.136,11.748Z" transform="translate(1448 990)" fill="#fff"/>
    </g>
  </g>
</svg>
