<svg xmlns="http://www.w3.org/2000/svg" xmlns:xlink="http://www.w3.org/1999/xlink" width="550" height="550" viewBox="0 0 550 550">
  <defs>
    <clipPath id="clip-iPhone_X_XS_11_Pro_1">
      <rect width="550" height="550"/>
    </clipPath>
  </defs>
  <g id="iPhone_X_XS_11_Pro_1" data-name="iPhone X/XS/11 Pro – 1" clip-path="url(#clip-iPhone_X_XS_11_Pro_1)">
    <path id="合体_4" data-name="合体 4" d="M4217-653V-922H3949v-2h268v-269h2v269h270v2H4219v269Z" transform="translate(-3944 1198)" fill="#3351f7"/>
    <circle id="楕円形_1" data-name="楕円形 1" cx="270" cy="270" r="270" transform="translate(5 5)" fill="#3351f7" opacity="0.081"/>
    <circle id="楕円形_2" data-name="楕円形 2" cx="207" cy="207" r="207" transform="translate(68 68)" fill="#3351f7" opacity="0.135"/>
    <g id="グループ_309" data-name="グループ 309" transform="translate(-1043 -727)">
      <path id="パス_16" data-name="パス 16" d="M-185.339,7.238l1.078-1.078q12.4-3.773,20.636-4.389L-164.7,2.849Q-166.166,4-166.32,4.158a3.513,3.513,0,0,1-.885.462,2.6,2.6,0,0,1-1.155.27,12.636,12.636,0,0,0-2.348.346q-1.617.385-4.543,1.232-1.617.462-5.7,1.54t-6.468,1.771q-2.387.693-5.736,1.886a48.116,48.116,0,0,0-6.083,2.618,34.377,34.377,0,0,0-5.044,3.2q-1.078,2.7-.154,3.08t4.158-.385q1.078-.231,1.694-.347t1.732-.308q1.117-.193,2.117-.347,4.7-.616,13.321-2.079l10.934-1.848,12.32-2,15.246-2.387q5.775-.924,12.32-1.771,31.647-4.158,53.207-6.16Q-53.592.616-26.411-.693-19.25-1-11.2-1.193T6.7-1.5q9.856-.116,15.246-.192L20.867-.616q-5.39.154-15.246.231t-17.9.269q-8.046.193-15.207.5Q-54.67,1.694-78.463,4q-21.56,2-53.207,6.16-6.622.847-12.32,1.771l-15.246,2.387-12.32,2-10.934,1.848q-8.624,1.463-13.321,2.079-1,.154-2.079.385l-1.848.308q-.616.077-1.617.308-1.386.231-1.964.347a9.179,9.179,0,0,1-1.309.154,1.592,1.592,0,0,1-.924-.116,1.311,1.311,0,0,1-.346-.577,1.742,1.742,0,0,1,.038-1.078,16.462,16.462,0,0,1,.655-1.733l1.078-1.078a35.894,35.894,0,0,1,5.044-3.5,38.639,38.639,0,0,1,6.275-2.849q3.542-1.271,5.929-2t6.776-1.848q4.389-1.116,5.929-1.578,2.695-.77,4.658-1.194a24.751,24.751,0,0,1,2.5-.462,3.554,3.554,0,0,0,.962-.193,4.566,4.566,0,0,0,1.117-.693A103.816,103.816,0,0,0-185.339,7.238Z" transform="matrix(0.995, -0.105, 0.105, 0.995, 1512, 1081)" fill="#3351f7"/>
      <path id="パス_15" data-name="パス 15" d="M-94.536-10.044v.018c-.054-.018-.468-.324-.468-.522-.252,0-.252-.162-.288-.162-.018,0-.054.018-.072.018-.09,0-.036-.162-.252-.162h-.054c-.018-.072-.072-.126-.09-.216-.252-.018-1.026-.414-1.026-.612.018-.054.054-.09.144-.09h.054c0-.27.306-.414.306-.666a.4.4,0,0,0-.054-.144c0-.054.054-.108.054-.144a.1.1,0,0,0-.054-.072.251.251,0,0,0,.072-.162c0-.072-.018-.144-.018-.288a.066.066,0,0,1-.054.018c-.09,0-.108-.18-.162-.18h-.072c-.126,0-.342-.054-.576-.054-.252,0-.2.144-.36.306v.072c0,.108-.054.054-.054.144,0,.072.018.144.018.216,0,.18-.108.126-.108.216v.144c0,.054-.108.054-.108.108v.054c0,.108-.2.144-.252.144-.036,0-.27-.036-.27-.09a.063.063,0,0,1,.018-.036h-.09a1.331,1.331,0,0,0-.99-.306c-.108-.018-.09-.144-.216-.144-.054,0-.036.054-.072.054s-.09-.054-.108-.054c-.072,0-.126.072-.216.072a2.656,2.656,0,0,1-.864-.486,1.752,1.752,0,0,1-.864-.2.458.458,0,0,1-.126.036c-.108,0-.144-.09-.306-.09h-.072v-.018c0-.09-.072-.09-.108-.144h-.108c-.324,0-.45-.2-.792-.2h-.126a.949.949,0,0,0-.54-.252c-.09,0-.18.018-.27.018s-.036-.018-.144-.072a.78.78,0,0,1-.09.018,2.08,2.08,0,0,1-.486-.324v-.108c0-.072-.018-.144-.09-.144v.054c0,.09-.036.144-.108.144-.09-.018-.09-.09-.144-.09a.259.259,0,0,0-.054.036c-.036,0-.27-.306-.414-.306h-.144c-.162,0-.126-.126-.234-.126-.072,0-.18.108-.252.108-.018,0-.036,0-.036-.018-.054.162-.2.234-.2.4,0,.126.108.216.108.36v.054c.09.09.306.054.342.2.306.378.684.18.774.414.108,0,.108-.054.2-.054a.252.252,0,0,1,.216.162c.072,0,.108-.054.162-.072a6.835,6.835,0,0,0,.756.27h.054a4.294,4.294,0,0,1,.684.162c.108,0,.18-.054.27-.054.036.144.234.126.306.252h.09c.126,0,.126.108.18.108.018,0,.036-.036.036-.036v-.018c.09.036.576.162.612.2h.09c.018,0,.018.018.018.054h.072c.414,0,.54.27.81.27h.054c.036,0,.054.018.09.036h.09a8.213,8.213,0,0,0,1.026.252c-.108-.054.468.18.5.306.09,0,.108-.054.2-.054a1.49,1.49,0,0,0,.27.2.094.094,0,0,1,.072-.036.44.44,0,0,1,.27.144c-.144.036-.144.306-.5,1.026h-.036c-.018,0-.018,0-.018.018v.054c0,.054-.09.036-.09.072-.036.072-.018.18-.054.252-.054.054-.162.054-.162.234V-9.5c0,.018,0,.036-.018.036a.063.063,0,0,0-.036-.018v.072c0,.072-.054.018-.054.072,0,.018.018.054.018.072h-.054a.018.018,0,0,0-.018.018c0,.018.018.054.018.072a.018.018,0,0,1-.018.018.063.063,0,0,1-.036-.018.063.063,0,0,0-.018.036c0,.018.018.054.018.072-.018,0-.054-.018-.054.018v.072c0,.144-.162.2-.162.252,0,.018.018.054.018.072h-.054a.018.018,0,0,0-.018.018c0,.018.018.054.018.072a.018.018,0,0,1-.018.018.063.063,0,0,1-.036-.018v.09a1.094,1.094,0,0,1-.162.324c-.108,0-.2.378-.2.666-.306.09-.414.612-.5.81-.126.234-.558.738-.558,1.17a1.211,1.211,0,0,0-.4.774.242.242,0,0,0,.036.144,1.075,1.075,0,0,0-.4.576v.072c0,.288-.306.432-.306.7a.194.194,0,0,0,.036.126h-.036c-.234,0-.144.324-.324.36v.072c0,.7-.81.684-.81,1.4,0,.342.306.432.306.486v.036a1.036,1.036,0,0,1,.18-.036c.072,0,.126.036.18.126,0,.144-.126.144-.126.252,0,.072.072.09.072.18V-.09c0,.054.054.072.054.162V.108c.18.036.234.288.36.4h.054c.09,0,.144.054.2.054.036,0,.054-.018.09-.054.126.126.288.2.414.306a.722.722,0,0,1,.27-.054c.27,0,.54.09.738.09A2.315,2.315,0,0,0-99.288.5,7.41,7.41,0,0,0-98.442.09V.018c0-.018,0-.054.072-.072A.057.057,0,0,0-98.316,0c.054,0,.144-.108.144-.108a1.938,1.938,0,0,0,.288-.036h.072V-.2h.09c0,.018,0,.018.018,0h-.018c.018-.054.216-.36.378-.36.162-.09.324-.234.5-.36.018,0,.018.018.036.018s.018-.018.018-.036v-.072c0-.036.09-.054.126-.054h.072c.036-.288.234-.414.468-.522.108-.252.288-.162.612-.666h.036c.216,0,.4-.432.72-.558a1.1,1.1,0,0,1,.324-.54,1.7,1.7,0,0,0,.4-.036c0-.18.648-.27.972-.252.27.018.2-.09.27-.09.036,0,.054.054.072.054.108,0,.162-.126.2-.126.036.108.09.108.162.108a1.548,1.548,0,0,0,.288-.018.78.78,0,0,0,.09.018c0,.036.324-.144.306-.144.2,0,.522-.036.792-.018a3.915,3.915,0,0,0,.666-.036l-.036.2a3.383,3.383,0,0,1-.18.63.334.334,0,0,1-.036.126,2.12,2.12,0,0,0-.072.45.1.1,0,0,1,0,.108c0,.072.018.108.018.144v.072c0,.036-.018.09-.108.2a.453.453,0,0,0,.108.036.29.29,0,0,1-.054.162,7.387,7.387,0,0,1,.09.738c-.036.036-.036.054-.036.126,0,.054,0,.09.018.108,0,0,.126.4.162.468a.392.392,0,0,0,.018.108h.036V-.18c.036.036.054.054.054.09a.216.216,0,0,0,.054.144c.108,0,.18.09.306.162a1.06,1.06,0,0,0,.738.342h.108c.036,0,.054-.018.09-.018a1.062,1.062,0,0,0,.252.036A.386.386,0,0,0-88.47.5a2.066,2.066,0,0,1,.432-.036,1.38,1.38,0,0,0,.306-.09c.036-.09.252-.108.414-.216a1.958,1.958,0,0,0,.648-.306c0-.126.4-.342.522-.342a.274.274,0,0,0,.18-.108c.054-.036.09-.072.126-.072q.108-.054.108-.108l-.018-.072V-.864A.171.171,0,0,0-85.626-.9a.368.368,0,0,1,.144-.018c0-.072,0-.072.018-.09l.09-.054c.09-.018.054-.054.054-.126v-.036A.535.535,0,0,1-85.1-1.26l.324-.126a.393.393,0,0,1,.216-.18c.4-.234.522-.288.522-.5l.018-.018c.018-.018.108-.054.126-.09a.5.5,0,0,0,.234-.18c.018-.036.072-.09.108-.09a3.933,3.933,0,0,1,.306-.522c.162,0,.162-.072.2-.126.018-.036.054-.054.144-.054.018-.09.144-.2.162-.234.126.072.108-.036.18-.144a.063.063,0,0,1,.018-.036c.09,0,.126-.09.2-.2.036-.072.144-.072.126-.09.054-.018.18-.288.09-.4v.018a.3.3,0,0,0-.2-.162.28.28,0,0,0-.162.054c-.018.018-.018.018-.036.018l-.162.126a.353.353,0,0,1-.252.252c-.126.054-.162.216-.252.306,0,.018,0,.036-.018.036-.036.018-.126.144-.2.2a1.363,1.363,0,0,0-.252.18c-.108.09-.09.126-.234.2,0,0-.09.126-.108.162-.036.018-.036.036-.036.036-.09,0-.144.036-.144.108V-2.7c-.036,0-.27.234-.342.27a.96.96,0,0,1-.378.2c-.144.27-.288.27-.468.4l-.27.234a.715.715,0,0,0-.36.2,1.121,1.121,0,0,1-.576.342c-.036.036-.324.126-.324.162-.018.054.018.072-.036.09a.919.919,0,0,0-.486.18c-.144.09-.2.216-.306.216-.018,0-.09-.018-.108-.018l-.378.072a3.32,3.32,0,0,0-.288.18.242.242,0,0,0-.162-.036A.912.912,0,0,0-88.9-.18a.373.373,0,0,1-.108.036c-.234,0-.252-.144-.252-.2-.18,0-.27-.252-.27-.288A.291.291,0,0,1-89.5-.72L-89.6-.828a1.474,1.474,0,0,0-.234-.882.344.344,0,0,0,.072-.27v-.252a.342.342,0,0,1,.054-.162.779.779,0,0,0-.018-.09.194.194,0,0,1,.054-.126,1.657,1.657,0,0,0,.054-.162c-.072-.018-.072-.036-.072-.072v-.108c0-.018-.018-.054-.018-.072.054,0,.072-.2.108-.216.108-.126.09-.18.216-.5a.5.5,0,0,0,.018-.144c-.018-.036.018-.072.072-.072a.094.094,0,0,1,.072.036h.144a.2.2,0,0,0,.144,0,.532.532,0,0,0,.234.036,1.4,1.4,0,0,0,.162-.018.891.891,0,0,1,.234.072.447.447,0,0,0,.162.018.3.3,0,0,0,.162-.036c-.018,0,.18-.018.216.018a.533.533,0,0,0,.18.036c.234,0,.2.036.324-.018a.19.19,0,0,0,.09-.036.676.676,0,0,0,.468.108h.2c.252.144.27.036.468-.108l.126-.108a.108.108,0,0,0,.072.018c.072,0,.126-.072.2-.144l.036-.072c0-.234-.126-.324-.27-.468l-.09-.108A.266.266,0,0,1-86.13-4.9c-.036-.09-.036-.126-.216-.126a.959.959,0,0,0-.234-.36.593.593,0,0,1-.162-.288c-.072-.126-.108-.144-.2-.162l-.144-.09a.552.552,0,0,0-.162-.252l-.09-.126a.323.323,0,0,1-.2-.054.29.29,0,0,0-.2-.054h-.036a.334.334,0,0,0-.216-.126l-.18-.036c-.018.054-.036.054-.054.054l-.18-.09c-.036.054-.054.054-.054.054h-.108c-.036,0-.054-.018-.09-.018-.108,0-.432.576-.432.63V-5.9a.6.6,0,0,0-.2.162l-.27.234v.09c0,.054-.27.414-.306.576A.541.541,0,0,0-90-4.68l-.054.126a.228.228,0,0,0-.018.108c-.18,0-.36,0-.594.018-.108,0-.234.072-.342.072a.346.346,0,0,1-.18-.036,1.043,1.043,0,0,0-.5.072c0-.036-.036-.054-.072-.054a5.179,5.179,0,0,0-1.1.126c-.09-.018-.594.036-.648.018a.573.573,0,0,1-.234.072.162.162,0,0,0,.018-.09c0-.018.252-.612.252-.63.09-.234.306-1.17.36-1.386.018-.108.072-.126.072-.162s-.036-.018-.036-.144c0-.18.054-.162.054-.324a.221.221,0,0,0-.036-.09c.018,0,.054-.072.054-.09,0-.126-.054-.144-.054-.324v-.144c0-.162-.126-.09-.126-.2,0-.036.018-.09.018-.108,0,.036-.072-.36-.108-.5-.2-.072-.09-.378-.666-.972-.018-.036,0-.162-.054-.162h-.072c-.018,0-.018,0-.018-.018v-.054c0-.126-.36-.378-.45-.45Zm.036,5.382c-.018.18-.342.5-.486.756-.09,0-.234.018-.342.018-.18,0-.774.234-1.134.252-.108-.018-.072.09-.162.108-.126.09-.27.036-.432.144-.306.162-.684.126-1.044.288.108,0-.4.054-.45.216h-.162a1.494,1.494,0,0,0-.486.108c.018.018-.324.306-.432.288-.018,0-.018-.054-.018-.054-.072,0-.216.144-.288.144h-.054c-.018,0-.414.216-.45.216a.066.066,0,0,1-.054-.018,2.74,2.74,0,0,1-1.26.522c.036-.342.144-.306.18-.468a1.085,1.085,0,0,1,.5-.918c0-.306.09-.972.27-.972h.036a.228.228,0,0,1-.018-.108c0-.18.126-.27.126-.45h.036c.108,0,.324-.162.324-.594a.351.351,0,0,0-.018-.126h.054c.234,0,.072-.36.234-.36.072,0,.072.09.126.108.09-.018.054-.306.054-.45a2.4,2.4,0,0,0,.216-.522.162.162,0,0,0-.018-.09c.378-.2.288-.594.414-.864.018-.036.054,0,.054-.054,0-.126.306-.252.306-.468-.036.054.018-.162.306-.45,0-.018-.018-.054-.018-.072a3.235,3.235,0,0,0,.216-.792c.486-.27.522-.684.666-1.08.09-.09.288-.144.36-.378h.216c.234,0,.144.126.252.126h.072c.036,0,.018.036.018.054h.072a.929.929,0,0,1,.288.108c.018,0,.018.09.072.09h.09a.8.8,0,0,1,.342.36c.342.036.36.234.756.5,0,.036.288.4.468.414v.036c0,.036-.018.072-.018.108,0,.09.234.18.324.468,0,.018-.018.054-.018.072a.6.6,0,0,0,.216.18c0,.018-.018.054-.018.072,0,.144.27.4.27.522V-7.6a1.777,1.777,0,0,1,.054.468c0,.054-.018.108-.018.18a.9.9,0,0,0,.054.216.708.708,0,0,1-.036.108v.072c0,.036-.018.054-.018.072,0,.036.018.09.018.18,0,.162-.108.306-.108.468,0,.018.018.054.018.072-.054.036-.054.144-.108.252C-94.1-5.472-94.5-4.716-94.5-4.662ZM-95.85-3.15c0-.054.162-.072.342-.09V-3.2c-.252,0-.378.4-.5.4a.43.43,0,0,1-.162-.054c0,.108-.072.126-.072.216,0,.018.018.036.018.054a1.778,1.778,0,0,0-.72.648h-.036c-.162,0-.9.54-.918.72h-.036c-.18,0-1.278.864-1.476.864h-.054a1.389,1.389,0,0,0-.27.108c-.036.036-.072.162-.756.162a.62.62,0,0,1-.162-.018s-.018.054-.036.054c-.036,0-.036-.054-.072-.054-.09,0-.18.018-.27.018-.054,0-.09-.018-.144-.018V-.162c0-.126-.144-.2-.144-.27.018-.036.09-.252.252-.252H-101V-.72a.672.672,0,0,1,.108-.126c.018,0,.054.018.072.018a.063.063,0,0,0,.036-.018c-.054.036.27-.216.27-.288v-.018a.258.258,0,0,1,.2-.054c.018-.108-.054-.108-.054-.162,0-.126.648-.234.774-.54a1.673,1.673,0,0,0,.738-.288c.036-.036.108-.018.144-.054a1.151,1.151,0,0,1,.666-.216.914.914,0,0,0,.558-.234h.072a1.249,1.249,0,0,0,.63-.18C-96.642-2.952-95.85-3.06-95.85-3.15Zm9.018-1.386a1.238,1.238,0,0,1,.216.288c-.09.018-.036,0-.054,0l-.072.036-.234.018a8.34,8.34,0,0,0-1.6-.216c-.09,0-.126.018-.216.018H-88.9a1.584,1.584,0,0,0-.252-.018h-.036a.3.3,0,0,1,.108-.27.629.629,0,0,0,.306-.45c.036,0,.072-.036.126-.072a2.121,2.121,0,0,1,.306-.5c.036,0,.072,0,.09.054.054,0,.126.054.144.054a1.039,1.039,0,0,1,.144-.18c.252.018.432.2.756.594a1.21,1.21,0,0,1,.252.558C-86.958-4.608-86.922-4.554-86.832-4.536ZM-78.7-6.192c-.072-.162-.36-.4-.36-.432V-6.7c0-.054-.306-.126-.5-.378a.4.4,0,0,1-.144.018c-.144,0-.252-.054-.378-.054a.424.424,0,0,0-.144.036.582.582,0,0,0-.468-.216c-.108,0-.18.072-.216.072h-.072c-.054,0-.108.018-.144.018-.09,0-.162-.018-.288-.018s-.252.072-.378.072a.135.135,0,0,1-.09-.018,2.479,2.479,0,0,1-.558.36.6.6,0,0,1-.162.378c0,.036.054,0,.054.036a.112.112,0,0,1-.054.09,8.134,8.134,0,0,0-.234,1.26c0,.126.036.252.036.45,0,.144-.018.306-.018.468a2,2,0,0,0,.216.756c.036.09.018.216.054.306a.611.611,0,0,1,.108.108,7.809,7.809,0,0,1,.162.828.063.063,0,0,0,.036-.018v.108c.4.4.306.756.666,1.656h-.036c-.054,0-.144-.018-.216-.018-.414,0-.27.162-.378.162h-.036c-.144-.18-.612-.09-.72-.2h-.09c-.252-.09-.72-.126-.72-.216-.036,0-.054.054-.054.054-.072,0-.072-.054-.144-.054-.054,0-.036.108-.108.108,0,.162.09.216.27.216.054,0,.108-.018.18-.018.018.144.216.108.27.216h.09c.684,0,.63.306.882.306h.18c.108,0,.108.108.216.108h.126A.4.4,0,0,0-81.612.4a.063.063,0,0,0,.036-.018c.09.036.018.054.072.054a.112.112,0,0,0,.09-.054c.126,0,.216.108.342.108.306,0,.594-.432.594-.648,0-.072-.054-.108-.054-.18V-.486c0-.18-.252-.306-.252-.522a.424.424,0,0,1,.036-.144c-.162-.09-.18-.27-.252-.414-.036,0-.072.018-.072-.036,0-.018.018-.054.018-.072-.036-.162-.09-.126-.162-.2a3.516,3.516,0,0,1-.306-.882,1.77,1.77,0,0,1-.252-.576c0-.036.054,0,.054-.054,0-.018-.09-.252-.108-.342,0-.018.036-.018.036-.018a2.714,2.714,0,0,0-.126-.81c.018-.2.162-.288.162-.522,0-.036-.018-.09-.018-.144h.018c.018,0,.018,0,.018-.036,0-.144.126-.036.126-.126v-.036a.863.863,0,0,0,.09-.306v-.054c.252,0,.45-.306.5-.306h.072a.457.457,0,0,1,.414-.162c.306,0,.5.252.882.252.054,0,.072.18.234.18a.228.228,0,0,0,.108-.018c.072.108.09.252.252.252.108-.108.234-.522.36-.576ZM-76.14-.45c-.2,0-.2.108-.522.324l-.126-.036c-.036.072-.18,0-.216.036a.451.451,0,0,1-.144-.324c.018-.162.072-.09.09-.234a6.989,6.989,0,0,0,.144-.7,1.753,1.753,0,0,0,.036-.432h.018c.054,0,.036-.036.072-.09.018,0,.09-.216.126-.2.27.018-.018-.306-.018-.414a1.836,1.836,0,0,0,.486-1.116,3,3,0,0,0,.306-.468c0-.054.018,0,.018-.054.018-.072-.018-.09-.018-.108l.018-.018c.144-.09.162-.288.18-.4a.951.951,0,0,0-.018-.234c.072,0,.09-.108.162-.2a3.74,3.74,0,0,1,0-.45c-.162-.072-.306-.4-.4-.522.072-.342-.072-.414-.306-.432h-.126c-.018,0,0,.054-.036.054h-.072c-.072,0-.144.18-.216.162-.018,0-.036,0-.036-.018-.018.108.018.144.018.252-.018.018.018.324-.054.4-.036.036.108.2.09.234.018,0-.126.288-.108.288-.036.108-.054.126-.036.2.054.108.018.09.018.162-.018.18-.252.522-.252.612,0,.072.072.126.072.216-.306.234-.27.666-.378,1.116a.39.39,0,0,0-.18.2.486.486,0,0,0,0,.162,4.233,4.233,0,0,1-.216.522v.108c-.018.126-.054.126-.072.234a.358.358,0,0,0,0,.144c0,.018,0,.036-.036.054-.09.054-.036.342-.108.432.108.126.018.324,0,.4,0,.036.018.036.018.054,0,.072-.036.108-.036.144a1.559,1.559,0,0,1,.036.18c0,.054-.054.09-.054.126,0,.018.036.054.036.09V.072c0,.054.108.216.09.342.252.108.324.324.54.342.162,0,.2-.072.234-.036a.78.78,0,0,1,.09.018c.036,0,.054-.126.216-.108.27.036.792-.486.954-.486V.108c.162-.144.09-.018.324-.216.036.018.054-.072.09-.072.09,0,.144-.054.252-.054V-.252c0-.018.018-.036.054-.072a3.435,3.435,0,0,1,.72-.522c.018-.036.27-.108.306-.216,0-.144.288-.144.342-.234v-.036c0-.036.18-.036.18-.108v-.036c.162-.18.252-.2.414-.378h.036c-.054,0,.18-.108.234-.144.072-.126.18-.378.306-.378a2.954,2.954,0,0,0,.522-.45c.108-.144.4-.486.4-.5-.036-.018.09-.018.18-.09.144-.09.018-.252.054-.288.018-.018.036-.054.054-.054.036-.036.036.036.108-.018.072-.018.072-.306.144-.342l-.18-.054c0,.09-.162-.072-.162.054v.036a2.855,2.855,0,0,0-.666.648.136.136,0,0,0,.018.072h-.036c.018,0-.324.216-.36.252a1.493,1.493,0,0,1-.27.306c-.108,0-.432.378-.756.594,0-.054-.036-.054-.072-.054-.126,0-.018.216-.126.216H-73.8c-.2.306-.2.162-.4.27-.036.036-.036.09-.072.09h-.072a5.144,5.144,0,0,1-.846.63c-.414.252-.18.288-.558.414C-75.708-.648-76.1-.486-76.14-.45Zm2.124-10.1a2.051,2.051,0,0,1-.216-.252v-.072c0-.018,0-.036-.018-.036a2.229,2.229,0,0,0-.342.09c-.126,0-.2-.018-.2-.072a.252.252,0,0,1-.162.108h-.072c-.036,0,0,.126-.036.126-.036-.054-.036-.054-.072-.054-.09,0-.324.27-.306.27,0,.234-.072.324.144.468.036.018.036.108.072.108.036.054.09.036.144.072.018,0-.018.054.036.054h.162c.036.216.36.126.54.144.09-.144.252-.216.252-.342v-.09c.018-.09.09-.072.09-.144-.018-.072-.144-.09-.144-.144,0-.126.09-.108.126-.2ZM-58.05-4.3c.054,0,.054.072.054.108a3.348,3.348,0,0,1-.144.576c-.072.306-.18.828-.18.828,0-.018.018.09.054.126a1.009,1.009,0,0,0-.144.378v.108a2.03,2.03,0,0,1-.036.252c0,.072.036.072.036.108,0,.072-.036.162-.036.324v.378a2.043,2.043,0,0,1-.018.252,2.865,2.865,0,0,0,.2,1.152,2.183,2.183,0,0,0,.612.666,1.015,1.015,0,0,1,.126-.018c.054,0,.036.126.108.144a3.687,3.687,0,0,0,.432.09,1.359,1.359,0,0,0,.54-.18h.072c.09-.018.108-.018.144-.054.018,0,.036.018.054.018A.018.018,0,0,0-56.16.936V.9h.108V.864h.072c.036,0-.018-.054.036-.054h.054c.234-.162.162-.324.486-.4.324-.126.522-.342.828-.486-.09-.09-.054-.216-.234-.288a1.061,1.061,0,0,1-.5.2c-.2.072-.288.414-.576.378-.018,0-.252.126-.27.108-.342,0-.252.09-.7.09a.82.82,0,0,1-.4-.126c-.09-.414-.27-.5-.27-.684A.637.637,0,0,0-57.51-.5c0-.054-.072-.054-.072-.144a2.532,2.532,0,0,1,.072-.486.768.768,0,0,0-.108-.432c.18-.09.036-.45.234-.5a.447.447,0,0,1-.018-.144c0-.216.108-.45.108-.684v-.18a.467.467,0,0,1,.108-.252c0-.036-.018-.072-.018-.126a.018.018,0,0,1,.018-.018c.126-.27.126-.2.126-.45a.063.063,0,0,0,.036.018c.18,0,.072-.54.162-.54.018,0,.054.018.072.018s.036-.018.036-.054c-.036,0,.216-.36.216-.486,0-.18-.072-.522-.09-.774-.072,0-.2-.054-.216-.126h-.018c-.018,0-.018.036-.036.036-.054,0-.09-.072-.162-.072-.054,0-.072.036-.108.036-.018,0-.018-.036-.072-.036h-.018v.018c0,.036-.054.054-.09.054H-57.4c-.108,0-.108.09-.108.162,0,.018-.126.054-.126.072a1.128,1.128,0,0,1-.324.216c-.054.018-.054.27-.144.27a.079.079,0,0,1-.054-.018c-.162,0-.324.36-.432.54-.054.054-.144.09-.18.162-.018,0-.072.072-.756.774a1.5,1.5,0,0,1-.144.216c.054,0-.252.2-.27.324v.072h-.036v.054c-.09.108-.414.4-.432.558v.036c-.09.018-.09.126-.216.108h-.018c-.27.468-.5.864-.612.882-.018-.09-.2-.036-.2-.126a.293.293,0,0,0,.054-.108,2.567,2.567,0,0,1-.054-.378c.054,0,.126,0,.126-.054v-.036a.862.862,0,0,1,.18-.72,5.559,5.559,0,0,1,.252-1.1c.09,0,.108.036.162.036s.072-.162.072-.252v-.144c.108,0,.252.018.306-.036-.018.018.27-.54.324-.648-.018,0-.018-.036-.018-.072,0-.054.054-.306.234-.306V-5.4c0-.162.09-.252.09-.4,0-.108-.054-.036-.054-.108v-.072c0-.288-.486-.468-.5-.468-.072,0-.162.036-.252.036a.334.334,0,0,1-.126-.036c-.036.126-.162.162-.216.216a1,1,0,0,0-.09.288c-.09.144.036-.036-.18.432a1.2,1.2,0,0,0-.306.306c-.018.054-.036.18-.054.18a.063.063,0,0,1-.036-.018v.072l-.018.018-.036.036a.018.018,0,0,0-.018.018c-.108.072-.288.234-.306.234a.063.063,0,0,0-.036-.018c-.144.072.036.36-.2.36-.054,0-.126-.054-.2-.054-.018,0-.036.018-.072.054v-.018A1.1,1.1,0,0,1-63-4a1.721,1.721,0,0,0-.576.306.887.887,0,0,0-.756.4v-.018a.42.42,0,0,1-.252.126c-.018,0-.036.018-.054.018A.944.944,0,0,0-65-2.9a.526.526,0,0,0-.5.108,1.538,1.538,0,0,1-.684.288,2.7,2.7,0,0,1-.036-.4,4.493,4.493,0,0,1-.036-.45c0-.018.018-.036.036-.054.018,0,.054-.072.054-.126a.279.279,0,0,0-.036-.144l-.054-.108c0-.072.018-.108.018-.144a.242.242,0,0,0-.036-.162c-.18-.144-.252-.126-.252-.216v-.2c-.144,0-.162-.018-.162-.054-.018-.126-.018-.306-.4-.522l-.036.144c-.036,0-.72-.2-.684-.252a.459.459,0,0,0-.2.162c-.018.018-.036.036-.018.036-.126,0-.162.108-.162.2v.018c-.09.036-.072.018-.072.09h-.018l-.036.144a1.32,1.32,0,0,1-.234.234,2.923,2.923,0,0,0-.324.36,1.528,1.528,0,0,0-.486.612v.036a1.677,1.677,0,0,0-.5.612c-.036-.018-.036,0-.054,0a2.463,2.463,0,0,0-.666.648l-.108.108a.729.729,0,0,0-.144.234c0,.072-.234.2-.306.234v.144a.482.482,0,0,0-.27.18.588.588,0,0,1-.252.2.339.339,0,0,0,.036-.144.664.664,0,0,1,.108-.288c0-.018-.018-.072-.018-.09a1.326,1.326,0,0,1,.216-.666,2.256,2.256,0,0,0,.324-1.08c.342-.054.306-.288.306-.54a.555.555,0,0,1,.018-.162c.234-.09.45-.558.45-.576v-.054a7.337,7.337,0,0,0,.63-.99v-.108c.018.018.036.018.036,0a.493.493,0,0,0,.342.126,1.055,1.055,0,0,1,.252-.324c.09-.108.216-.2.252-.324a.641.641,0,0,0,.324-.252.847.847,0,0,1,.27-.234v.09a2.18,2.18,0,0,1-.144.828.946.946,0,0,0-.054.36h.18l.054-.018.036-.036A.063.063,0,0,1-68-5.436c.018-.036.036-.036.054-.036a.194.194,0,0,1,.144.036.288.288,0,0,0,.18.036c0-.09.036-.108.09-.126.09-.036.144-.054.144-.054l.072-.216a.752.752,0,0,1,.072-.18c.216-.036.216-.126.216-.27a.742.742,0,0,0-.018-.216c0-.018-.018-.054-.018-.072l.036-.072a.97.97,0,0,0,.054-.18A.228.228,0,0,0-67-6.894v.036c0-.018-.018-.036-.018-.054L-67-6.93a.216.216,0,0,0,.09-.18.746.746,0,0,0-.468-.216h-.018l-.144-.18-.144-.2c-.072.054-.162,0-.252-.036a.81.81,0,0,0-.144-.036.256.256,0,0,0-.108.036c-.036.018-.018.054-.072.054a.262.262,0,0,0-.216-.09.756.756,0,0,0-.468.2.531.531,0,0,1-.36.126,6.18,6.18,0,0,1-.486.594,4.354,4.354,0,0,0-.36.468c-.054.036-.144.072-.144.108l-.144.234a2.76,2.76,0,0,0-.594,1.1.758.758,0,0,0-.126.234c0,.036-.018.036-.018.036a.116.116,0,0,0-.072.126v.036a.92.92,0,0,0-.18.306,1.363,1.363,0,0,1-.162.324l-.054.144v.054a1.909,1.909,0,0,0-.216.594l-.018-.018a.16.16,0,0,0-.09.144v.126c0,.018-.018.036-.036.054a.155.155,0,0,0-.054.144V-2.5a.662.662,0,0,1-.144.27c-.018.036-.036.018-.036.126a.18.18,0,0,1-.054.144.14.14,0,0,0-.054.126c0,.054-.018.054,0,.072a.268.268,0,0,0-.036.162.259.259,0,0,0,.036.054c-.018.072-.036.036-.072.072h.018a.25.25,0,0,0-.126.216.259.259,0,0,0,.036.162.018.018,0,0,0,.018.018h.126a.734.734,0,0,0-.234.432c0,.5.162.9.648.846a.964.964,0,0,0,.594-.288h-.018a.542.542,0,0,1,.288-.144A1.99,1.99,0,0,1-70.83-.45c.09-.054.162-.09.162-.216,0-.018.036-.036.072-.072.09-.09.234-.162.234-.594.054-.036.306-.216.45-.342.036.018.126-.108.216-.252a2.016,2.016,0,0,1,.792-.7,4.384,4.384,0,0,1,.972-1.206.851.851,0,0,0,.216-.126.2.2,0,0,0,.108.018h.036a.018.018,0,0,0,.018.018.424.424,0,0,0,.036.144v.036c.054.054.054.054.054.072,0,.072.09.234.162.54a.3.3,0,0,0,.09.216h-.018a.4.4,0,0,1,.054.18V-2.5a.555.555,0,0,0,.018.18c0,.054.018.09.018.126,0,.054.09.09.09.126C-67.1-2-67.1-2.016-67.158-2v.018a.361.361,0,0,0-.216.18h-.162s-.126.072-.2.126h-.036l-.018.018a.181.181,0,0,1-.054.018.6.6,0,0,0-.27.162,1.831,1.831,0,0,0-.774.612V-.882c-.018,0-.09-.018-.144-.018-.126.09-.18.09-.2.09l-.2.09c-.018.018-.072-.036-.162-.108.036.162-.216.414-.432.5-.054,0-.108,0-.126.018l-.072.09a.654.654,0,0,1-.144.162,3.62,3.62,0,0,0-.306.2,1.073,1.073,0,0,1-.432.2c0,.036-.018.036-.018.054a.967.967,0,0,0-.414.342.5.5,0,0,1-.162.126A.078.078,0,0,0-71.766.9c0,.018-.054.054-.108.072a.181.181,0,0,1-.018.054c-.072,0-.09.018-.09.036,0,.072-.09.18-.162.252-.018-.072-.072-.072-.144.144V1.44c-.054.072-.144.27-.324.324l-.108-.054c.036.234-.036.306-.09.36h.018a.363.363,0,0,0-.162.324.239.239,0,0,1-.054.126c-.054.018-.126.2-.144.234v.072l-.072.072a.163.163,0,0,1-.126.054,1.183,1.183,0,0,1-.144.432.3.3,0,0,0-.036.09v.108c-.054-.018-.054,0-.054,0l-.054.072a3.227,3.227,0,0,0-.2.63c0,.072-.018.018-.036.036a.135.135,0,0,0-.054.126c0,.18-.036.522-.054.756-.018.324-.036.612-.036.756,0,.108.018.09.036.126l.054.09c0,.018-.018.036-.018.054V6.192a.283.283,0,0,0-.018.216.275.275,0,0,0,.072.18c0,.036-.018.036-.018.036l.036.216.036.09a.128.128,0,0,0-.054.108.645.645,0,0,0,.072.2l.072.216v.036c0,.108.09.2.108.288a.878.878,0,0,1,.054.126.26.26,0,0,0,.036.126c0,.036.036.036.036.054.036-.018.126.054.144.108l-.018.018v.108a.268.268,0,0,0,.162.036c.036,0,.072,0,.072.018,0,.09.018.126.072.126.072.162.216.2.378.234a.5.5,0,0,1,.4.324c.054-.054.108-.108.126-.108a.865.865,0,0,1,.378.018.817.817,0,0,0,.414.018l.234-.09a1.668,1.668,0,0,1,.36-.162c0-.108.018-.162.072-.18.144-.036.108-.036.144-.072a.911.911,0,0,1,.36-.288,1,1,0,0,1,.288-.378,1.115,1.115,0,0,0,.432-.666.785.785,0,0,0,.162-.2c.036-.072,0-.144.18-.18.036-.234-.018-.378.18-.414-.018-.27.054-.342.126-.4.018-.018.036,0,.072-.108.108-.108.108-.36.216-.486l.036-.216.108-.252.072-.09a.7.7,0,0,0,.18-.4c.09-.2.072-.288.126-.378a.266.266,0,0,0,.126-.288c0-.072,0-.108.036-.144a.4.4,0,0,0,.108-.27.547.547,0,0,0,.324-.63c0-.018-.018-.036-.018-.054,0-.036-.018-.09-.018-.108s.036,0,.036,0c.054-.018.162-.09.126-.2a.256.256,0,0,0-.036-.108.817.817,0,0,1,.306-.63V1.476c0-.018.036-.054.054-.072a.228.228,0,0,0,.072-.162V1.1c0-.072.018-.108.018-.162V.756a3.247,3.247,0,0,0,.216-.45V.216c.09,0,.09-.09.072-.144,0-.054-.018-.054-.018-.09V-.09l.072-.162a.785.785,0,0,0,.108-.306,1.813,1.813,0,0,0,.054-.45,1.962,1.962,0,0,1,.018-.306h.018a.213.213,0,0,0,.072-.126v-.126l.144-.144h-.018a.259.259,0,0,0,.126-.108h-.018c.054-.054.234-.054.4-.09s.414-.072.5-.18v-.018a.38.38,0,0,0,.18-.072,1.932,1.932,0,0,1,.432-.216l.378-.378a1.757,1.757,0,0,0,.5-.126c-.072-.072.234-.18.27-.216l.432-.27c.234.126.4.018.576-.144.09-.072.162-.18.324-.162l.072-.072v.072c-.018,0-.144.288-.162.288.144-.036-.072.45-.054.576-.09.09-.072.306-.108.432-.036.162-.09.216-.036.378l-.018.036c.018,0-.018.09,0,.108a2.242,2.242,0,0,0-.108.756,3.034,3.034,0,0,0,.054.594c.18.036.234.288.342.288.036,0,.036-.018.072-.018.018,0,.036,0,.036.018v.072h.18c.378,0,.522-.306.828-.306V-.5c0-.018.09-.18.18-.18h.018v-.09c.018-.18.18-.252.2-.378,0-.054-.018-.09-.018-.144h.072c.126,0,.324-.558.342-.612.09-.216.432-.2.522-.738.216-.054.27-.5.63-.576a.063.063,0,0,0-.018-.036c0-.162.252-.252.252-.414l.018-.09A8.328,8.328,0,0,0-58.05-4.3ZM-67.122-1.3a.707.707,0,0,1,.036.108c0-.018-.036.054-.054.09v.018a1.826,1.826,0,0,0-.144.558.228.228,0,0,0,.018.108c0,.036.018.018.018.036s-.036.144-.2.774a2.046,2.046,0,0,0-.144.54.43.43,0,0,1-.036.162.912.912,0,0,1-.108.27c.036.072.036.072.036.09a.311.311,0,0,1-.018.18l-.162.378h.018a3.141,3.141,0,0,0-.2.594c0,.054,0,.09.018.108a.063.063,0,0,1-.018.036c-.09.4-.45.666-.45,1.1l-.072.2c-.072,0-.126.126-.252.414,0,.018-.018.288-.018.306-.018.018.072.216-.27.342-.072.486-.486.414-.378.864a4.525,4.525,0,0,1-.18.468,2.439,2.439,0,0,0-.81,1.062.511.511,0,0,0-.18.162l-.126.144a.256.256,0,0,0-.108.036c-.054,0-.09.036-.108.036a1.986,1.986,0,0,1-.684.4c-.09.018-.252.036-.252-.09-.072.054-.126.072-.162.108-.108.018-.144.018-.162,0a1.212,1.212,0,0,0-.342-.108c-.018-.252-.126-.306-.2-.342a.788.788,0,0,0-.2-.288.378.378,0,0,1-.2-.36.372.372,0,0,1,.054-.252,1.3,1.3,0,0,1-.2-.342.512.512,0,0,1,.072-.216l-.072-.126-.036-.126c-.018-.018,0-.072.036-.108-.18-.108-.09-.648-.09-.864a.279.279,0,0,0-.036-.144h-.018a.246.246,0,0,0,.072-.2.157.157,0,0,1,.09-.162l-.054-.126c0-.018.108-.036.108-.054a.481.481,0,0,1,.09-.4.323.323,0,0,0,.09-.234V3.834l.072-.054.162-.144a.351.351,0,0,1-.018-.126.154.154,0,0,0,.054-.108l-.018-.036a.493.493,0,0,0,.072-.126V3.15c0-.036-.054-.2.252-.27,0-.072.054-.126.054-.144-.018-.072.036-.144.108-.2v.018a3.312,3.312,0,0,0,.936-.954c.018-.054.036-.162.126-.18.108-.072.108-.144.09-.18h.054a.39.39,0,0,0,.18-.144V1.08a.116.116,0,0,0,.09.036.242.242,0,0,0,.162-.09c.018-.018.036-.036.054-.036.072,0,.09-.072.216-.18a2.148,2.148,0,0,1,.81-.594l-.018.036A.163.163,0,0,0-69.5.144l.036-.072h-.018l.288-.252h.018c.036,0,.09-.018.108-.018.09-.036.9-.4.972-.63a.228.228,0,0,0,.108.018V-.936c.072,0,.18.018.18.036a3.508,3.508,0,0,0,.468-.324ZM-45.378-7.74a1.233,1.233,0,0,0-.27,0v-.2c.324-.018-.09-.63.432-.666.126,0,.072.252.234.234.054,0,.036-.2.054-.288.072-.072.18-.144.162-.2v-.072c-.018-.09.18-.252.18-.27.126-.432-.162-.864.234-.936,0-.036-.018-.054-.018-.072-.018-.09.234-.306.234-.468a.066.066,0,0,1-.018-.054,1.261,1.261,0,0,0,.144-.558l-.054-.2a.961.961,0,0,0,.09-.45.7.7,0,0,0-.378-.54.2.2,0,0,1-.09.018c-.27.018-.324-.2-.558-.18a.977.977,0,0,1-.414.27c0,.378-.126.918-.09,1.134,0,.018.018.036.018.054a.6.6,0,0,1-.036.252c0,.054-.072.684-.234.756v.054c.018.216-.054.324-.036.522a.108.108,0,0,1,.018.072.177.177,0,0,0-.144.054V-9.4a7.222,7.222,0,0,0-.342,1.152v.054a.018.018,0,0,1-.018.018.063.063,0,0,0-.036-.018v.018A.108.108,0,0,1-46.3-8.1c-.018-.018-.144.144-.216.36h-.09a.256.256,0,0,0-.108-.036c-.108,0-.234.054-.342.054a.134.134,0,0,1-.108-.108c-.144.018-.414.018-.576.018-.18-.018-.36-.108-.522-.108-.036,0-.09-.018-.126,0-.108-.162-.522-.18-.846-.306a.335.335,0,0,0-.27-.162c-.378-.036-.36.324-.432.72a.542.542,0,0,0,.36.126.162.162,0,0,0,.09.018c.108.162.09.2.486.234.036.288.9.072.954.324a.639.639,0,0,1,.27-.018,7.519,7.519,0,0,1,.738.144.225.225,0,0,1,.234-.072h.108c-.09.288-.144.63-.288.738.072.054-.108.63-.108.7.018.4-.252.5-.216.918v.09c-.162.072-.108.522-.108.648-.126.036-.324.612-.324.648.018.018.018.036.036.036,0,.072-.09.09-.09.126l.072.144c-.216.144-.234,1.314-.558,1.71V-1.1a.526.526,0,0,1,.036.162c.018.126-.108.108-.108.162,0,.018.018.036.018.054a2.029,2.029,0,0,0-.054.324.4.4,0,0,0,.054.18c-.09.018-.108.072-.108.144a.639.639,0,0,1,.036.18c.018.126-.054.252-.054.324,0,.036,0,.072.036.09a.408.408,0,0,0-.126.2.528.528,0,0,1,.072.144,1.345,1.345,0,0,1-.036.2c0,.036.126.072.126.09.054.036,0,.18.072.18.162-.036.306-.09.486-.126a1.034,1.034,0,0,1,.2-.558.633.633,0,0,1-.09-.324,1.444,1.444,0,0,1,0-.4l.144-.288c0-.036-.018-.072-.018-.108-.018-.162.054-.2.054-.252a.268.268,0,0,1-.018-.108c0-.054.054,0,.054-.072a.066.066,0,0,1-.018-.054,5.528,5.528,0,0,1,.126-.774.063.063,0,0,0,.036.018c.144-.018-.018-.558.216-.576v-.072c-.036-.414.234-.684.216-.918a.242.242,0,0,0-.036-.144c.18-.018.162-.846.342-1.044,0-.126-.018-.234-.018-.342a1.589,1.589,0,0,0,.36-.81V-5.67c.018.018.126-.45.162-.45a4.382,4.382,0,0,0,.09-.558c-.018-.126.072-.18.09-.252.126.018.252.036.252.09,0-.018.306.018.306,0,.018.036.09-.036.126-.036a2.448,2.448,0,0,0,.36-.108q0,.027.054.054c.036,0-.018-.018.054-.054a.64.64,0,0,1,.18.036c.036,0,.054-.018.09-.018a2.909,2.909,0,0,0,1.1-.288c.144-.126.774.036.918-.126.306.072.63-.144.864-.144a1.015,1.015,0,0,0,.216.072c.072,0,.126-.09.2-.09s.072.036.09.036c.018.018.036,0,.072-.018.306-.144.576-.144.594-.342,0-.108-.09-.144-.072-.252v-.036h-.036c-.162-.018-.342-.126-.432-.126-.072,0-.072.054-.126.036-.018,0-.054-.018-.072-.018-.09.018-.162.054-.2.054-.054,0-.144-.018-.18-.018a.056.056,0,0,0-.036-.018A11.476,11.476,0,0,1-42.8-8.01a5.108,5.108,0,0,1-1.3.054c-.108.054-.18.2-.342.18-.09,0-.072-.108-.18-.126-.054,0-.09.108-.18.108-.036-.018-.2.036-.18,0C-44.982-7.956-45.378-7.614-45.378-7.74Zm12.8,4.3c.036-.018.126.072.162.036.108-.054,0-.18.09-.234.036-.018.108-.108.2-.162a.2.2,0,0,1,.09.018c.144-.054.054-.216.162-.288.072-.036.054-.072.054-.144.018-.288-.108-.306-.342-.324-.054-.018-.108.09-.144.09,0-.09-.288.324-.468.306H-32.8a.572.572,0,0,1-.36.4c-.144.27-.2.2-.27.27-.054.072-.18.126-.2.162v.054s0-.036-.162.216h-.036a1.808,1.808,0,0,0-.576.666v.036a.018.018,0,0,0-.018-.018c-.09,0-.18.018-.2.072v.072c-.018.054-.162.126-.216.162-.108.4-.882.54-.9.828v.036a1.583,1.583,0,0,1-.18.108c-.036,0-.054-.018-.072-.018v.036A.136.136,0,0,1-36-.99s-.666.486-.774.522c-.036-.072-.09-.108-.09-.216.018-.072.072-.036.072-.126,0-.036-.036-.09-.036-.144.072-.036.108-.09.18-.09a1.48,1.48,0,0,1-.144-.522.36.36,0,0,1,.144-.306.668.668,0,0,1-.036-.162c0-.144.09-.27.09-.45a.317.317,0,0,0-.018-.108c.108,0,.216,0,.234-.09a.184.184,0,0,1-.09-.144c0-.054.054-.162.054-.252a.186.186,0,0,0-.072-.144c.09-.054.18-.09.18-.234v-.2c0-.09,0-.144-.036-.18,0-.072.072-.072.09-.126-.054-.018-.054-.072-.054-.162v-.162c0-.054,0-.108-.036-.126a2.247,2.247,0,0,0,.144-.216c-.09-.036-.108-.126-.108-.234v-.072c0-.036,0-.054-.018-.054s-.054.09-.108.09c.036,0-.234-.108-.252-.216.054,0,.072-.072.072-.144v-.162a.566.566,0,0,0-.36-.234c-.018,0-.018-.054-.054-.054-.072,0-.09.054-.126.054-.054,0-.09-.054-.162-.054-.09,0-.126.162-.234.162a.162.162,0,0,1-.09-.018v.072c0,.216-.7.684-.792.774a1.289,1.289,0,0,1-.342.4c-.144.072-.936.756-.972.99a1.663,1.663,0,0,1-.216.378c-.09,0-.414.162-.414.378v.036a.356.356,0,0,0-.252.18v.036c0,.072-.126.054-.126.108v.036c0,.072-.2.144-.2.2,0,.162-.45.45-.468.612-.09.036-.036.18-.126.18-.2,0-.144-.324-.2-.486.036-.108.2-.108.2-.27,0-.342.072-.414.072-.828a.794.794,0,0,0,.18-.45v-.144c0-.126.036-.09.036-.2v-.09a3.541,3.541,0,0,0,.306-1.422c.072-.018.2-.306.2-.522v-.054c.108-.018.216-.5.216-.576,0-.09-.018-.162-.018-.27.234-.216.144-.486.324-.666-.036,0-.036-.054-.036-.126l.018.018c.09,0,.018-.144.09-.2a.317.317,0,0,0,.108.018c.288,0,.342-.144.342-.4V-7.9c.126,0,.072-.18.18-.18a.108.108,0,0,1-.018-.072c0-.2.126-.216.126-.342,0-.162.072-.108.126-.2a.917.917,0,0,0,.162-.63V-9.36c.018-.108.2-.2.2-.306,0-.054-.018-.126-.018-.144,0-.144.09-.2.09-.306-.054-.09-.18-.108-.27-.162-.072-.306-.378-.324-.612-.45a2.31,2.31,0,0,1-.414.252.4.4,0,0,1,.018.144,2.211,2.211,0,0,1-.126.648c0,.036.018.072.018.108,0,.054-.036.072-.036.108a.181.181,0,0,1,.018.054c0,.018-.054.054-.054.054,0,.018.054.036.054.036,0,.072-.054.054-.054.144v.09a3.125,3.125,0,0,1-.126.522c-.036.018-.108.018-.108.072,0,.036.018.072.018.108,0,.054-.036.036-.054.072v.09c0,.09-.108.054-.108.162,0,.036.018.072.018.108,0,.018-.054.2-.072.27-.018,0-.072,0-.072.018s.054.018.072.018c-.018.072-.108.252-.108.288.018,0,.054-.018.054.018s-.072.054-.144.054a.239.239,0,0,0,.054.18c-.144.036-.108.252-.216.306v.09c0,.162-.072.162-.072.216a1.015,1.015,0,0,0,.018.126,1.52,1.52,0,0,1-.09.306c0,.036-.09.036-.09.09V-5.9a4.937,4.937,0,0,0-.216.99c0,.036.018.072.018.108a.975.975,0,0,0-.252.756.162.162,0,0,0,.018.09c-.234.18-.216.756-.306,1.008.018.036-.054.09-.054.09-.036.162,0,.342-.036.486,0,.18-.162.216-.162.432,0,.09.018.144.018.2-.054,0-.18.378-.18.4v.126a4.853,4.853,0,0,1-.072.5c0,.018.036.018.036.072s-.036.054-.036.144v.2c0,.144-.09.126-.09.27V.18a.138.138,0,0,1,.036.09c0-.018.2.324.378.324.306,0,.2-.342.522-.342.108,0,.216.072.4.072.072,0,.27-.27.27-.432V-.216c.09-.09.306-.234.306-.342,0-.072-.054-.09-.054-.162s.126,0,.126-.126v-.342c.216-.072.288-.288.486-.4v-.054c0-.054.054-.072.054-.144,0-.018-.018-.036-.018-.072.234-.162.36-.072.36-.522.036,0,.054.018.072.018.18,0,.234-.27.432-.468.036-.054.18.036.18-.09v-.072a.066.066,0,0,1,.018-.054.108.108,0,0,0,.072.018c.108,0,.072-.144.2-.144h.054c0-.054.018-.072.018-.108a1.052,1.052,0,0,1-.018-.18c0,.018.036.018.054.018.09,0,.342-.324.378-.486a.089.089,0,0,0,.054.018c.054,0,.072-.054.162-.054,0,0,.324-.342.324-.36a.589.589,0,0,1,.4-.18.35.35,0,0,1,.054.234v.2a.437.437,0,0,0,.036.18c0,.09-.108.216-.108.306,0,.108.018.2.018.27v.09c-.09.126-.144.54-.18.54,0,.054.054.054.054.144,0,.036-.018.054-.018.072a2.195,2.195,0,0,1-.108.594c0,.054.018.108.018.18,0,.162-.144.324-.144.468,0,.036.018.054.018.09a1.559,1.559,0,0,1-.036.18c0,.018.036.036.036.036,0,.054-.036.054-.036.108,0,.144.108.252.144.4a.572.572,0,0,0-.036.252.868.868,0,0,0,.45.81c0-.036.036-.036.072-.036.018,0,.036.018.054.018.126,0,.2-.216.432-.2h.072c.072-.036.09-.126.2-.108.09.036.144-.072.252-.072.09-.306.234.054.306-.45a1.523,1.523,0,0,0,.81-.756h.018c.144,0,.18-.2.306-.216.036-.2.81-.612.864-1.008.126,0,.2-.126.234-.162a.377.377,0,0,0,.108-.072c.018-.216.306-.09.36-.414V-2.88C-32.832-2.88-32.94-3.438-32.58-3.438Zm10.314-1.926v-.054a.19.19,0,0,1,.09.036c.036,0,.036-.108.072-.09.108-.162.252-.216.18-.234-.072-.054.09-.18.144-.252.09-.108.288-.234.306-.288.036-.054.018-.108.054-.2.306-.072-.09-.018.18-.324.036-.342-.09-.4-.27-.378a.159.159,0,0,0-.144-.036v.054a.056.056,0,0,0-.036.018c-.072-.072-.144.234-.216.216l-.018.018c.018.108-.072-.018-.054.072a2.161,2.161,0,0,1-.216.378l-.162.252c-.126.162-.018.306-.288.414a1.175,1.175,0,0,1-.126.144c-.018.036-.612.738-.612.756a.108.108,0,0,0,.018.072.063.063,0,0,1-.018.036c-.018,0-.036.018-.054.018a.312.312,0,0,0-.2.27c-.036.018-.486.4-.45.468,0,.018-.054.036-.054.054-.018.072-.108.126-.126.144a1.74,1.74,0,0,1-.126.216h-.054l.018.018a.2.2,0,0,1-.018.09V-3.51c0-.018-.018-.018-.018,0-.018.036,0,.054-.036.054-.072-.036-.108.144-.162.18H-24.7c-.054,0-.072.036-.144.054-.072.216-.324.342-.486.486-.018,0-.036.126-.108.108a.063.063,0,0,1-.036.018h-.018c-.2.18-.216.27-.4.342a.063.063,0,0,0-.018.036c-.036.27-.234.144-.45.5,0-.036-.468.4-.882.612a1.092,1.092,0,0,1-.5.234C-27.792-.9-27.882-.9-27.9-.954a.536.536,0,0,1-.09-.27c-.036-.018-.018-.252-.018-.306-.018-.162.018-.324,0-.4a.384.384,0,0,1,0-.144c-.018-.108-.072-.18-.054-.27,0-.072.072-.108.09-.216A1.418,1.418,0,0,0-27.9-2.97c.072-.072.108-.234.234-.306a.454.454,0,0,1,.162-.468c-.144-.018-.018-.108,0-.162a1.944,1.944,0,0,1,0-.324c0-.018.072-.054.09-.072.054-.072.036-.126.054-.2.18.054.2-.054.306-.108-.126-.2.126-.324.144-.558a.323.323,0,0,0,.162-.072c.036-.234.2-.414.234-.684a.386.386,0,0,1-.18-.216c-.018-.018-.072.018-.108,0a.846.846,0,0,1-.18-.2c-.054-.036-.162-.018-.252-.036-.072-.018-.072-.054-.144-.054-.126.018-.216.108-.378.09a1.467,1.467,0,0,0-.072.252v.054c0,.09-.018.036-.054.054-.054.108-.144.234-.2.324-.018.018,0,.072,0,.072,0,.018-.126.054-.126.054-.072.072-.09.072-.27.072-.036-.018-.036-.126-.072-.144-.018-.018-.09,0-.09,0a.229.229,0,0,1-.144-.144c-.018-.108-.216.054-.2-.054-.09-.054-.36-.054-.4-.108-.054.072-.414-.09-.468-.072a2.779,2.779,0,0,0-1.278,0,.223.223,0,0,1-.234.162c-.036.072-.036.2-.072.234-.2,0-.144.18-.306.162.018.162-.072.162-.036.306a.646.646,0,0,0-.252.18c-.018.018-.018.09-.036.126s-.144.018-.162.054c-.036.072-.018.144-.054.2l-.09.054a.741.741,0,0,0-.054.144c0,.054-.09.09-.108.18-.018.054-.108.09-.162.144-.018.18-.126.288-.108.54-.126,0-.162.036-.162.162-.09.09.018.144-.018.306-.144.09-.036.2-.036.36-.108,0-.054.144-.108.234a2.5,2.5,0,0,0-.108.342c-.018.018,0,.072,0,.072,0,.018-.054.072-.054.054-.018.072.054.18.054.252a1.9,1.9,0,0,0-.108.342.26.26,0,0,0,.036.126,1.626,1.626,0,0,0,.108.5c.144.216.18.5.342.648.108.018.108-.054.2-.054a.813.813,0,0,0,.45.252c0-.144.144-.054.18-.072a1.906,1.906,0,0,1,.63-.27c-.018-.108.126-.072.162-.108.018-.054,0-.162.09-.162.162-.036.2-.18.252-.234V-1.1a4.557,4.557,0,0,1,.414-.216c.018-.144.18-.162.126-.36.09,0,.126-.072.216-.144a.718.718,0,0,0,.324-.5c.306-.036.2-.468.522-.5-.054-.18.162-.252.162-.306.072-.054.018-.126.09-.144.072-.09.2,0,.2-.108,0-.072.072-.072.162-.072-.018.072-.144.324-.144.36-.018.018-.054.072-.054.054,0,.054.072.054.054.18-.018.09-.108.2-.108.234,0,.054-.036.036-.036.054-.036.09-.036.252-.072.4a1.231,1.231,0,0,0-.108.63c.018.054.09.09.108.162h-.054c-.09.108.036.342.036.342.018.09,0,.162.054.18.018.144-.108.126-.054.252.126.18.342.27.378.54.054.018.234.09.27.2l.252.072a2.368,2.368,0,0,0,.54-.144c.054.018.036,0,.054,0,.036.018.09.036.054,0,.018-.036.054-.018.072-.036.036-.072.18-.27.288-.252,0,0,.036,0,.036.018a1.015,1.015,0,0,1,.072-.216.063.063,0,0,0,.018-.036c.108-.018.666-.324.684-.432,0-.018.054-.054.054-.09v-.036l.018.036c.108.036,0-.126.108-.09A.181.181,0,0,1-26.1-1.1c.018-.126.144-.162.18-.234.018.054.4-.378.54-.54.108-.054.126-.216.288-.234V-2.16c0-.054.09-.018.09-.108.018.036.036.018.036.018.018,0,.036-.018.018-.072.054-.126.18-.108.252-.162.036-.054.036-.216.09-.2,0,0,.072.036.054,0l.036-.036c0-.072.18-.216.306-.234V-2.97c.018-.144.2-.18.2-.234a.066.066,0,0,1,.018-.054,2.85,2.85,0,0,0,.36-.414v-.054c.018,0,.054-.072.072-.054-.018-.054.108-.072.144-.162-.018-.018-.018-.054,0-.054.252-.09.2-.414.414-.486-.018-.306.342-.162.342-.306,0-.072-.036-.018-.018-.144,0-.09.054-.09.108-.072C-22.554-5.022-22.3-5.346-22.266-5.364Zm-6.84.54c.108.036.162.144.27.144a.59.59,0,0,1-.27.4,1.045,1.045,0,0,0-.18.432c-.108-.036-.108.054-.162.072-.018.018-.108.018-.144.054a.686.686,0,0,1-.054.18c-.018.054-.216.144-.288.234v.18c-.018.036-.144.09-.2.144-.018.036-.054.054-.054.072-.036.072-.018.162-.054.216-.018.018-.108.036-.108.054,0,.036.018.108,0,.126-.126.144-.324.216-.45.378-.072.054-.072.162-.09.2,0,.018-.018-.018-.036.054,0,0,.018.036,0,.036-.036.072-.216.126-.108.234a1.056,1.056,0,0,0-.36.108c-.054-.018,0,.072-.054.126-.054.036-.216.054-.162.27-.2.036-.27.234-.432.324-.252,0-.252-.288-.324-.5,0-.018-.018,0-.036-.054a.1.1,0,0,0,.018-.108c.036,0-.018-.126.072-.126,0-.09-.054-.2.054-.234a3.477,3.477,0,0,1,.162-.9c.108-.108.018-.378.2-.486.036-.126.09-.09.108-.162a1.125,1.125,0,0,1,.234-.36c.054-.072.054-.234.2-.288.036-.072.018-.18.108-.18-.018-.2.108-.18.18-.252.018-.27.288-.324.4-.558a.482.482,0,0,0,.306-.072c.09-.018.09-.126.234-.108.126.018.306.018.486.054.018,0,0,.054.036.054h.054A.256.256,0,0,1-29.52-5c.072.018.162-.018.252,0,0,.018-.018.162.018.18C-29.214-4.824-29.124-4.86-29.106-4.824Zm9.324-4.482c.126-.342.27-.774.576-.81v-.072c0-.072.2-.216.2-.36v-.018c0-.054.162-.216.162-.45a.913.913,0,0,0-.036-.162.709.709,0,0,0,.108-.36.583.583,0,0,0-.288-.45c0,.018-.036.018-.054.018-.216,0-.234-.18-.432-.18a1.582,1.582,0,0,1-.5.216c-.036.306-.162.72-.162.9A.063.063,0,0,0-20.2-11c-.018.108-.036.162-.036.2,0-.018-.108.54-.234.576v.054c0,.162-.09.234-.09.4v.054a.163.163,0,0,0-.126.054v.054a6.515,6.515,0,0,0-.342.882v.036c0,.018,0,.036-.018.036l-.018-.018V-8.6a.661.661,0,0,0-.252.558c0,.018.018.036.018.072-.2.144-.2.63-.45.81-.342.054-.54.054-.81.09a.256.256,0,0,0-.108-.036c-.108,0-.234.072-.342.072-.054,0-.09-.018-.108-.09a5.693,5.693,0,0,1-.576.054c-.18,0-.378-.072-.54-.072a.306.306,0,0,0-.126.018c-.108-.162-.522-.144-.864-.252a.367.367,0,0,0-.27-.144c-.378,0-.342.36-.378.756a.537.537,0,0,0,.36.108h.09c.126.162.108.2.5.2.054.288.9.018.972.252a1.089,1.089,0,0,1,.27-.036,7.06,7.06,0,0,1,.756.09.225.225,0,0,1,.216-.09h.18c.072,0,.2-.054.342-.054.09,0,.126.036.126.144,0,.414-.306.5-.306.936v.09c-.2.054-.2.522-.2.666-.144.018-.36.594-.36.63,0,.018.018.036.036.072,0,.072-.108.072-.108.108a3.835,3.835,0,0,0-.054.45c0,.054-.234.4-.2.594.054.144-.09.4-.09.45.018.072-.036.162-.036.234,0,.018,0,.018-.018.036-.126.432-.018.468-.018.792,0,.036-.018.036-.036.072-.036.18.054.252,0,.4a.066.066,0,0,0-.018.054c.144.162.072.72.306.792h.036c-.108.378.36.522.594.594a3.5,3.5,0,0,0,.36.09A1.6,1.6,0,0,0-21.6.774h.054c.108-.018.126-.018.162-.054.018,0,.036.018.054.018A.018.018,0,0,0-21.312.72V.684h.072V.648h.072c.018,0-.018-.054.018-.054h.054A2.4,2.4,0,0,0-20.664.18,1.311,1.311,0,0,0-20.016-.4c.108-.162-.018-.216-.162-.288a.872.872,0,0,1-.432.2c-.18.072-.288.45-.522.414-.018,0-.234.126-.252.108-.288,0-.594.216-.918-.018-.2-.054-.288-.27-.324-.684,0-.09.072-.18.054-.324-.018-.306-.108-.306-.072-.5.054-.126.018-.162.072-.306l.054-.306c0-.054.036-.126.036-.162a.373.373,0,0,0,.036-.108.284.284,0,0,0,0-.126c.018-.18.09-.27.108-.432,0-.432.288-.684.288-.936a.447.447,0,0,0-.018-.144c.18,0,.216-.864.432-1.062v-.36c.144-.036.45-.648.45-.81V-6.3c.018.018.036.018.072.018.108,0,.2-.144.324-.18v.018c0,.018.018.036.054.036s-.018-.018.054-.054c.054,0,.126.018.18.018.036,0,.054-.018.09-.018a2.716,2.716,0,0,0,1.062-.36c.144-.144.774-.018.918-.2.306.054.612-.2.846-.2.072,0,.144.054.216.054.072-.018.126-.108.2-.108s.072.036.09.036.036-.018.072-.036c.288-.162.558-.18.558-.378,0-.108-.09-.144-.09-.252v-.036h-.036a4.36,4.36,0,0,1-.432-.09c-.072,0-.072.054-.126.054-.018,0-.054-.018-.072-.018-.09.018-.162.072-.2.072-.054,0-.144-.018-.18-.018h-.036a11.3,11.3,0,0,1-1.17.306,4.777,4.777,0,0,1-1.278.162c-.108.054-.18.2-.342.2-.09,0-.072-.108-.18-.108-.054,0-.09.108-.18.108a.048.048,0,0,1-.054-.054c0-.162.144-.2.144-.324v-.09c.036-.072.108-.144.108-.216,0-.018-.018-.036-.018-.054.144,0,.2-.234.2-.4v-.072C-20.142-8.478-20.2-9.306-19.782-9.306ZM-9.108-11.52c.036,0,.072.036.108.036h.036a.066.066,0,0,1-.018-.054c0-.2.2-.234.2-.54,0-.072-.018-.144-.018-.216-.018,0-.054.018-.054-.018v-.072s-.36-.45-.522-.36h-.036c-.162-.036-.216-.162-.414-.162-.108.09-.252.162-.36.252,0,.09.018.162.018.234a3.813,3.813,0,0,1-.072.63v.108a4.708,4.708,0,0,0-.252.81v.144c0,.18-.108.09-.108.2,0,.036.018.054.018.072-.036.108-.054.27-.108.306a.063.063,0,0,0-.018.036c0,.018.018.054.018.072-.162.432-.27,1.026-.324,1.026a.063.063,0,0,1-.036-.018A.063.063,0,0,0-11.07-9c0,.018.018.054.018.072a1.019,1.019,0,0,0-.054.324v.09c-.036.09-.126.144-.144.2-.018.036,0,.108-.054.108V-8.1a2.1,2.1,0,0,1-.2.684,3.344,3.344,0,0,0-.27.846c0,.054.018.108.018.162a3.167,3.167,0,0,0-.27.738c-.054,0-.072.018-.072.054s.054.108.054.144a1.378,1.378,0,0,1-.414.126c-.036,0-.09-.018-.126-.018a1.92,1.92,0,0,1-.81.216.363.363,0,0,1-.2-.054,1.686,1.686,0,0,1-.576.2c-.27.09-.648.054-.648.162h-.108c-.234,0-.612.144-.81.144-.306.306-.882,0-1.224.81.144.09.126.324.2.468.108.072.306.054.306.252v.054a.78.78,0,0,0,.09-.018c.144,0,.306.27.486.27.162,0,.342,0,.342-.414v-.09c.144-.108.36-.252.36-.252,0-.018-.018-.036-.018-.054,0,.036.378-.36.522-.36.378,0,.558-.324,1.008-.324a1.362,1.362,0,0,1,.27.018c.144-.126.522-.108.72-.108.09,0,.144.018.144.108a.9.9,0,0,1-.162.414v.036c0,.18-.036.09-.2.72-.072.234-.162.324-.162.486,0,.036.018.09.018.126a.635.635,0,0,0-.216.306c-.018-.054-.108.414-.252.756h.018v.054c0,.054-.018.108-.054.108h-.018c0,.144.054.18.054.288v.072a.709.709,0,0,0-.2.522.287.287,0,0,0,.054.144c-.054.054-.162.018-.162.108s.054.126.054.2a1.025,1.025,0,0,0-.234.7c0,.216.054.432.234.468.108,0,.054-.162.162-.162h.036A.872.872,0,0,0-13.5.684V.558c.072,0,.162,0,.162-.072V.45c0-.144.054-.234.054-.378V0c0-.126.144-.072.144-.162V-.216A.094.094,0,0,0-13.1-.288,1.147,1.147,0,0,1-13.14-.45c0-.072.162-.18.162-.252V-.828c0-.09.036-.072.036-.09a1.147,1.147,0,0,0,.108-.288v-.072a1.255,1.255,0,0,1,.108-.306c0-.018-.018-.054-.018-.072,0-.072.072-.09.108-.126.108-.126.018-.342.108-.414V-2.3c.018-.054.09-.072.108-.09a1.3,1.3,0,0,1,.342-.882c0-.216-.036-.414.162-.558a.228.228,0,0,1-.018-.108c0-.216.162-.27.162-.468V-4.5h.108c.216,0,.072-.144.36-.144a.456.456,0,0,1,.216.072c.018,0,.036-.036.036-.054v-.018c.108,0,.2.018.306.018.162,0,.252-.072.414-.072.09,0,.108.054.2.054.072,0,.018-.054.072-.054.036,0,.072.054.09.054h.342a.658.658,0,0,1,.27.054h.09a2.16,2.16,0,0,1,.36.054,3.2,3.2,0,0,0,.36-.054c0,.054.09.054.126.054h.162a1.644,1.644,0,0,1,.738.252h.072a.585.585,0,0,1,.486.2.066.066,0,0,0-.018.054c0,.126.072.144.072.288a4.565,4.565,0,0,1-.108.684c-.036.27,0,.558-.054.81-.018.18-.108.27-.108.468,0,.126.018.27.018.4a6.818,6.818,0,0,0-.144.774A1.31,1.31,0,0,0-6.714.5.458.458,0,0,1-6.588.468,1.742,1.742,0,0,0-6.372.5c.18,0,.09-.2.216-.252.18-.018.288-.162.324-.162h.072A1.911,1.911,0,0,0-5.4-.216c.036-.162.378-.162.576-.612h.036c.18,0,.36-.342.468-.5a5.19,5.19,0,0,0,.756-.9V-2.3l.162-.2a1.271,1.271,0,0,0,.36-.756v-.054a1.053,1.053,0,0,0,.18-.486c0-.018-.018-.054-.036-.126a.775.775,0,0,0,.162-.414c0-.144-.162-.234-.162-.342a.239.239,0,0,1,.054-.126c-.216-.09-.342-.4-.5-.4-.108,0-.126-.162-.18-.162H-3.6c-.45-.252-.468-.4-.774-.4a3.819,3.819,0,0,0-.5-.27c-.09,0-.126.054-.2.054a1.277,1.277,0,0,0-.828-.2c-.108,0-.252.036-.378.036,0,0-.036-.036-.054-.036h-.27c-.162,0-.252.018-.306.108a.287.287,0,0,0-.144-.054c-.09,0-.144.09-.27.09a2.249,2.249,0,0,0-.4.18c-.018,0-.054-.018-.072-.018-.18.072-.144.162-.324.162-.036,0-.09-.018-.126-.018,0,.018.018.054.018.072a.557.557,0,0,1-.4.306c-.036,0-.09-.018-.126-.018-.072.018-.072.054-.162.054-.072,0-.09-.09-.144-.108-.018,0-.054.018-.072.018-.162,0-.342-.054-.54-.054-.054,0-.126.036-.18.036-.09,0-.162-.054-.27-.054-.09,0-.162.018-.216.018-.018,0-.054-.054-.054-.054-.126,0-.162.054-.288.054-.18,0-.234-.054-.234-.054-.018,0-.036.054-.036.054-.054,0-.108.018-.144.018-.108,0-.2-.036-.216-.126.018-.216.108-.342.108-.558v-.108c.162-.018.126-.306.216-.306h.09c0-.018-.018-.036-.018-.054,0-.126.18-.864.18-.864,0-.018-.018-.036-.018-.054a1.581,1.581,0,0,0,.36-.828.194.194,0,0,0-.054-.126c.054-.054.162-.018.162-.126v-.036c0-.144.036-.234.036-.378v-.126c.216-.234-.036-.5.468-.666a.162.162,0,0,1-.018-.09c0-.162.144-.108.144-.36v-.252c0-.18.054-.27.252-.27h.072V-10.8c0-.09.216-.252.216-.414,0-.072-.036-.162-.036-.216A.137.137,0,0,1-9.108-11.52Zm3.15,10.6s-.054.108-.108.108a.31.31,0,0,1-.162-.252c0-.144.018-.324.018-.45,0-.108-.072-.054-.072-.108,0-.018.054-.054.054-.108s-.018-.126-.018-.2a.157.157,0,0,1,.09-.162,1.621,1.621,0,0,1-.054-.288c0-.252.144-.18.162-.324,0-.18.054-.432.054-.666A.57.57,0,0,0-6.1-3.78c.162-.108.054-.522.2-.666A1.289,1.289,0,0,0-6.516-5c-.036,0-.126.018-.162.018-.072,0,0-.072-.072-.072h-.09c-.054,0-.072-.018-.072-.09,0-.126.468-.216.45-.216.036.018.054.036.09.036a.74.74,0,0,1,.27-.09c.2,0,.468.09.684.09a.494.494,0,0,0,.234-.036,1.072,1.072,0,0,1,.4.252.256.256,0,0,1,.108-.036c.09,0,.126.072.2.072a.256.256,0,0,0,.108-.036c.162.342.738.432.738,1.134a1.512,1.512,0,0,1-.234.558c0,.018-.036.036-.036.054l-.414.81c-.054.072-.306.216-.306.27v.072A.547.547,0,0,1-4.86-2h-.018a.1.1,0,0,0-.036.09.78.78,0,0,0,.018.09,2.348,2.348,0,0,0-.5.486h-.036C-5.526-1.332-5.526-1.3-5.958-.918ZM3.87-2.07v.2c0,.09-.09.2-.09.288,0,.108.072.18.072.288,0,.09-.054.126-.054.216a2.474,2.474,0,0,0,.144.468c0,.018-.018.018-.018.036l.018.018c0-.054.054.234.09.27,0,.018.072.018.072.054v.072c0,.036.09.036.09.054v.09H4.23c-.018.018.2.054.2.144V.2s.324.2.306.2c.054,0,.09-.018.126-.018.108,0,.018.108.18.108A1,1,0,0,0,5.6.342h.054c.162-.144.378-.2.63-.414a.135.135,0,0,0,.09.018,1.116,1.116,0,0,0,.252-.072c0-.018.018-.036.054-.072A3.434,3.434,0,0,1,7.4-.72c.036-.036.27-.108.306-.216,0-.162.252-.2.306-.288V-1.26c0-.036.18-.018.18-.108V-1.4c.162-.18.252-.18.414-.378.018.018.018.018.036.018-.054,0,.18-.126.252-.144.054-.144.162-.4.306-.4a2.838,2.838,0,0,0,.5-.432,4.5,4.5,0,0,0,.378-.54c-.036-.018.108-.018.18-.09.144-.09.072-.18.108-.216.018-.018.036-.054.054-.054.036-.036.036.036.108-.018.072-.036.072-.306.144-.36,0,.018-.162-.036-.162-.036,0,.09-.162-.072-.162.036v.054a2.663,2.663,0,0,0-.684.648.136.136,0,0,0,.018.072H9.648c.018,0-.324.2-.36.252a1.494,1.494,0,0,1-.27.306c-.108,0-.432.378-.756.594,0-.054-.018-.054-.072-.054-.108,0-.018.216-.108.216H8.01c-.2.306-.2.162-.4.27-.018.036-.036.09-.072.09s-.054-.018-.072-.018a4.422,4.422,0,0,1-.846.648c-.414.252-.18.2-.576.324.036,0-.36.162-.4.2-.144.09-.4.054-.612.09a1.086,1.086,0,0,1-.2-.468A.41.41,0,0,1,4.9-.99a.121.121,0,0,1-.072-.126,1.655,1.655,0,0,1,.126-.468C4.9-1.62,4.9-1.692,4.9-1.746v-.162c0-.09-.036-.27-.036-.324s.09-.072.09-.108c.018-.036.036-.054.036-.072a.558.558,0,0,0-.036-.126c0-.036.072-.018.09-.072A1.078,1.078,0,0,0,5-2.826c.108-.054.162-.108.162-.2,0-.036-.036-.036-.036-.072,0-.018.054-.036.054-.072s-.126-.108-.126-.216c.036-.162.27.018.288-.306a.187.187,0,0,0-.072-.2c.018-.072.09-.036.09-.126.018-.108-.2-.072-.2-.2V-4.23c0-.108-.144-.108-.144-.18a.066.066,0,0,1,.018-.054,1.786,1.786,0,0,0-.27-.054c-.36-.054-.576.018-.594.414v.09c-.2.162.018.36-.378.522,0,.018.018.036.018.054,0,.09-.252.27-.27.36,0,.018.018.036.018.054-.018.108-.27.2-.27.288-.036.144-.378.558-.576.558v.054c-.018.234-.252.342-.4.468a3.006,3.006,0,0,0-.576.486,1.088,1.088,0,0,1-.414.216c-.054.054-.162.072-.216.108-.18.108-.234.2-.36.144v.054c-.018.108-.18.09-.27.09C.2-.558.252-.774.306-.9c0-.072.054-.2.054-.288a3.064,3.064,0,0,0,0-.576.171.171,0,0,0,.108-.18A.171.171,0,0,0,.432-2.07a.693.693,0,0,0,.162-.2v-.09c0-.09.108-.18.108-.288,0-.018.018-.216.018-.234.144-.234.126-.4.27-.5a1.334,1.334,0,0,1,.342-.756,3.673,3.673,0,0,0,.414-.486C1.854-4.968,2-5,2-5.13c.036-.54-.306-.648-.468-.936a.136.136,0,0,0-.072-.018c-.18,0-.234-.072-.36-.108-.252.108.054.072-.252.108-.036.162-.018.27-.108.306-.018,0,.054.108.018.108.018,0-.162.324-.144.324a.079.079,0,0,0-.018.054c0,.09-.054.108-.054.2a.435.435,0,0,1-.162.27c-.018.054.036.126.036.18,0,.072-.09.09-.108.144,0,.036-.162.432-.162.486,0,.072-.09,0-.108.162,0,.018.018.054.018.072,0,.072-.018.09-.072.09a2.362,2.362,0,0,0-.054.27c0,.144-.18.2-.18.27a.636.636,0,0,0,.018.108c-.018.054-.108.018-.126.09a.018.018,0,0,0,.018.018,3.967,3.967,0,0,1-.126.63c.18.144-.054.522-.162.558,0,.234-.108.252-.108.432-.036.27-.144.252-.144.594C-.72-.63-1.116.054-.9.072c-.018.27.288.45.522.576A3.371,3.371,0,0,0,.234.5c.072.018.108.054.234.09A.768.768,0,0,0,.792.486C.792.468.846.45.846.432s0-.018.036-.018A.139.139,0,0,0,.936.432C.936.4.882.36.882.306c0,.054.684-.2.684-.306A1.12,1.12,0,0,1,1.71-.216c-.036.054.27-.234.414-.324-.036-.018.108-.144.108-.144.018-.252.216-.234.378-.414a.241.241,0,0,1-.018-.09.512.512,0,0,1,.342-.288h.054c.018,0,.018,0,.018-.018s-.018-.054-.018-.072c0-.036.126-.162.144-.162.054-.036.036-.126.072-.144.018-.036.126.018.126-.018v-.072c0-.072.072-.108.072-.2.324.036.414-.468.594-.612.036.072.072.018.072.036-.018.108-.126.2-.162.324.054.018.054.072.054.144C3.942-2.106,3.87-2.106,3.87-2.07ZM16.2-1.4v.18a4.852,4.852,0,0,1-.072.5c0,.018.036.018.036.072s-.036.054-.036.144v.2c0,.144-.09.126-.09.27V.18a.137.137,0,0,1,.036.09c0-.018.2.324.378.324.306,0,.2-.342.522-.342.108,0,.216.072.4.072.072,0,.27-.27.27-.432V-.216c.09-.09.306-.234.306-.342,0-.072-.054-.09-.054-.162s.126,0,.126-.126v-.342c.216-.072.288-.288.486-.4v-.054c0-.054.054-.072.054-.144,0-.018-.018-.036-.018-.072.234-.162.36-.072.36-.522.036,0,.054.018.072.018.18,0,.234-.27.432-.468.036-.054.18.036.18-.09v-.072a.066.066,0,0,1,.018-.054.108.108,0,0,0,.072.018c.108,0,.072-.144.2-.144h.054c0-.054.018-.072.018-.108a1.052,1.052,0,0,1-.018-.18c0,.018.036.018.054.018.09,0,.342-.324.378-.486a.089.089,0,0,0,.054.018c.054,0,.072-.054.162-.054,0,0,.324-.342.324-.36a.589.589,0,0,1,.4-.18.35.35,0,0,1,.054.234v.2a.437.437,0,0,0,.036.18c0,.09-.108.216-.108.306,0,.108.018.2.018.27v.09c-.09.126-.144.54-.18.54,0,.054.054.054.054.144,0,.036-.018.054-.018.072a2.195,2.195,0,0,1-.108.594c0,.054.018.108.018.18,0,.162-.144.324-.144.468,0,.036.018.054.018.09a1.559,1.559,0,0,1-.036.18c0,.018.036.036.036.036,0,.054-.036.054-.036.108,0,.144.108.252.144.4a.572.572,0,0,0-.036.252.868.868,0,0,0,.45.81c0-.036.036-.036.072-.036.018,0,.036.018.054.018.126,0,.2-.216.432-.2h.072c.072-.036.09-.126.2-.108.09.036.144-.072.252-.072.09-.306.234.054.306-.45a1.523,1.523,0,0,0,.81-.756h.018c.144,0,.18-.2.306-.216.036-.2.81-.612.864-1.008.126,0,.2-.126.234-.162a.377.377,0,0,0,.108-.072c.018-.216.306-.09.36-.414V-2.88c.324,0,.216-.558.576-.558.036-.018.126.072.162.036.108-.054,0-.18.09-.234.036-.018.108-.108.2-.162a.2.2,0,0,1,.09.018c.144-.054.054-.216.162-.288.072-.036.054-.072.054-.144.018-.288-.108-.306-.342-.324-.054-.018-.108.09-.144.09,0-.09-.288.324-.468.306H25.9a.572.572,0,0,1-.36.4c-.144.27-.2.2-.27.27-.054.072-.18.126-.2.162v.054s0-.036-.162.216h-.036a1.808,1.808,0,0,0-.576.666v.036l-.018-.018c-.09,0-.18.018-.2.072v.072c-.018.054-.162.126-.216.162-.108.4-.882.54-.9.828v.036a1.583,1.583,0,0,1-.18.108c-.036,0-.054-.018-.072-.018v.036A.136.136,0,0,1,22.7-.99s-.666.486-.774.522c-.036-.072-.09-.108-.09-.216.018-.072.072-.036.072-.126,0-.036-.036-.09-.036-.144.072-.036.108-.09.18-.09a1.48,1.48,0,0,1-.144-.522.36.36,0,0,1,.144-.306.668.668,0,0,1-.036-.162c0-.144.09-.27.09-.45a.317.317,0,0,0-.018-.108c.108,0,.216,0,.234-.09a.184.184,0,0,1-.09-.144c0-.054.054-.162.054-.252a.186.186,0,0,0-.072-.144c.09-.054.18-.09.18-.234v-.2c0-.09,0-.144-.036-.18,0-.072.072-.072.09-.126-.054-.018-.054-.072-.054-.162v-.162c0-.054,0-.108-.036-.126a2.247,2.247,0,0,0,.144-.216c-.09-.036-.108-.126-.108-.234v-.072c0-.036,0-.054-.018-.054s-.054.09-.108.09c.054,0-.234-.108-.252-.216.054,0,.072-.072.072-.144v-.162a.566.566,0,0,0-.36-.234c-.018,0-.018-.054-.054-.054-.072,0-.09.054-.126.054-.054,0-.09-.054-.162-.054-.09,0-.126.162-.234.162a.162.162,0,0,1-.09-.018v.072c0,.216-.7.684-.792.774a1.289,1.289,0,0,1-.342.4c-.144.072-.936.756-.972.99a1.663,1.663,0,0,1-.216.378c-.09,0-.414.162-.414.378v.036a.356.356,0,0,0-.252.18v.036c0,.072-.126.054-.126.108v.036c0,.072-.2.144-.2.2,0,.162-.45.45-.468.612-.09.036-.036.18-.126.18-.2,0-.144-.324-.2-.486a1.481,1.481,0,0,0,.126-.45c0-.342.126-.054.126-.468a1.524,1.524,0,0,0,.4-.612,1.715,1.715,0,0,0,.7-1.17,2.02,2.02,0,0,0,.36-.54c.018-.126.144-.126.162-.2.036-.09-.018-.162.054-.27v.018a2.3,2.3,0,0,0,.414-.792c0-.054-.018-.09-.018-.144.09-.018.09-.09.162-.126a15.167,15.167,0,0,0,.468-1.926,1.274,1.274,0,0,0,.306-.558c0-.126-.072-.126-.072-.252-.018-.09.126-.162.2-.324a.079.079,0,0,0-.018-.054,1.738,1.738,0,0,0,.126-.486c0-.018-.018,0-.018-.054a.261.261,0,0,1,.018-.108c-.018-.126-.09-.162-.09-.234,0-.036.018-.054.018-.072a.066.066,0,0,1-.054-.018.3.3,0,0,0,.054-.162c-.018-.108-.072-.18-.144-.162h-.054a1.9,1.9,0,0,1-.2-.126c-.018,0-.018.054-.054.054-.234.018-.288-.126-.4-.18,0,.054-.306.2-.288.18-.018.018-.072,0-.09,0-.036-.018-.018.252-.09.252a.063.063,0,0,0-.036-.018c-.2.018-.54.162-.486.2a.4.4,0,0,1,.018.144,2.211,2.211,0,0,1-.126.648c0,.036.018.072.018.108,0,.054-.036.072-.036.108a.181.181,0,0,1,.018.054c0,.018-.054.054-.054.054,0,.018.054.036.054.036,0,.072-.054.054-.054.144v.09a3.125,3.125,0,0,1-.126.522c-.036.018-.108.018-.108.072,0,.036.018.072.018.108,0,.054-.036.036-.054.072v.09c0,.09-.108.054-.108.162,0,.036.018.072.018.108,0,.018-.054.2-.072.27-.018,0-.072,0-.072.018s.054.018.072.018c-.018.072-.108.252-.108.288.018,0,.054-.018.054.018s-.072.054-.144.054a.239.239,0,0,0,.054.18c-.144.036-.108.252-.216.306v.09c0,.162-.072.162-.072.216a1.015,1.015,0,0,0,.018.126,1.521,1.521,0,0,1-.09.306c0,.036-.09.036-.09.09V-5.9a4.937,4.937,0,0,0-.216.99c0,.036.018.072.018.108a.975.975,0,0,0-.252.756.162.162,0,0,0,.018.09c-.234.18-.216.756-.306,1.008.018.036-.054.09-.054.09.09.072-.216.4-.324.342a4.149,4.149,0,0,1-.324.414L15.7-1.98c-.036,0-.342.288-.4.27h-.036c-.2.288-.414.27-.612.45-.324.018-.27.216-.432.288-.18.072-.486.234-.486.234l-.072.018a7.937,7.937,0,0,1-1.044.486c0-.072-.252.072-.288.072a2.083,2.083,0,0,0-.522.072c-.072,0-.18.036-.306.036a1.758,1.758,0,0,1-.342-.018c.054.018-.252.072-.288-.09-.108.018-.072-.036-.2-.018-.072,0-.108-.072-.162-.108-.036-.054-.144-.072-.144-.144-.018-.072,0-.18-.018-.234,0-.09-.09-.108-.108-.162,0-.036.036-.036.018-.072.072-.144.018-.072-.054-.144-.054-.09.036-.2.018-.216,0-.054-.036-.036-.036-.126.054-.306-.036-.81.162-1.044,0-.144-.072-.324.054-.36.108-.18.036,0,.144-.162a.7.7,0,0,1,.306-.648c.018-.018,0-.072,0-.108-.018-.018.216-.162.216-.234,0-.108.126-.162.2-.162.054-.09.09-.252.216-.324l.126-.018a2.114,2.114,0,0,1,.378-.414.611.611,0,0,1,.468-.18.394.394,0,0,1,.036.234c.27-.126.18.162.378.126.036-.018.036.036.072.018a.126.126,0,0,0,.072-.036c.162-.054.252.036.4-.108.054-.018.144,0,.2-.018-.036-.126.036-.144.09-.216-.018-.072.054-.216.054-.252.018-.144.018-.144-.018-.2-.018,0-.018-.072,0-.09a.758.758,0,0,0-.216-.252c-.162-.126-.378-.234-.5-.324-.09.018-.126.09-.252.072l-.072-.072c-.018-.036-.018-.018-.072-.036a1.328,1.328,0,0,0-.378,0c-.108-.018-.252.072-.36.108a.382.382,0,0,0-.2.144h-.054c-.072.018-.018.018-.036.036A3,3,0,0,1,11-5.49c-.054.09-.072.252-.126.36a1,1,0,0,0-.63.72c-.18.108-.4.288-.432.45.018.126-.018.036-.144.108,0,.144.036.234-.036.306a.184.184,0,0,0-.072.126c0,.018.036.036,0,.09,0,.018-.072.036-.072.054s.054.072.072.09c0,.072-.018.018-.018.09s-.108.054-.126.09a.78.78,0,0,0-.018.09c-.018.108,0,.252-.054.288-.018.018,0,.072,0,.072,0,.018-.036,0-.036,0-.018.036.018.072,0,.09-.018.09-.126.162-.144.2.162.09-.018.252.09.342-.108.018-.072.162-.072.216l-.072.252c0,.054.054.036.072.072.054.162-.036.2-.054.306.018.288.18.432.126.648.072.018.126.144.144.162l.144.234c0,.018.018,0,.036.054s0,.09.018.126c.072.072.162.054.234.108.018.018.018.108.036.108.072.09.234.072.288.108,0,0,.072.036.09.018.036.036.018.018.09.054.126,0,.09.018.216.072,0,0,.072,0,.072-.018,0-.054.054.018.108,0,.054.018.108,0,.108.054l.018.018c.126.036.4.018.576.072.036-.054.18-.054.234-.162a.121.121,0,0,0,.126.072A.615.615,0,0,0,12.1.594a.181.181,0,0,0,.054.018c.234,0,.4-.27.7-.216.072-.072.126-.162.252-.18.018.018.054.018.108.036C13.176.234,13.176.216,13.194.2a2.563,2.563,0,0,1,.288-.09c.018,0,.054.018.072,0V.054l.324-.126A.139.139,0,0,1,13.9-.126a.823.823,0,0,0,.4-.2l.036.018c.072-.018.144-.126.2-.126a.4.4,0,0,0,.252-.162L14.76-.612l.072-.018c.108,0,.216-.2.288-.2h.072c.2-.216.09-.144.342-.216A1.319,1.319,0,0,1,16.2-1.4Zm1.548-3.672c.072-.018.2-.306.2-.522v-.054c.108-.018.216-.5.216-.576,0-.09-.018-.162-.018-.27.234-.216.144-.486.324-.666-.036,0-.036-.054-.036-.126l.018.018c.09,0,.018-.144.09-.2a8.9,8.9,0,0,0,.27-.99c.288,0,.162-.144.162-.4a1.868,1.868,0,0,0,.072-.18c.126,0,.072-.18.18-.18-.018-.018.018-.108.09-.126.2-.054.054.27-.018.45a7.585,7.585,0,0,0-.054.828,3.664,3.664,0,0,0-.378.918c0,.18-.09.144-.09.306a1.649,1.649,0,0,0-.414.936c0,.018.018.036.018.054-.054.054-.054.126-.108.144-.018,0-.018-.018-.036-.018-.036.18-.162.2-.18.414,0,.054-.252.252-.252.45a2.112,2.112,0,0,0-.09.2C17.622-4.554,17.64-4.86,17.748-5.076Zm7.6,4.23c-.018.144.072.126.108.162.072.072.054.45.18.45.162,0,.2.252.4.306.144.018.162.126.288.18V.234c0-.054.036-.054.09-.054s.108,0,.108.054V.252a3.387,3.387,0,0,1,.594.09c.054-.072.2-.072.234-.162a.157.157,0,0,0,.144.072,1.07,1.07,0,0,0,.306-.036.181.181,0,0,0,.054.018c.108,0,.18-.144.27-.144h.072a.817.817,0,0,0,.18-.018h.072V.036h.108a.386.386,0,0,1,.27-.162.228.228,0,0,1,.108.018.066.066,0,0,1-.018-.054c0-.036.306-.09.288-.09h.072V-.306h.108a.079.079,0,0,1-.018-.054l.018-.018.036.018c.072,0,0-.054.054-.054h.09V-.45h.072c.09,0,.18-.2.27-.2h.054c.2-.2.108-.144.342-.2a1.319,1.319,0,0,1,.666-.36c.072-.072.18-.216.288-.216.162,0,.126-.288.306-.288a.079.079,0,0,0,.054.018c.18-.072.18-.234.4-.234.036-.162.126-.36.27-.36.018,0,.162-.144.306-.252.072-.036.216-.072.216-.18a.136.136,0,0,0-.018-.072c.018-.018.36-.234.342-.234h.054c.126,0,.216-.288.27-.342.2,0-.216-.036.288-.2.036,0,.2-.2.216-.2-.018.018.072-.162.054-.162-.2,0,.36-.432.216-.468-.036,0-.072,0-.072-.036-.072,0-.144.036-.216.036a.424.424,0,0,1-.144-.036c0-.036-.18.378-.468.378a.944.944,0,0,1-.342.414H32.94v.09c0,.018,0,.018-.018.018H32.85a5.236,5.236,0,0,1-.648.576h-.036c-.018,0-.036,0-.036.018a.063.063,0,0,0,.018.036h-.09c.018,0-.414.5-.5.5h-.036c-.09,0-.288.2-.36.216v.036c0,.018,0,.018-.018.018h-.054c-.036,0-.054.072-.126.072a.056.056,0,0,1-.036-.018c-.18.288-.4.27-.594.432-.324,0-.27.2-.432.288-.162.072-.486.252-.486.252H29.34a5.743,5.743,0,0,0-.738.216c0,.036,0,.054-.018.054a.181.181,0,0,1-.054-.018l-.018.018c0,.018.018.036.018.054h-.09c-.054,0-.09.144-.162.144,0-.072-.018-.09-.054-.09-.108,0-.414.144-.774.216-.072,0-.18.018-.306.018A1.469,1.469,0,0,1,26.82-.5c.018,0-.288-.2-.324-.342.036-.036-.072.018-.072-.018a3.6,3.6,0,0,0,.072-.378c.018,0,.252-.288.36-.36.054-.036.2-.018.252-.036v-.054h.072c.036,0-.018-.054.036-.054h.09a3.635,3.635,0,0,0,.576-.45s.45-.468.558-.468h.072c.072,0,.252-.216.27-.252.162-.18.252-.486.594-.486v-.072c0-.018.54-.522.522-.522h.036c.126-.216-.09-.378.234-.378h.072c0-.162.036-.216.036-.36v-.072h.054c.054,0,.09-.054.09-.126V-5.4c0-.018.018-.036.018-.072-.09-.072-.216-.108-.288-.18,0-.234-.576-.972-.864-.972a.452.452,0,0,0-.27.072.194.194,0,0,1-.144-.072c-.072,0-.072.072-.108.072s-.072-.036-.09-.036a1.891,1.891,0,0,0-.9.558c-.36.324-1.008.738-1.008,1.206a.78.78,0,0,1-.09-.018c-.144,0-.18.4-.486.45-.018.09-.144.558-.342.558v.072a.358.358,0,0,1-.072.2c0,.036.018.036.018.072h-.108c-.036,0-.036.234-.054.324,0,.144-.162.288-.162.342,0,.036.036.072.036.09a2.318,2.318,0,0,0-.2.81v.234C25.308-1.206,25.434-1.08,25.344-.846ZM29.088-5.6s.054,0,.054-.018c0-.054.018.216.036.144.162.054.414.126.414.288,0,.072-.054.126-.054.216a.572.572,0,0,1,.054.162c0,.09-.18.108-.18.306,0,.162-.54.288-.63.7h-.09c-.144,0-.306.2-.414.306a7.666,7.666,0,0,1-.81.7c-.162.09-.612.648-.918.648a.306.306,0,0,1-.126-.018,2.677,2.677,0,0,1,.108-.612c-.018-.072.126-.306.126-.378,0-.09.036-.558.2-.558a.3.3,0,0,1,.09.036c.054-.036.2-.126.2-.2v-.09c0-.09.144-.018.144-.162,0-.072-.018-.126-.018-.216a.653.653,0,0,1,.126-.306c.216,0,.2-.18.4-.162.162-.108.36-.54.522-.54.09,0,.09.108.18.108.09-.018.108-.144.2-.2.054-.054.108-.036.144-.054.054-.054.018-.144.072-.2C28.98-5.724,28.98-5.526,29.088-5.6Zm3.654,1.53c0-.054.054.576.324.576.126,0,.288.09.288.216.162,0,.2.072.216.216h.09a.152.152,0,0,1,.126.072.018.018,0,0,0-.018.018c0,.144.162.144.162.288v.018a.931.931,0,0,0,.234.108c.162.324.558.342.738.63h.072a.871.871,0,0,1,.594.45c.018,0,.432.108.468.432A.639.639,0,0,0,36-.864v.072c-.126,0-.252.216-.414.216-.036,0-.018-.036-.036-.036a.539.539,0,0,0-.2.054H35.3c-.126,0-.288.108-.342.108S34.884-.5,34.866-.5s-.018.072-.09.072c-.036,0-.09-.018-.108-.018a.746.746,0,0,1-.18.018c-.09,0-.18-.018-.306-.018h-.306c-.162,0-.216-.126-.378-.126-.054,0-.108.018-.144.018a.463.463,0,0,0-.378-.126c-.27,0-.27-.108-.378-.108h-.072c.036,0-.27-.108-.324-.18h-.018c-.054,0-.09.036-.144.036a1.055,1.055,0,0,0-.576-.306.62.62,0,0,0,.486.45,1.045,1.045,0,0,1,.234.09c.018.072.072.144.126.144h.054c.054,0,.144.162.2.162h.072a.462.462,0,0,0,.342.162h.036c0,.108.162.036.18.144.108,0,.126-.072.216-.072.108,0,.306.2.54.2a.1.1,0,0,0,.09-.054c.036.2.252.144.36.216a.455.455,0,0,1,.27-.108A.242.242,0,0,1,34.9.342c.108,0,.18-.09.306-.09.072,0,.126.072.18.072A1.294,1.294,0,0,0,35.73.252c.09,0,.126.09.234.09A2.77,2.77,0,0,0,36.306.2a.5.5,0,0,1,.486-.162c.054-.072.018-.234.144-.234.18-.036.252-.2.306-.378-.072-.162-.2-.216-.2-.432V-1.08a.87.87,0,0,1-.432-.558c-.072-.018-.2-.054-.2-.108v-.072c0-.036-.108-.036-.2-.216a.847.847,0,0,1-.54-.4c-.018,0-.036.018-.072.018-.108,0-.144-.108-.27-.108H35.28c-.036-.072-.144-.072-.162-.18a.256.256,0,0,1-.108.036c-.036,0-.072-.162-.108-.162h-.054c-.054,0-.054-.09-.072-.144a1.162,1.162,0,0,0-.612-.486.066.066,0,0,0,.018-.054c0-.126-.072-.162-.09-.252-.036-.144,0-.324-.054-.486.144-.036.216-.2.414-.2h.09c.126-.216.144-.144.468-.288,0-.036,0-.054.036-.054h.072a.517.517,0,0,0,.234-.144c.018,0,.054.054.126.054a.056.056,0,0,0,.036-.018c0-.234.72-.378.828-.45.018,0,.126-.144.27-.144a.287.287,0,0,1,.216.072.607.607,0,0,1,.558-.234c.054,0,.144.036.216.036a.2.2,0,0,0,.162-.09c.018,0,.036.036.036.054v.036c.126-.054.2-.126.2-.18s-.072-.072-.072-.144a.764.764,0,0,1,.144-.324v-.018c0-.126-.144-.18-.144-.216,0-.018.018-.054.018-.072-.018,0-.018.018-.036.018l-.018-.036c0-.018.018-.036.018-.054,0-.054-.144-.054-.162-.072a1.6,1.6,0,0,0-.432-.306c-.036.108-.2.054-.27.108-.072-.072-.216-.054-.252-.108-.018.072-.054.126-.108.126s-.09-.018-.126-.018c-.144,0-.054.108-.252.108h-.162a3.537,3.537,0,0,0-.5.18c-.054.054-.018.108-.072.108H35.46c-.09,0-.072.108-.126.108-.018,0-.072-.018-.09-.018,0,0-.324.306-.54.306h-.072c-.054,0-.036.054-.072.072-.036.09-.4.216-.36.216h-.054a3.12,3.12,0,0,0-.36.216c-.144.27-.432.252-.72.36,0,.216-.216.2-.306.27v.126C32.76-4.572,32.742-4.356,32.742-4.068ZM47.16-7.74a1.233,1.233,0,0,0-.27,0v-.2c.324-.018-.09-.63.432-.666.126,0,.072.252.234.234.054,0,.036-.2.054-.288.072-.072.18-.144.162-.2v-.072c-.018-.09.18-.252.18-.27.126-.432-.162-.864.234-.936,0-.036-.018-.054-.018-.072-.018-.09.234-.306.234-.468a.066.066,0,0,1-.018-.054,1.261,1.261,0,0,0,.144-.558l-.054-.2a.961.961,0,0,0,.09-.45.7.7,0,0,0-.378-.54.2.2,0,0,1-.09.018c-.27.018-.324-.2-.558-.18a.977.977,0,0,1-.414.27c0,.378-.126.918-.09,1.134,0,.018.018.036.018.054a.6.6,0,0,1-.036.252c0,.054-.072.684-.234.756v.054c.018.216-.054.324-.036.522a.108.108,0,0,1,.018.072.177.177,0,0,0-.144.054V-9.4a7.222,7.222,0,0,0-.342,1.152v.054a.018.018,0,0,1-.018.018.063.063,0,0,0-.036-.018v.018a.108.108,0,0,1,.018.072c-.018-.018-.144.144-.216.36h-.09a.256.256,0,0,0-.108-.036c-.108,0-.234.054-.342.054a.134.134,0,0,1-.108-.108c-.144.018-.414.018-.576.018-.18-.018-.36-.108-.522-.108-.036,0-.09-.018-.126,0-.108-.162-.522-.18-.846-.306a.335.335,0,0,0-.27-.162c-.378-.036-.36.324-.432.72a.542.542,0,0,0,.36.126.162.162,0,0,0,.09.018c.108.162.09.2.486.234.036.288.9.072.954.324a.639.639,0,0,1,.27-.018,7.519,7.519,0,0,1,.738.144.225.225,0,0,1,.234-.072h.108c-.09.288-.144.63-.288.738.072.054-.108.63-.108.7.018.4-.252.5-.216.918v.09c-.162.072-.108.522-.108.648C45-3.78,44.8-3.2,44.8-3.168c.018.018.018.036.036.036,0,.072-.09.09-.09.126l.072.144c-.216.144-.234,1.314-.558,1.71V-1.1a.526.526,0,0,1,.036.162c.018.126-.108.108-.108.162,0,.018.018.036.018.054a2.029,2.029,0,0,0-.054.324.4.4,0,0,0,.054.18c-.09.018-.108.072-.108.144a.639.639,0,0,1,.036.18c.018.126-.054.252-.054.324,0,.036,0,.072.036.09a.408.408,0,0,0-.126.2.528.528,0,0,1,.072.144,1.345,1.345,0,0,1-.036.2c0,.036.126.072.126.09.054.036,0,.18.072.18.162-.036.306-.09.486-.126a1.034,1.034,0,0,1,.2-.558.633.633,0,0,1-.09-.324,1.444,1.444,0,0,1,0-.4l.144-.288c0-.036-.018-.072-.018-.108C44.928-.63,45-.666,45-.72a.268.268,0,0,1-.018-.108c0-.054.054,0,.054-.072a.066.066,0,0,1-.018-.054,5.528,5.528,0,0,1,.126-.774.063.063,0,0,0,.036.018c.144-.018-.018-.558.216-.576v-.072c-.036-.414.234-.684.216-.918a.242.242,0,0,0-.036-.144c.18-.018.162-.846.342-1.044,0-.126-.018-.234-.018-.342a1.589,1.589,0,0,0,.36-.81V-5.67c.018.018.126-.45.162-.45a4.381,4.381,0,0,0,.09-.558c-.018-.126.072-.18.09-.252.126.018.252.036.252.09,0-.018.306.018.306,0,.018.036.09-.036.126-.036a2.448,2.448,0,0,0,.36-.108q0,.027.054.054c.036,0-.018-.018.054-.054a.64.64,0,0,1,.18.036c.036,0,.054-.018.09-.018a2.909,2.909,0,0,0,1.1-.288c.144-.126.774.036.918-.126.306.072.63-.144.864-.144a1.015,1.015,0,0,0,.216.072c.072,0,.126-.09.2-.09s.072.036.09.036c.018.018.036,0,.072-.018.306-.144.576-.144.594-.342,0-.108-.09-.144-.072-.252v-.036h-.036c-.162-.018-.342-.126-.432-.126-.072,0-.072.054-.126.036-.018,0-.054-.018-.072-.018-.09.018-.162.054-.2.054-.054,0-.144-.018-.18-.018a.056.056,0,0,0-.036-.018,11.476,11.476,0,0,1-1.188.234,5.108,5.108,0,0,1-1.3.054c-.108.054-.18.2-.342.18-.09,0-.072-.108-.18-.126-.054,0-.09.108-.18.108-.036-.018-.2.036-.18,0C47.556-7.956,47.16-7.614,47.16-7.74ZM60.318-1.656c.072-.072,0-.216,0-.324v-.252a.342.342,0,0,1,.054-.162.78.78,0,0,0-.018-.09.194.194,0,0,1,.054-.126,1.657,1.657,0,0,0,.054-.162c-.072-.018-.072-.036-.072-.072v-.108c0-.018-.018-.054-.018-.072.054,0,.072-.2.108-.216.108-.126.036.018.144-.324a.3.3,0,0,0,0-.144c-.018-.036.018-.072.072-.072a.094.094,0,0,1,.072.036l.144-.018a.141.141,0,0,0,.144-.018.351.351,0,0,0,.234.018,1.4,1.4,0,0,0,.162-.018.5.5,0,0,1,.234.054c.054.018.09,0,.162,0a.28.28,0,0,0,.162-.054c-.018,0,.09.036.126.072a.555.555,0,0,0,.18.018A.764.764,0,0,0,62.73-3.8a.19.19,0,0,0,.09-.036,1,1,0,0,0,.576.072l.2-.018c.27.126.27.018.468-.144l.108-.036a.108.108,0,0,0,.072.018c.072,0,.126-.072.2-.144l.036-.072c0-.234-.126-.324-.27-.468l-.09-.108a.266.266,0,0,1-.162-.162c-.036-.09-.036-.126-.216-.126a.959.959,0,0,0-.234-.36.593.593,0,0,1-.162-.288c-.072-.126-.108-.144-.2-.162L63-5.922a.552.552,0,0,0-.162-.252l-.09-.126a.323.323,0,0,1-.2-.054.29.29,0,0,0-.2-.054h-.036a.334.334,0,0,0-.216-.126l-.18-.036c-.018.054-.036.054-.054.054l-.18-.09c-.036.054-.054.054-.054.054h-.108c-.036,0-.054-.018-.09-.018-.108,0-.432.576-.432.63V-5.9a.6.6,0,0,0-.2.162l-.27.234v.09c0,.054-.27.414-.306.576a.541.541,0,0,0-.144.162l-.054.126a.6.6,0,0,0-.018.252.094.094,0,0,0-.036.072c-.072.054-.162.108-.216.09h-.018a.572.572,0,0,1-.36.4c-.144.27-.2.2-.27.27-.054.072-.18.126-.2.162v.054s0-.036-.162.216h-.036a1.808,1.808,0,0,0-.576.666v.036l-.018-.018c-.09,0-.18.018-.2.072v.072c-.018.054-.162.126-.216.162-.108.4-.882.54-.9.828v.036a1.583,1.583,0,0,1-.18.108c-.036,0-.054-.018-.072-.018v.036a.136.136,0,0,1-.018.072s-.666.486-.774.522c-.036-.072-.09-.108-.09-.216.018-.072.072-.036.072-.126,0-.036-.036-.09-.036-.144.072-.036.108-.09.18-.09a1.48,1.48,0,0,1-.144-.522.36.36,0,0,1,.144-.306.668.668,0,0,1-.036-.162c0-.144.09-.27.09-.45a.317.317,0,0,0-.018-.108c.108,0,.216,0,.234-.09a.184.184,0,0,1-.09-.144c0-.054.054-.162.054-.252a.186.186,0,0,0-.072-.144c.09-.054.18-.09.18-.234v-.2c0-.09,0-.144-.036-.18,0-.072.072-.072.09-.126-.054-.018-.054-.072-.054-.162v-.162c0-.054,0-.108-.036-.126a2.248,2.248,0,0,0,.144-.216c-.09-.036-.108-.126-.108-.234v-.072c0-.036,0-.054-.018-.054s-.054.09-.108.09c.036,0-.234-.108-.252-.216.054,0,.072-.072.072-.144v-.162a.566.566,0,0,0-.36-.234c-.018,0-.018-.054-.054-.054-.072,0-.09.054-.126.054-.054,0-.09-.054-.162-.054-.09,0-.126.162-.234.162a.162.162,0,0,1-.09-.018v.072c0,.216-.7.684-.792.774a1.289,1.289,0,0,1-.342.4c-.144.072-.936.756-.972.99a1.663,1.663,0,0,1-.216.378c-.09,0-.414.162-.414.378v.036a.356.356,0,0,0-.252.18v.036c0,.072-.126.054-.126.108v.036c0,.072-.2.144-.2.2,0,.162-.45.45-.468.612-.09.036-.036.18-.126.18-.2,0-.144-.324-.2-.486.036-.108.2-.108.2-.27,0-.342.072-.414.072-.828a.794.794,0,0,0,.18-.45v-.144c0-.126.036-.09.036-.2v-.09a3.541,3.541,0,0,0,.306-1.422c.072-.018.2-.306.2-.522v-.054c.108-.018.216-.5.216-.576,0-.09-.018-.162-.018-.27.234-.216.144-.486.324-.666-.036,0-.036-.054-.036-.126l.018.018c.09,0,.018-.144.09-.2a.317.317,0,0,0,.108.018c.288,0,.342-.144.342-.4V-7.9c.126,0,.072-.18.18-.18a.108.108,0,0,1-.018-.072c0-.2.126-.216.126-.342,0-.162.072-.108.126-.2a.917.917,0,0,0,.162-.63V-9.36c.018-.108.2-.2.2-.306,0-.054-.018-.126-.018-.144,0-.144.09-.2.09-.306-.054-.09-.18-.108-.27-.162-.072-.306-.378-.324-.612-.45a2.31,2.31,0,0,1-.414.252.4.4,0,0,1,.018.144,2.211,2.211,0,0,1-.126.648c0,.036.018.072.018.108,0,.054-.036.072-.036.108a.181.181,0,0,1,.018.054c0,.018-.054.054-.054.054,0,.018.054.036.054.036,0,.072-.054.054-.054.144v.09a3.125,3.125,0,0,1-.126.522c-.036.018-.108.018-.108.072,0,.036.018.072.018.108,0,.054-.036.036-.054.072v.09c0,.09-.108.054-.108.162,0,.036.018.072.018.108,0,.018-.054.2-.072.27-.018,0-.072,0-.072.018s.054.018.072.018c-.018.072-.108.252-.108.288.018,0,.054-.018.054.018s-.072.054-.144.054a.239.239,0,0,0,.054.18c-.144.036-.108.252-.216.306v.09c0,.162-.072.162-.072.216a1.015,1.015,0,0,0,.018.126,1.52,1.52,0,0,1-.09.306c0,.036-.09.036-.09.09V-5.9a4.937,4.937,0,0,0-.216.99c0,.036.018.072.018.108a.975.975,0,0,0-.252.756.162.162,0,0,0,.018.09c-.234.18-.216.756-.306,1.008.018.036-.054.09-.054.09-.036.162,0,.342-.036.486,0,.18-.162.216-.162.432,0,.09.018.144.018.2-.054,0-.18.378-.18.4v.126a4.853,4.853,0,0,1-.072.5c0,.018.036.018.036.072s-.036.054-.036.144v.2c0,.144-.09.126-.09.27V.18a.138.138,0,0,1,.036.09c0-.018.2.324.378.324.306,0,.2-.342.522-.342.108,0,.216.072.4.072.072,0,.27-.27.27-.432V-.216c.09-.09.306-.234.306-.342,0-.072-.054-.09-.054-.162s.126,0,.126-.126v-.342c.216-.072.288-.288.486-.4v-.054c0-.054.054-.072.054-.144,0-.018-.018-.036-.018-.072.234-.162.36-.072.36-.522.036,0,.054.018.072.018.18,0,.234-.27.432-.468.036-.054.18.036.18-.09v-.072a.066.066,0,0,1,.018-.054.108.108,0,0,0,.072.018c.108,0,.072-.144.2-.144h.054c0-.054.018-.072.018-.108a1.052,1.052,0,0,1-.018-.18c0,.018.036.018.054.018.09,0,.342-.324.378-.486a.089.089,0,0,0,.054.018c.054,0,.072-.054.162-.054,0,0,.324-.342.324-.36a.589.589,0,0,1,.4-.18.35.35,0,0,1,.054.234v.2a.437.437,0,0,0,.036.18c0,.09-.108.216-.108.306,0,.108.018.2.018.27v.09c-.09.126-.144.54-.18.54,0,.054.054.054.054.144,0,.036-.018.054-.018.072a2.195,2.195,0,0,1-.108.594c0,.054.018.108.018.18,0,.162-.144.324-.144.468,0,.036.018.054.018.09a1.559,1.559,0,0,1-.036.18c0,.018.036.036.036.036,0,.054-.036.054-.036.108,0,.144.108.252.144.4a.572.572,0,0,0-.036.252.868.868,0,0,0,.45.81c0-.036.036-.036.072-.036.018,0,.036.018.054.018.126,0,.2-.216.432-.2h.072c.072-.036.09-.126.2-.108.09.036.144-.072.252-.072.09-.306.234.054.306-.45a1.523,1.523,0,0,0,.81-.756h.018c.144,0,.18-.2.306-.216.036-.2.81-.612.864-1.008.126,0,.2-.126.234-.162a.376.376,0,0,0,.108-.072c.018-.216.306-.09.36-.414V-2.88a.367.367,0,0,0,.27-.144c-.018.036-.018.072-.036.09a2.12,2.12,0,0,0-.072.45.1.1,0,0,1,0,.108c0,.072.018.108.018.144v.072c0,.036-.018.09-.108.2a.453.453,0,0,0,.108.036c0,.054.018.162-.018.216-.018,0,.018.378,0,.378.072,0,0,.27.036.324.162.054.108.288.216.36,0,.162.2.234.2.27a.256.256,0,0,1-.036.108c0,.072.108.072.162.144.378.432.378.162.792.4h.036c.036,0,.036.036.054.036.036,0,.054-.036.09-.036-.036,0,.2.054.27.09A.433.433,0,0,1,61.47.216a.148.148,0,0,0,.144.09c.162,0,.4-.144.558-.144a2.021,2.021,0,0,1,.738-.414c0-.018.27-.162.27-.18.018-.162.18-.252.594-.594.288-.072.576-.792.756-.99-.054,0,.018-.108.018-.162.108-.306.162-.594-.054-.612-.234.018-.4.432-.414.5a.066.066,0,0,0,.018.054,1.01,1.01,0,0,0-.288.342c0,.018-.2.18-.18.216,0,.09-.108.072-.108.162-.018.018-.018.018-.018.036-.288,0-.252.306-.54.306h-.036c-.072.108-.108.216-.216.252-.486.072-.468.5-1.206.5-.324,0-.7-.072-.81-.288V-.756c0-.09-.108-.09-.09-.162,0-.018-.036-.09-.018-.126l-.162-.216c.054-.054.018-.126.018-.2C60.462-1.6,60.318-1.548,60.318-1.656ZM63.09-4.608s.144.162.216.252c-.09.036-.036.018-.054.018L63.18-4.3l-.216.036a11.255,11.255,0,0,0-1.638-.09.792.792,0,0,1-.18.036H60.8l-.036.018A.637.637,0,0,1,61-4.734c.144-.126.288-.27.288-.432.036,0,.054-.036.108-.072a2.192,2.192,0,0,1,.288-.468c.036,0,.072,0,.09.054a.817.817,0,0,1,.144.036.8.8,0,0,1,.126-.162c.234.018.414.18.72.558A1.25,1.25,0,0,1,63-4.7.081.081,0,0,0,63.09-4.608Zm15.624,1.62a.24.24,0,0,0,.054-.09c0-.036.072-.036.072-.036,0-.108.144-.252.018-.342-.09-.036-.126,0-.252.054-.108.126-.144.162-.252.2.018,0-.126-.108-.09.054h-.09c-.054,0-.036.036-.054.036-.09.036-.162.144-.2.162-.126.036-.09.072-.162.126-.072,0-.09-.054-.2-.036a.365.365,0,0,1-.2.234c-.216-.036-.2.234-.45.18.018.144-.09.18-.108.27-.054,0-.09-.054-.162-.018a2.133,2.133,0,0,1-.45.45c-.108-.036-.108.054-.216.054a.97.97,0,0,0-.126.234c-.108.036-.216-.018-.378.054a.485.485,0,0,0-.144.126,3.291,3.291,0,0,0-.7.378.193.193,0,0,1-.108.036c-.036,0-.018.036-.036.036-.036.036-.09-.018-.126,0-.018.018-.036.108-.072.108a.877.877,0,0,0-.126.054c-.054,0-.018.036-.054.054a1.007,1.007,0,0,1-.468.126c-.018.054-.054.09-.072.09a.787.787,0,0,1-.306.144c-.036,0-.018.018-.036.036-.234.108-.36,0-.612,0-.108,0-.18.054-.306.054-.072-.018-.108-.09-.18-.126C72.108-.36,72.018-.4,72-.486A1.018,1.018,0,0,0,72-.72c0-.09-.036-.126-.036-.18S72-.954,72-.99c.09-.144,0-.072-.036-.162-.054-.09.036-.2.036-.216,0-.054-.036-.054-.036-.144.2-.234.036-.828.288-1.026.018-.144-.054-.342.09-.36.108-.162.144.18.27.036a.5.5,0,0,1,0-.324c.018-.108.18-.036.162-.18.036-.126.018-.27.09-.288.018-.018,0-.072,0-.108,0-.018.054,0,.054,0v-.072c.018-.072.18-.072.18-.144,0-.108.144-.162.216-.144.09-.09.126-.234.252-.288h.126a1.917,1.917,0,0,1,.414-.36.557.557,0,0,1,.486-.108.463.463,0,0,1,.036.252c.27-.09.162.18.378.18.036-.018.036.036.072.036a.126.126,0,0,0,.072-.036c.054-.018.09.036.126.036.018,0,.054-.036.054-.036.072,0,.072.054.144.036.018,0,.054-.072.072-.072.072-.018.144.018.2,0,0-.126.072-.126.108-.2a.786.786,0,0,1,.09-.27c.036-.144.036-.144,0-.2-.018,0,0-.072,0-.09a.685.685,0,0,0-.2-.288l-.468-.414c-.09,0-.126.072-.27.036l-.054-.09c-.036-.054-.018-.018-.09-.054a1.545,1.545,0,0,0-.378-.072,1.718,1.718,0,0,0-.378.072.749.749,0,0,0-.216.108h-.054c-.072,0-.018.018-.036.036a2.334,2.334,0,0,1-.63.324c-.072.09-.09.252-.162.342a1.019,1.019,0,0,0-.7.648.832.832,0,0,0-.486.4c-.018.126-.036.036-.162.09-.018.126,0,.252-.054.306a.3.3,0,0,0-.09.108c0,.018.036.054,0,.09,0,.018-.072.036-.072.054a.24.24,0,0,0,.054.09c-.018.072-.018.018-.036.09,0,.072-.108.036-.144.072v.108c-.036.126-.036.252-.09.288-.018.018,0,.072,0,.072,0,.018-.036,0-.036,0-.018.018.018.072,0,.09-.036.072-.144.126-.18.162.144.126-.036.252.072.4-.108,0-.09.144-.09.2a1.357,1.357,0,0,0-.108.234c0,.054.054.054.054.09.054.162-.036.18-.054.288-.036.324.126.486.054.7.072.018.126.162.144.18a2.1,2.1,0,0,0,.108.27c0,.018.018,0,.036.054s-.018.09,0,.126c.072.108.162.108.234.162.018.018.018.108.036.126.054.09.216.09.288.144l.054.054c.036.036.018.018.09.054.144.054.2-.036.27.054.018.018.09-.018.108,0,0,0-.018.036,0,.036.036.036.2-.036.27-.036.054,0,.072.054.2.036.018,0,.036-.036.09-.036.162-.054.27-.018.36-.054A.256.256,0,0,0,73.26.4a.793.793,0,0,1,.252-.054,1.1,1.1,0,0,0,.216-.09c.126-.036.252-.126.378-.072.018-.072.108-.072.144-.09.036-.036.072-.162.144-.162.234,0,.27-.216.5-.216a.286.286,0,0,1,.18-.2c.126-.018.2-.09.342-.09.018-.162.216-.162.324-.252.072-.054.108-.126.2-.162l.072-.054c.054-.018.108-.09.162-.108.036,0,.162-.09.162-.126.018-.018.09.018.09,0,.126-.09.144-.234.288-.234.018-.234.288-.2.4-.378.126.036.18-.126.252-.2h.09c.018,0,.018-.09.054-.09a.247.247,0,0,0,.144-.09c.018-.018.072.018.108,0a.462.462,0,0,0,.036-.09l.126-.09c.018-.018.072.018.09,0,0-.018.018-.09.036-.09.072-.036.162-.162.234-.144a.916.916,0,0,1,.288-.234C78.57-2.988,78.7-2.97,78.714-2.988Zm-.126.09a.018.018,0,0,0-.018-.018A.018.018,0,0,0,78.588-2.9Zm.72-2.2c.036,0-.288.288-.27.378,0,.072-.216.072-.18.126v.036h-.072a1.66,1.66,0,0,0-.72,1.152h-.054c-.09,0-.234.36-.162.648-.162,0-.054.252-.234.27.018.036.018.036.018.054.09.4-.162.468-.072.864a6.984,6.984,0,0,0,.054,1.1c.018.09.072.108.072.126,0-.054.108.18.18.27.036.036.126.018.144.036.09.036.072.126.144.126h.072V.162c.018.018.018.018.054.018h.09c.018,0,.144.126.216.126.018,0,.162.018.18.018a3.045,3.045,0,0,1,.378.054,5.482,5.482,0,0,0,.936-.27h.036a.953.953,0,0,0,.54-.216c-.018-.036.342-.144.306-.252a.705.705,0,0,0,.072-.162c-.018-.018.18-.09.18-.108a.941.941,0,0,0,.4-.45.683.683,0,0,0,.234-.594c.4-.306.414-.54.594-.72h.054c-.054-.216.126-.324.09-.486,0-.054-.036-.09-.036-.126-.054-.288.18-.738.09-1.026-.018-.126-.216-.306-.27-.432a1.39,1.39,0,0,1,.018-.18c-.018-.054-.108-.126-.18-.2.018.018.036,0,.072,0a1.146,1.146,0,0,0,.648.072.153.153,0,0,1,.126.126.148.148,0,0,0,.126,0c.234-.054.36.108.486.108.108.036.126-.036.18-.018.036,0,.108.018.09.036.036.018.18-.036.2-.036a2.2,2.2,0,0,1,.54-.108.2.2,0,0,0,.09.018.773.773,0,0,0,.522.036c0,.054.036.162.018.162h.018c.018.018-.018.126,0,.126.018.054-.108.108-.054.126a3,3,0,0,1-.2.612c0,.072.072.072.072.144a4.194,4.194,0,0,1-.234.558c.018.072.036.126.036.144a1.572,1.572,0,0,1-.126.5V-2.2c0,.054-.018,0-.018.072v.09c0,.054-.108.018-.108.108,0,.036.018.09.018.108a1.913,1.913,0,0,0-.09.324c0,.054.018.108.018.18,0,.306-.126.324-.126.45,0,.108.072.18.072.342,0,.09-.054.2-.054.27,0,0,.18.486.27.45V.252c0-.018.126.306.36.252.252-.054.486-.342.414-.324.144-.036.108-.2.144-.324a.056.056,0,0,0,.036.018c.126-.036.108-.2.126-.234a.508.508,0,0,0,.288-.54c-.018-.108.324-.072.306-.18,0,0,.306-.63.414-.666H86.9c-.018-.27.234-.324.4-.45.09-.126.108-.306.234-.4h.054c.144-.054.18-.234.432-.54.144-.162-.162-.234.45-.36-.018-.234.2-.36.306-.54.072-.162.108-.342.558-.432-.054-.2.666-.54.738-.558a.162.162,0,0,1,.09.018.8.8,0,0,1,.306-.342c.072-.018.09.018.162,0a.265.265,0,0,1,.18-.162.556.556,0,0,1,.648.234,1.837,1.837,0,0,0-.216.414.056.056,0,0,0,.036.018l-.018.018h-.072a1.01,1.01,0,0,0-.09.342c.126-.036.18.18.324.144a.035.035,0,0,1,.036-.036c.018,0,.054.036.054.036.072-.018.162-.09.234-.108.036,0,.054.054.126.036a.631.631,0,0,0,.144-.09c.036,0,.054.018.09,0,.018,0,.018-.018.036-.018-.018-.018-.018-.018-.018-.036-.018-.072.144-.09.162-.126.036-.09-.018-.144.036-.252.036,0,.072.036.126.036V-4.95a.121.121,0,0,1,.054-.144l-.072-.288c-.036-.144-.036-.4-.054-.5-.036-.162-.126-.162-.162-.306h-.036c-.126.036-.216-.216-.342-.306a.094.094,0,0,0-.072.036c-.072,0-.108,0-.108-.036,0-.018-.018-.036-.018-.072-.018,0-.036-.018-.054,0-.072.018-.054.072-.126.09-.108.036-.252-.072-.4-.036a3,3,0,0,0-.342.09.929.929,0,0,1-.2.036c-.144.036-.162.162-.252.18a.136.136,0,0,1-.072.018c-.018.018-.018.018-.054.018a.985.985,0,0,1-.414.234,1.567,1.567,0,0,1-.594.468l-.234.36c-.054.036-.126.018-.18.072.036-.036-.036.306-.414.378-.018,0-.018-.018-.036,0-.054.126-.108.252-.288.288a2.044,2.044,0,0,1-.4.756c-.036,0-.054-.018-.09,0,0,0-.27.18-.288.2a3.978,3.978,0,0,1-.252.432c-.09.09-.144,0-.324.306-.054.054-.09.18-.126.2h-.054c-.144.036-.072.324-.36.414-.054.2-.072.54-.342.594l.09.036V-1.4c0,.054-.126.072-.2.072-.018-.036.072-.036.072-.072,0-.09-.018-.18-.018-.252a1.949,1.949,0,0,0,.216-.882c.2-.09.162-.972.234-.972.126,0,0-.288.126-.288a.228.228,0,0,1-.018-.108.592.592,0,0,1,.216-.522,1.37,1.37,0,0,0,.054-.378,2.45,2.45,0,0,0,.576-1.08c-.054.036-.036-.558-.09-.558h-.018c-.018-.036-.216-.306-.216-.306v-.036c-.2,0-.252-.18-.342-.18-.054,0-.09.054-.144.054-.09,0-.216.144-.288.144,0,.054,0,.072-.054.072-.036,0-.09-.018-.108-.018v.054a.681.681,0,0,0,.018.144V-6.5h-.072c-.036,0-.036.234-.054.288,0,.018-.036-.018-.036.018v.054c0,.054-.072.054-.09.108a.126.126,0,0,1,.036.072,1.38,1.38,0,0,1-.126.45.329.329,0,0,0-.144.234H85.32c-.018,0-.036-.036-.036-.036a.464.464,0,0,1-.378.018c-.36-.162-.468.072-.576-.018l-.126.018c0-.018-.054-.018-.072-.018-.036-.036-.072.036-.144.036-.018-.018-.036-.036-.054-.036-.108-.036-.126,0-.2-.036.036,0-.306-.036-.414-.036a2.319,2.319,0,0,1-.774-.2.3.3,0,0,1-.216-.162c-.018.054-.09.054-.126.054a.066.066,0,0,1-.018-.054c-.09-.054-.144.072-.216.018-.072-.036-.108-.108-.144-.126-.162-.072-.036-.234-.2-.252-.054-.036-.054-.072-.072-.072h-.036c-.036-.108-.144-.18-.144-.252-.288-.216-.45-.486-.828-.594-.018-.162-.162-.2-.234-.324-.054.036-.126,0-.162,0a1.164,1.164,0,0,0-.234-.072c-.072-.054-.162-.072-.36.018-.054.054-.036.126-.108.144a.436.436,0,0,0-.108.18c0,.054,0,.09.018.108-.018.036-.036.018-.036.018a1.2,1.2,0,0,0,.126.666c.09.072.288.27.378.252a.066.066,0,0,0,.054.018c.054.18.414.216.486.252l.09.018a1.03,1.03,0,0,1-.468.018.239.239,0,0,1-.126.054l-.018-.018c-.018,0-.018.036-.072.036-.018,0-.126-.018-.162-.018-.09,0-.36.216-.342.324Zm1.512-.072a.843.843,0,0,1,.666.5c.018.144.2.288.18.378a.066.066,0,0,0,.018.054c0,.072-.018.072,0,.144A.848.848,0,0,0,81.72-4c0,.234-.162.324-.126.54.072.036-.036.324-.018.45,0,.054-.018.18-.018.216a.408.408,0,0,1,.018.072.766.766,0,0,0-.126.414c-.054.27-.18.324-.2.558-.072.18-.252.234-.252.288,0,.018-.162.18-.162.2a1.365,1.365,0,0,0-.252.252s-.108.126-.072.144c0,0-.378.216-.432.36-.072.054-.432.126-.5.2-.018.09-.216,0-.4,0-.414,0-.54-.054-.666-.36.09-.216-.09-.252-.09-.4-.036-.162,0-.342-.054-.558a.847.847,0,0,0-.054-.162.214.214,0,0,1,.108-.036c.108,0-.054-.252.09-.252.108,0,.144-.126.108-.216a.215.215,0,0,0-.072-.144c.036-.2.306-.162.252-.4,0-.306.126-.342.126-.468l.018-.036c.144-.162.414.072.324-.342.252-.54.558-.648.738-.954C80.37-4.626,80.568-4.986,80.82-5.166ZM80.532-6.3c-.144-.054-.342-.108-.4-.2a.2.2,0,0,1-.054-.18A.644.644,0,0,1,80.532-6.3ZM92.826-1.332c.072,0,0,.27.036.324.162.054.108.288.216.36,0,.162.2.234.2.27a.256.256,0,0,1-.036.108c0,.072.108.072.162.144.378.432.378.162.792.4h.036c.036,0,.036.036.054.036.036,0,.054-.036.09-.036-.036,0,.2.054.27.09a.433.433,0,0,1,.108-.144.148.148,0,0,0,.144.09c.162,0,.4-.144.558-.144a2.021,2.021,0,0,1,.738-.414c0-.018.27-.162.27-.18.018-.162.18-.252.594-.594.288-.072.576-.792.756-.99-.054,0,.018-.108.018-.162.108-.306.162-.594-.054-.612-.234.018-.4.432-.414.5a.066.066,0,0,0,.018.054,1.01,1.01,0,0,0-.288.342c0,.018-.2.18-.18.216,0,.09-.108.072-.108.162-.018.018-.018.018-.018.036-.288,0-.252.306-.54.306H96.21c-.072.108-.108.216-.216.252-.486.072-.468.5-1.206.5-.324,0-.7-.072-.81-.288V-.756c0-.09-.108-.09-.09-.162,0-.018-.036-.09-.018-.126l-.162-.216a.231.231,0,0,0,.072-.18c.018-.144-.126-.09-.126-.2a.271.271,0,0,1,.072-.144c0-.09-.054-.2-.054-.306.018-.09.27.036.414,0v-.054c.018-.162.216-.144.216-.216V-2.43c.018-.054.2-.108.18-.108h.036v-.09c.018-.018.558-.576.828-.576,0-.018.018-.054.018-.072.018-.18.252-.144.36-.234.144-.144.216-.324.342-.468H96.1c.09,0,.126-.054.144-.144.018,0,.036.018.054.018.162,0,.288-.27.594-.486.018,0,.036.018.072.018a.4.4,0,0,1,.36-.162c0-.018-.018-.036-.018-.054.018-.09.072-.108.072-.2V-5.04c.036.018.054-.216.072-.216.054,0,.108-.054.108-.18.018-.324-.576-.774-.594-.774a.057.057,0,0,1-.054.054.339.339,0,0,0-.216-.108H96.66c0,.036-.234-.252-.342-.252a1.559,1.559,0,0,0-.18.036.955.955,0,0,1-.252-.09c0,.072-.144.072-.216.072h-.162c-.09,0-.18.018-.2.09-.108,0-.18.144-.234.144-.036,0-.144.108-.234.18-.576.54-.684.378-1.1,1.26-.054.18-.18.252-.18.288,0,.018.018.054.018.072-.036,0-.072-.018-.072.036-.018.018,0,.054,0,.072h-.036c-.018,0-.036,0-.036.018s.018.054.018.072c-.216.486-.378.774-.378.792v.216a2.652,2.652,0,0,0-.144.5l-.09.612c0,.09-.018.342-.018.432C92.808-1.71,92.844-1.332,92.826-1.332Zm2.808-4.356a1.758,1.758,0,0,1,.684-.126c.2,0,.216.342.216.468-.036.468-.54.216-.576.7,0,.036,0,.036-.018.054-.378,0-.306.4-.648.4-.018,0-.036-.018-.072-.018a1.5,1.5,0,0,1-.144.342c-.45.072-.846.81-1.17.81-.072,0-.054-.162-.054-.18a1.426,1.426,0,0,1,.378-.522c0-.018-.018-.054-.018-.072,0-.072.072-.072.09-.162,0-.108-.036-.162-.018-.252.018-.324.45-.018.486-.522v-.108c.252-.27.432-.594.63-.774a.78.78,0,0,1,.09.018C95.544-5.634,95.526-5.688,95.634-5.688Zm7.11,5.076c-.18-.09-.342-.27-.486-.27-.09,0-.2.036-.342.054-.054,0-.09-.036-.144-.036-.018,0-.036,0-.036.018l.018.018a.1.1,0,0,1-.09.036c-.036,0-.072-.018-.108-.018-.054,0-.072.054-.09.054-.036,0-.108-.072-.108-.072-.018,0-.018.072-.054.072l-.018-.018v.036a1.253,1.253,0,0,0-.072.306c0,.108.018.2.018.306a.807.807,0,0,1-.018.2c.054.018.144.18.144.18h.054c-.036.018.342.216.342.27V.594h.072c.09,0,.234.036.414.036.09-.036.09-.162.216-.18a.018.018,0,0,0,.018.018c.018,0,.018-.054.036-.054a.126.126,0,0,1,.072.036c.162-.036.216-.18.216-.45C102.8-.216,102.762-.414,102.744-.612Z" transform="matrix(0.995, -0.105, 0.105, 0.995, 1424.413, 1083.874)" fill="#3351f7"/>
    </g>
    <ellipse id="楕円形_3" data-name="楕円形 3" cx="87.5" cy="87" rx="87.5" ry="87" transform="translate(188 188)" fill="#3351f7" opacity="0.791"/>
    <circle id="楕円形_7" data-name="楕円形 7" cx="66.5" cy="66.5" r="66.5" transform="translate(209 209)" fill="#3351f7"/>
    <g id="グループ_305" data-name="グループ 305" transform="translate(227.001 253.661)">
      <path id="パス_14" data-name="パス 14" d="M-42.38-5.491v2.983h5.605V0H-45V-13.3h8.132v2.508h-5.51v2.831h5.035v2.47ZM-29-4.864-25.527,0h-2.831L-30.41-2.888-32.481,0h-2.831l3.477-4.845L-35.16-9.5h2.831l1.919,2.679L-28.491-9.5h2.812Zm10.982-4.9A4.283,4.283,0,0,1-14.753-8.3,5.013,5.013,0,0,1-13.385-4.75a4.994,4.994,0,0,1-1.368,3.572A4.27,4.27,0,0,1-18.021.266,3.677,3.677,0,0,1-21.1-1.121V3.8H-23.55V-9.5H-21.1v1.121A3.677,3.677,0,0,1-18.021-9.766Zm-2.337,6.954a2.549,2.549,0,0,0,1.881.741A2.549,2.549,0,0,0-16.6-2.812a2.625,2.625,0,0,0,.76-1.938,2.562,2.562,0,0,0-.76-1.919,2.515,2.515,0,0,0-1.881-.76,2.515,2.515,0,0,0-1.881.76A2.6,2.6,0,0,0-21.1-4.75,2.661,2.661,0,0,0-20.358-2.812Zm18.7-.931H-8.825A2.418,2.418,0,0,0-6.146-1.957a2.507,2.507,0,0,0,2.128-.95l1.976,1.14A4.712,4.712,0,0,1-6.184.266,5.111,5.111,0,0,1-9.965-1.159,4.868,4.868,0,0,1-11.39-4.75,4.92,4.92,0,0,1-9.984-8.322a4.78,4.78,0,0,1,3.61-1.444A4.462,4.462,0,0,1-2.935-8.322,4.994,4.994,0,0,1-1.567-4.75,6.756,6.756,0,0,1-1.662-3.743Zm-7.2-1.9h4.845a2.393,2.393,0,0,0-.845-1.425,2.391,2.391,0,0,0-1.511-.494,2.578,2.578,0,0,0-1.634.5A2.406,2.406,0,0,0-8.863-5.643ZM3.354-9.5v1.634a2.532,2.532,0,0,1,1.1-1.358A3.414,3.414,0,0,1,6.242-9.69v2.736A2.792,2.792,0,0,0,4.228-6.5a2.186,2.186,0,0,0-.874,1.957V0H.9V-9.5Zm6.289-1.14a1.442,1.442,0,0,1-1.054-.446,1.442,1.442,0,0,1-.446-1.054A1.473,1.473,0,0,1,8.588-13.2a1.427,1.427,0,0,1,1.054-.456,1.449,1.449,0,0,1,1.073.456,1.473,1.473,0,0,1,.447,1.064,1.442,1.442,0,0,1-.447,1.054A1.464,1.464,0,0,1,9.642-10.64ZM10.877,0H8.427V-9.5h2.451ZM23.113-3.743H15.95a2.418,2.418,0,0,0,2.679,1.786,2.507,2.507,0,0,0,2.128-.95l1.976,1.14A4.712,4.712,0,0,1,18.591.266,5.111,5.111,0,0,1,14.81-1.159,4.868,4.868,0,0,1,13.385-4.75a4.92,4.92,0,0,1,1.406-3.572A4.78,4.78,0,0,1,18.4-9.766,4.462,4.462,0,0,1,21.84-8.322,4.994,4.994,0,0,1,23.208-4.75,6.756,6.756,0,0,1,23.113-3.743Zm-7.2-1.9h4.845a2.393,2.393,0,0,0-.846-1.425,2.391,2.391,0,0,0-1.51-.494,2.578,2.578,0,0,0-1.634.5A2.406,2.406,0,0,0,15.912-5.643ZM30.125.266a4.875,4.875,0,0,1-3.591-1.444A4.885,4.885,0,0,1,25.109-4.75a4.885,4.885,0,0,1,1.425-3.572,4.875,4.875,0,0,1,3.591-1.444,4.923,4.923,0,0,1,2.527.665,4.422,4.422,0,0,1,1.729,1.786L32.272-6.08a2.15,2.15,0,0,0-.865-.931,2.512,2.512,0,0,0-1.3-.342,2.455,2.455,0,0,0-1.824.731A2.552,2.552,0,0,0,27.56-4.75a2.6,2.6,0,0,0,.722,1.862,2.472,2.472,0,0,0,1.824.722,2.605,2.605,0,0,0,1.32-.333,2.094,2.094,0,0,0,.865-.921L34.419-2.2A4.633,4.633,0,0,1,32.642-.4,4.939,4.939,0,0,1,30.125.266ZM45.552-3.743H38.389a2.418,2.418,0,0,0,2.679,1.786,2.507,2.507,0,0,0,2.128-.95l1.976,1.14A4.712,4.712,0,0,1,41.03.266a5.111,5.111,0,0,1-3.781-1.425A4.868,4.868,0,0,1,35.824-4.75,4.92,4.92,0,0,1,37.23-8.322a4.78,4.78,0,0,1,3.61-1.444,4.462,4.462,0,0,1,3.439,1.444A4.994,4.994,0,0,1,45.647-4.75,6.756,6.756,0,0,1,45.552-3.743Zm-7.2-1.9H43.2a2.393,2.393,0,0,0-.846-1.425,2.391,2.391,0,0,0-1.51-.494,2.578,2.578,0,0,0-1.634.5A2.406,2.406,0,0,0,38.351-5.643ZM-30.913,9.7h5.282a6.031,6.031,0,0,1,4.56,1.919,6.526,6.526,0,0,1,1.843,4.731,6.526,6.526,0,0,1-1.843,4.731A6.031,6.031,0,0,1-25.631,23h-5.282Zm2.622,10.792h2.66a3.7,3.7,0,0,0,2.812-1.14,4.263,4.263,0,0,0,1.083-3,4.153,4.153,0,0,0-1.083-2.983,3.673,3.673,0,0,0-2.812-1.159h-2.66Zm20.8-1.235h-7.163a2.418,2.418,0,0,0,2.679,1.786,2.507,2.507,0,0,0,2.128-.95l1.976,1.14a4.712,4.712,0,0,1-4.142,2.033,5.111,5.111,0,0,1-3.781-1.425,4.868,4.868,0,0,1-1.425-3.591,4.92,4.92,0,0,1,1.406-3.572,4.78,4.78,0,0,1,3.61-1.444,4.462,4.462,0,0,1,3.439,1.444A4.994,4.994,0,0,1-7.391,18.25,6.756,6.756,0,0,1-7.486,19.257Zm-7.2-1.9h4.845a2.393,2.393,0,0,0-.846-1.425,2.391,2.391,0,0,0-1.51-.494,2.578,2.578,0,0,0-1.634.5A2.406,2.406,0,0,0-14.687,17.357ZM-3.04,16.2q0,.608,1.729,1.045a8.532,8.532,0,0,1,1.1.313,4.819,4.819,0,0,1,1,.513,2.311,2.311,0,0,1,.788.883,2.732,2.732,0,0,1,.285,1.273,2.627,2.627,0,0,1-1.1,2.261,4.588,4.588,0,0,1-2.717.779,4,4,0,0,1-3.99-2.261l2.128-1.2a1.78,1.78,0,0,0,1.862,1.235q1.311,0,1.311-.817,0-.608-1.729-1.045-.646-.171-1.1-.342a5.612,5.612,0,0,1-.988-.5,2.221,2.221,0,0,1-.807-.855,2.591,2.591,0,0,1-.275-1.225,2.637,2.637,0,0,1,1.026-2.2,4.067,4.067,0,0,1,2.584-.817,4.3,4.3,0,0,1,2.109.523,3.819,3.819,0,0,1,1.5,1.491l-2.09,1.14a1.563,1.563,0,0,0-1.52-.969,1.347,1.347,0,0,0-.789.219A.659.659,0,0,0-3.04,16.2ZM5.415,12.36a1.525,1.525,0,0,1-1.5-1.5A1.473,1.473,0,0,1,4.361,9.8a1.427,1.427,0,0,1,1.054-.456A1.449,1.449,0,0,1,6.489,9.8a1.473,1.473,0,0,1,.446,1.064,1.442,1.442,0,0,1-.446,1.054A1.464,1.464,0,0,1,5.415,12.36ZM6.65,23H4.2V13.5H6.65Zm10.279-8.322V13.5h2.394v9.044a4.068,4.068,0,0,1-1.463,3.363,5.409,5.409,0,0,1-3.5,1.159,4.691,4.691,0,0,1-4.5-2.318l2.09-1.2a2.569,2.569,0,0,0,2.489,1.33,2.6,2.6,0,0,0,1.824-.608,2.224,2.224,0,0,0,.665-1.729V21.518a3.58,3.58,0,0,1-3.04,1.444,4.531,4.531,0,0,1-3.382-1.406A4.889,4.889,0,0,1,9.158,18.1a4.786,4.786,0,0,1,1.368-3.439,4.479,4.479,0,0,1,3.363-1.425A3.58,3.58,0,0,1,16.929,14.678Zm-.76,5.3a2.515,2.515,0,0,0,.76-1.881,2.393,2.393,0,0,0-.76-1.843,2.572,2.572,0,0,0-1.9-.741,2.678,2.678,0,0,0-1.919.741,2.424,2.424,0,0,0-.741,1.843,2.5,2.5,0,0,0,.75,1.872,2.623,2.623,0,0,0,1.91.732A2.609,2.609,0,0,0,16.169,19.979Zm11.419-6.745a3.37,3.37,0,0,1,2.565,1.045,3.985,3.985,0,0,1,1.026,2.888V23H28.728V17.471a1.974,1.974,0,0,0-.5-1.444,1.842,1.842,0,0,0-1.377-.513,1.994,1.994,0,0,0-1.53.6,2.482,2.482,0,0,0-.56,1.757V23H22.306V13.5h2.451v1.064A3.136,3.136,0,0,1,27.588,13.234Z" transform="translate(48 15)" fill="#fff"/>
    </g>
  </g>
</svg>
