<svg xmlns="http://www.w3.org/2000/svg" xmlns:xlink="http://www.w3.org/1999/xlink" width="200" height="200" viewBox="0 0 200 200">
  <defs>
    <clipPath id="clip-path">
      <rect width="126" height="10" fill="none"/>
    </clipPath>
    <clipPath id="clip-thins_icn_03">
      <rect width="200" height="200"/>
    </clipPath>
  </defs>
  <g id="thins_icn_03" clip-path="url(#clip-thins_icn_03)">
    <g id="グループ_255" data-name="グループ 255" transform="translate(-1331 -4801)">
      <g id="長方形_86" data-name="長方形 86" transform="translate(1339 4839)" fill="none" stroke="#c4c4c4" stroke-width="4">
        <rect width="185" height="124" stroke="none"/>
        <rect x="2" y="2" width="181" height="120" fill="none"/>
      </g>
      <g id="長方形_87" data-name="長方形 87" transform="translate(1358 4856)" fill="none" stroke="#c4c4c4" stroke-width="4">
        <rect width="148" height="93" stroke="none"/>
        <rect x="2" y="2" width="144" height="89" fill="none"/>
      </g>
      <g id="長方形_89" data-name="長方形 89" transform="translate(1369 4867)" fill="none" stroke="#c4c4c4" stroke-width="4">
        <rect width="126" height="72" stroke="none"/>
        <rect x="2" y="2" width="122" height="68" fill="none"/>
      </g>
      <g id="リピートグリッド_1" data-name="リピートグリッド 1" transform="translate(1369 4929)" clip-path="url(#clip-path)">
        <g transform="translate(-1368 -4929)">
          <g id="長方形_90" data-name="長方形 90" transform="translate(1368 4929)" fill="none" stroke="#c4c4c4" stroke-width="4">
            <rect width="10" height="10" stroke="none"/>
            <rect x="2" y="2" width="6" height="6" fill="none"/>
          </g>
        </g>
        <g transform="translate(-1339 -4929)">
          <g id="長方形_90-2" data-name="長方形 90" transform="translate(1368 4929)" fill="none" stroke="#c4c4c4" stroke-width="4">
            <rect width="10" height="10" stroke="none"/>
            <rect x="2" y="2" width="6" height="6" fill="none"/>
          </g>
        </g>
        <g transform="translate(-1310 -4929)">
          <g id="長方形_90-3" data-name="長方形 90" transform="translate(1368 4929)" fill="none" stroke="#c4c4c4" stroke-width="4">
            <rect width="10" height="10" stroke="none"/>
            <rect x="2" y="2" width="6" height="6" fill="none"/>
          </g>
        </g>
        <g transform="translate(-1281 -4929)">
          <g id="長方形_90-4" data-name="長方形 90" transform="translate(1368 4929)" fill="none" stroke="#c4c4c4" stroke-width="4">
            <rect width="10" height="10" stroke="none"/>
            <rect x="2" y="2" width="6" height="6" fill="none"/>
          </g>
        </g>
        <g transform="translate(-1252 -4929)">
          <g id="長方形_90-5" data-name="長方形 90" transform="translate(1368 4929)" fill="none" stroke="#c4c4c4" stroke-width="4">
            <rect width="10" height="10" stroke="none"/>
            <rect x="2" y="2" width="6" height="6" fill="none"/>
          </g>
        </g>
      </g>
    </g>
  </g>
</svg>
