<svg xmlns="http://www.w3.org/2000/svg" xmlns:xlink="http://www.w3.org/1999/xlink" viewBox="0 0 420 140">
  <defs>
    <clipPath id="clip-about_handwrite">
      <rect width="420" height="140"/>
    </clipPath>
  </defs>
  <g id="about_handwrite" clip-path="url(#clip-about_handwrite)">
    <g id="グループ_349" data-name="グループ 349" transform="translate(4550.838 -2373)">
      <path id="パス_11" data-name="パス 11" d="M-262.262-4.323l1.834-1.834q2.489-.524,8.253-1.834t8.908-1.965l7.86-1.441q4.847-.917,9.039-1.375t8.384-.59l-1.834,1.834q-2.62.917-5.436,2.031t-3.733,1.375l-2.489.917q-1.441.524-1.7.655l-1.441.262a11.618,11.618,0,0,1-1.965.458,25.123,25.123,0,0,0-2.751.59l-4.192.786q-2.1.524-6.026,1.441l-8.384,2.1-12.838,3.144L-284.4,5.633l-12.576,3.275q-9.563,2.358-13.755,3.537l-12.576,3.537q-8.384,2.227-13.493,3.93l-12.314,3.93q-7.205,2.358-13.362,4.716l-12.314,4.716q0,2.489.524,2.751t3.013-.655q1.965-.786,3.406-1.244T-363,32.75q3.144-.655,7.205-1.31,7.205-1.048,22.2-3.8t22.859-3.93q50.435-7.467,75.325-10.087,65.5-6.943,132.048-9.432Q-36.811,1.834,44.278,1.834L42.444,3.668q-81.089,0-147.7,2.489t-131.982,9.3Q-262,18.078-312.566,25.545q-7.86,1.179-22.859,3.93t-22.2,3.8a86.635,86.635,0,0,0-15.589,3.93q-2.489.917-2.882.524-.524-.262-.524-3.144V34.06l1.834-1.834q6.157-2.62,12.445-4.978t13.493-4.716l12.576-4.061q5.24-1.7,13.886-4.061l12.576-3.668q4.061-1.179,13.886-3.668l12.838-3.144L-269.205.524q11.135-2.751,13.1-3.275,7.729-1.965,13.362-3.209t7.009-1.507q1.375-.262,3.471-.786a26.058,26.058,0,0,0,3.078-.917q.982-.393,5.7-2.1a96.619,96.619,0,0,0-10.283,1.179q-5.568.917-8.712,1.572l-10.48,2.227Q-260.3-4.716-262.262-4.323ZM-54.5-2.62l1.834-1.834A82.317,82.317,0,0,1-34.584-9.628a139.159,139.159,0,0,1,17.226-2.1q7.139-.327,18.8-.327L-.393-10.218q-11.659,0-18.8.328a139.158,139.158,0,0,0-17.226,2.1A82.317,82.317,0,0,0-54.5-2.62Z" transform="matrix(0.995, -0.105, 0.105, 0.995, -4178.105, 2427.394)" fill="#1c1c1c"/>
      <path id="パス_10" data-name="パス 10" d="M-146.479-13.588c.086,0,.172.172.258.172.129,0,.3-.258.43-.258.043,0,.043,0,.086.043.6.516,1.29.172,1.849.774.473.473,1.419.129,1.677.129.516.215,1.72.989,2.8.688.43-.172.559-.516.645-.516.086-.774-.387-1.075-.6-1.505a.325.325,0,0,1,.043-.172.545.545,0,0,1-.258.043c-.387,0-.516-.3-.774-.3s-.3.129-.516.129c-.086-.172-.989-.43-1.2-.473-.129-.086-.043-.129-.086-.129s-.172.086-.172.129a18.7,18.7,0,0,0-2.236-.258,11.287,11.287,0,0,0-2.322-.258c-.172,0-.215-.129-.473-.129a1.038,1.038,0,0,0-.344.129c-.129,0-.3-.215-.516-.215a.545.545,0,0,0-.258-.043c-.344,0-.645.129-.946.129-.258,0-.3-.086-.559-.086-.086,0,0,.086-.086.086a.188.188,0,0,1-.129-.043v-.043c-.258,0-.473.086-.688.086a.679.679,0,0,1-.6-.731c0-.129.387-.086.6-.086a8.328,8.328,0,0,1,2.408-2.322c.129-1.032,1.376-1.548,1.419-2.236a.457.457,0,0,0-.043-.344,1.506,1.506,0,0,0,.559-.688.732.732,0,0,1,.043-.3c.043-.258.129-.344.172-.6a3.046,3.046,0,0,1-.043-.6c0-.086.129-.172.129-.258.043-.043-.043-.086-.086-.086.043-1.376-.43-2.107-.3-3.225a.388.388,0,0,1,.043-.215c-.258-.129-.6-.43-.6-.516v-.215a21.509,21.509,0,0,1-1.548-2.064c-.043,0-.086.043-.129.043a1.127,1.127,0,0,1-.6-.258c-.215-.215-.774-.172-1.118-.387-.129,0-.215-.215-.344-.215h-.172a3.168,3.168,0,0,0-.6-.172.545.545,0,0,0-.258.043c-.559-.172,0-.516-1.419-.516-.774-.731-2.537-.344-3.655-.731a5.289,5.289,0,0,0-1.2-.086h-1.247a5.443,5.443,0,0,0-1.118-.172,12.683,12.683,0,0,0-1.677.172h-.473c-.215,0-.258.086-.473.086-.129,0-.086-.086-.215-.086,0,0-.086,0-.086.043l.043.043a.15.15,0,0,1-.086.043c-.043,0-.129-.043-.172-.043-.129.043-.172.086-.258.086-.129,0-.172-.086-.473-.086-.172,0-.172.129-.387.129-.086,0-.086-.129-.086-.129-.215,0-.043.129-.344.129h-.6c-.344,0-.6.258-.989.258h-.43c-1.2,0-1.247.473-1.677.473-.129,0-.3-.129-.344-.129-.043.3-.774.172-.86.516a6.015,6.015,0,0,0-.946.344h-.215a6.362,6.362,0,0,0-2.193.989c-.258.086-1.376.215-1.505,1.2-.215,1.677,1.118,1.161,1.161,2.064h.172c.43,0,1.075.946,2.107,1.118v-.086c0-.258-.172-.387-.129-.516,0-.043.086-.086.3-.129.129.043.215.086.215.129-.043.129-.3.258-.3.473a1.453,1.453,0,0,0,.86-.258,3.122,3.122,0,0,1-1.118-1.634c.043-.473.645-.516.86-.774a.545.545,0,0,0,.043-.258,9.852,9.852,0,0,1,.3-1.2c0-.172.473-.258.473-.387.043,0,.129.043.129.086v.043c.473-.129.473-.387.989-.387a1.639,1.639,0,0,1,.559.086,1.05,1.05,0,0,1,.3-.043h.129a17.357,17.357,0,0,0,3.268-.516c.172,0,.129-.215.258-.215a.468.468,0,0,0,.215.043c.215,0,.387-.043.559-.043.3,0,.559.086.817.086.129,0,.3-.086.516-.086a10,10,0,0,0,1.161.129c.473,0,.774-.129,1.161-.129.043,0,.043.086.129.086.043,0,.086-.086.129-.086.172,0,.215.086.3.086.129,0,.129-.043.172-.043s.086.086.129.086.129-.043.172-.043a5.185,5.185,0,0,0,1.419.215,1.639,1.639,0,0,0,.559-.086c.043,0,0,.129,0,.129h.6a5.5,5.5,0,0,1,.989.258c.473.086.86.086,1.118.129h.6a4.276,4.276,0,0,1,1.419.473,12.883,12.883,0,0,0,1.505.6c-.559,0,1.161.344,1.075,1.161v.172h.129c.3,0,.946.989,1.2,1.462a.158.158,0,0,0-.043.129,3.98,3.98,0,0,0,.172.989.823.823,0,0,1-.172.344c.129,0,.086.258.086.3a1.613,1.613,0,0,0-.043.43v.43c0,.043-.086.086-.129.258,0,.043.043.129.043.172a5.872,5.872,0,0,0-.559,1.333c0,.344-.516.774-.688.989l-.688.946c-.6.731-.946.774-1.5,1.72h-.172c-.3,0-.258.258-.6.258-.129.387-.946.645-.946.774v.129c-.043.344-.817.344-1.032.43-.043,0-.043.258-.215.258h-.215c-.258,0-.6.215-.731.215a2.825,2.825,0,0,1-1.376.258c0-.172.086-.387.086-.559a2.214,2.214,0,0,0-.043-.774.669.669,0,0,1,.387-.129h.086c.129-.817.774-1.29.86-2.064,0-.172-.129-.387-.086-.559.043-.043.387-1.032.559-1.29.086-.215.43-.086.43-.516v-.258c0-.129.258-.3.3-.6v-.387c0-.043.043-.129.043-.172h.086c.258,0,.43-1.118.731-1.118.129.043.172.129.258.129a8.267,8.267,0,0,1,.559-.731,1.317,1.317,0,0,0-.043-.731c.215-.129.258-.387.344-.731.129-.3-.688-.989-1.376-.946-.215.3-.817.258-.9.688a.686.686,0,0,0,.129.344.668.668,0,0,0-.43.559.386.386,0,0,0,.086.387,5.268,5.268,0,0,0-1.591,2.451c0,.129-.129.086-.129.129-.258.559,0,.86-.516,1.333v.172a13.41,13.41,0,0,1-.6,1.763v.258c-.3.129-.258.6-.559.731a.259.259,0,0,0-.043.172c-.043.215.086.344.086.43-.387,0-.258.516-.43.516a1.069,1.069,0,0,1,.043.344c-.043.6-.645,1.118-.817,1.72.172.172,0,.731,0,1.075-.172.3-.43.559-.43.817,0,.129.043.258.043.387-.129.172-.387.086-.387.3v.086c-.473,1.247-.516,2.494-1.032,3.655a3.271,3.271,0,0,0-.344.9,2.645,2.645,0,0,1-.043.559c-.559.731-.258,1.634-.86,2.322.129.086.129.258.129.473a14.483,14.483,0,0,1-.6,2.064,4.237,4.237,0,0,0,.086.731c-.129.258-.344.344-.344.6-.043.258.086.3.086.516h-.086c-.258,0-.129.559-.387.6,0,.215.043.3.043.43V.516a.539.539,0,0,0-.043.387c0,.215-.129.43-.129.645-.086.688.731.946.774.946.989,0,1.677-.989,1.935-1.161.043-.43-.387-.387-.43-.731.258-.086.215-.387.3-.6-.129-.258.043-.817-.129-1.075A.114.114,0,0,0-161.4-1.2c0-.043.043-.129.043-.172,0-.172.258-.172.258-.344.086-.43-.258-.817-.215-1.376a2.692,2.692,0,0,1,.731-1.032,3.476,3.476,0,0,0-.043-.688.523.523,0,0,1,.258-.43c-.129,0-.129-.129-.086-.258,0-.086.043-.129.043-.215,0-.129,0-.215-.086-.258a2.082,2.082,0,0,0,.3-.774c.043-.258-.043-.3-.043-.473V-7.31a6.331,6.331,0,0,1,.688-1.806.265.265,0,0,1-.043-.3c.043-.6.559-1.032.6-1.376a2.072,2.072,0,0,1,0-.516c.043-.215.3-.172.3-.387,0,0-.172-.129-.129-.258a2.271,2.271,0,0,1,.645-.731,1.734,1.734,0,0,1,0-.473c0-.172.043-.344.258-.344a2.044,2.044,0,0,0,.946.258c.473,0,.688-.258.9-.258.086,0,.129.043.215.086h.043c.129,0,.129-.086.258-.086.215,0,.3.129.516.129s.344-.129.473-.129c.043,0,.086.043.172.086a1.577,1.577,0,0,1,1.29-.473c.258,0,.516.129.817.129.129,0,.215-.129.3-.129.172,0,.129.129.344.129.043,0,.129-.129.129-.129.129,0,.129.129.258.129.215,0,.774-.172,1.075-.172a6.986,6.986,0,0,1,.817.172c.172,0,.6-.129.731-.129h.043C-148.5-13.674-146.952-13.588-146.479-13.588Zm34.4,7.482c0-.086.473-.387.559-.473,1.591-1.376,2.15-2.021,2.15-2.193l.9-1.376c.129,0,.6-.6.645-.645.043-.344.387-.258.387-.473,0-.129-.043-.344-.043-.473,0-.043,0-.043.043-.086-.473,0-.344-.516-.86-.043-.043.043-1.333,1.978-1.978,2.107-.258.172-.172.774-.516.774-.129,0-.215-.129-.387-.129-.043.172-.989,1.29-.946,1.29-.043,0-.129-.043-.172-.043v.086c0-.086-2.666,1.978-2.666,2.322-.086.387-.215.3-1.462.9,0,.516-.645.258-2.408,2.021a1.862,1.862,0,0,1-.215-.043,9.57,9.57,0,0,0-1.161.6c-.043,0-.129-.043-.172-.043a1.522,1.522,0,0,1-.9.516c-.516-.215-.688-.688-.688-1.333,0-.172-.344-.258-.344-.43a3.165,3.165,0,0,1-.3-1.419c0,.086.344-1.29.344-1.29-.043-.258.258-1.032.258-1.29a3.041,3.041,0,0,1,.086-.516c0-.043-.043-.043-.043-.129.086,0,.516-.817,1.849-2.236.9-.344.516-.6.9-1.333.688-.172.731-1.032,1.462-1.2a.259.259,0,0,1-.043-.172c0-.473.688-.3.688-.9a4.162,4.162,0,0,1-.086-.516c0-.215.516-.516.516-.774,0,.043,1.72-1.591,1.72-1.935,0-.43.559-.473.946-2.021a6.181,6.181,0,0,0,1.419-3.053,1.191,1.191,0,0,0-.043-.387c.344,0,.645-.817.645-.774,0-.258-.258-.258-.258-.559,0-.129.774-.3.817-.731a.259.259,0,0,1-.043-.172c0-.258.215-.473.258-.774.129-.6-.086-1.591.387-2.064,0-.387-.043-.559-.516-1.376a.15.15,0,0,1-.086.043.15.15,0,0,1-.043-.086c0-.043.043-.129.043-.172-.086,0-.172.043-.172-.086,0-.043.043-.129.043-.172h-.086c-.043,0-.086,0-.086-.086,0-.043.043-.129.043-.172a.15.15,0,0,1-.086.043c-.086,0-.043-.086-.043-.172-.043.172-.43-.559-.86-.559-.86,0-2.279.817-2.279,1.806a1.934,1.934,0,0,0,.086.344c-.946.086-1.161.946-1.462,1.247-.043.043-.3.043-.344.129a11.379,11.379,0,0,1-.6,1.548c-.645.129-.559.946-1.118,1.118a.468.468,0,0,1,.043.215c0,.129-1.978,3.784-2.107,4.515,0,.043-1.763,2.279-1.763,4.214,0,.086.043.215.043.3-.817.215-.774,3.741-1.677,4.128v.817c0,.344-.172.086-.172.258,0,.043.043.129.043.172-.344.9-.645,1.2-.645,1.419,0-.129-.817.731-.774.731-.086,0-2.752,2.279-2.752,2.236a.15.15,0,0,0,.043.086.15.15,0,0,1-.086.043c-.043,0-.129-.043-.172-.043-.3.258-.731.43-.731.559a1.064,1.064,0,0,1-.731.43c-.43.86-1.634.688-2.451,1.72-.215,0-.258-.172-.473-.172-.172,0-.559.516-1.161.516a2.009,2.009,0,0,1-.731-.129.158.158,0,0,0,.043-.129c0-.774-.774-1.462-.3-2.279,0-.043-.473-.645-.473-.86.6-.129.387-1.075.731-1.462-.172-.086-.172-.387-.258-.6.129-.344.387-.258.387-.86.817,0,.86-2.064,1.333-2.064.172,0,.129-.086.129-.215a3.385,3.385,0,0,0,.9-1.591,2.029,2.029,0,0,0-.774-1.849c-.387,0-1.118-.6-1.247-.6a6.492,6.492,0,0,0-2.58.946c-.688-.387-1.161-1.2-1.978-1.462a4.646,4.646,0,0,1-1.032-.344c-.172.3-.774.258-1.161.344.129.645-1.376.6-2.494,1.591-.129.043-1.634,1.032-1.72,1.978a1.151,1.151,0,0,0-.473.086c0,.731-1.548,1.2-1.419,1.892a9.064,9.064,0,0,0-.6.946c-.043,0-.086-.043-.129-.043.129.774-.817,1.634-.731,2.064a2.664,2.664,0,0,1-.6,1.376l.086.258c.043.387-.215.43-.172.559.043.172.129.215.215.516-.344,0-.3.473-.258.6,0,.086.172.215.172.258-.344,0-.344.387-.258,1.075A2.8,2.8,0,0,0-146.436.129a1.139,1.139,0,0,0,.6-.129.6.6,0,0,0,.43.215c.3,0,.688-.774,1.161-.774.473-.731.774-.989,1.075-1.075.688,0,.3-.172.6-.516.215-.645-.129-1.462.817-1.462.3,0,.645-.946.774-.946.043,0,.129.043.172.043-.043-.086,0-.129,0-.172-.129-.731.946-.688.9-.946,0,.086.731-1.075.86-1.075-.043,0,.516-.473.731-.731a1.4,1.4,0,0,1,1.032-.387c0,.043.043.086.043.129.043.129-.086.258-.086.344,0,.172.215.258.215.387a8.668,8.668,0,0,0-.6,3.4c0,.3.129.344.129.43s-.215.086-.215.3c-.129-.086.731,1.161.731,1.376,0,.129-.043.3-.043.43,0,.043.989.731.989.817,0,.129-.129.3.473.3a6.639,6.639,0,0,0,1.333-.215.647.647,0,0,0,.473.172,2.717,2.717,0,0,0,1.462-.688.669.669,0,0,0,.387.129c-.086,0,1.118-.559,1.161-.6.516.043.258-.3.688-.387h-.043a11.179,11.179,0,0,0,1.677-.946c.129-.129.172-.344.387-.387A4.7,4.7,0,0,0-127-3.655c0-.086-.043-.086.043-.086.043,0,.645-.215.774-.6,0-.086.6-.3.645-.387.043,0,.344-.86.688-.86s.387.473.387.6c0,.258-.172.9-.172,1.161,0,.215.43.344.43.6,0,.172-.172.3-.172.516,0,.688.473,1.032.516,1.333.172,1.161,1.72,1.849,2.408,1.849A3.662,3.662,0,0,0-120.12.215c.172,0,.3.043.43.043.645,0,.946-1.075,1.935-1.2-.043-.043-.043-.172-.043-.215,0-.215.215-.258.258-.473,1.849-.258,2.15-2.236,3.354-2.236a.15.15,0,0,0-.043-.086c0-.473.559-.258.559-.6V-4.73c0-.086,0-.215.129-.215.086,0,.172.086.215.086A11.38,11.38,0,0,0-112.079-6.106Zm-26.1-6.278a.821.821,0,0,1,.645-.215c.344,0,.387.688.473.989.086,0-1.075-.043-1.032.989-1.161.215-1.161,1.892-1.935,1.892.086,0-.817.688-.731,1.032-.043.172-1.376.946-1.935,1.72.129.6-.86,1.2-1.29,2.021-1.29,0-.989,1.419-2.193,1.419-.43.215-.43.731-.989.774-.043-.129-.172-.129-.215-.258,0-.043.258-.129.258-.129-.043-.172-.172-.258-.215-.43a2.593,2.593,0,0,1,.43-.86.842.842,0,0,1-.258-.516c-.043-.172.387-.43.387-.731a2.53,2.53,0,0,0,.516-1.978c-.043-.172.9-.86.9-1.032-.043-.172.344-.817.387-.86a.727.727,0,0,1-.086-.215c-.086-.43,1.419-1.763,1.634-1.763.43,0,1.2-2.107,2.924-2.107.258,0,.215.387.516.387.172-.215.6-.215.731-.516C-139-12.556-138.309-12.728-138.18-12.384Zm24.51-13.631c.215,0,.258.129.43.129a.325.325,0,0,0,.172-.043v.086a18.869,18.869,0,0,1-1.591,4c0,.086-.258.086-.258.172s.129.043.172.086a6.7,6.7,0,0,1-.258.645c-.043.043-.086.344-.129.344a2.62,2.62,0,0,0-.946,1.892c0,.043.043.129.043.172-.473,0-.86,1.032-.86,1.5a17.623,17.623,0,0,0-1.333,1.677,1.253,1.253,0,0,0-.731,1.247c.043,0-.774-.129-1.118,1.032,0,0-.43,1.548-1.161,1.548a3.816,3.816,0,0,1,.086-.645,2.142,2.142,0,0,1,.688-1.462,2.184,2.184,0,0,1-.129-.731c.344,0,.258-.731.258-.774,0-.172.43-.946.86-2.021.559-.129.086-.946.473-1.2-.172-.43.473-.6.387-1.032.516-.645,1.075-.473,1.075-1.677,0-.043.387-.688.387-.774.473-1.075,1.419-1.763,1.978-2.8A8.042,8.042,0,0,0-113.67-26.015ZM-102.146-1.5A8.829,8.829,0,0,0-100-3.1c0-.043.129-.129.172-.172v-.086l.043.086c.172.043,0-.258.215-.172,0,0,.129-.086.129-.043.043-.3.559-.387.645-.559.043.129.86-.86,1.247-1.2.215-.129.258-.516.6-.516v-.129c0-.129.215-.043.215-.258.043.086.086.043.086.043.043,0,.043-.043.043-.172.086-.258.387-.215.559-.344.086-.086.086-.473.215-.43,0,0,.172.086.129,0l.043-.086c0-.172.43-.516.688-.559V-7.74c.043-.344.43-.43.43-.559h.086a5.263,5.263,0,0,0,.774-.989v-.129c.043,0,.129-.172.172-.129-.043-.129.215-.172.3-.387-.043,0,0-.086.043-.086.559-.215.43-.9.9-1.075,0-.688.731-.387.774-.688,0-.172-.043-.043,0-.344,0-.172.086-.172.215-.129.043-.043.6-.817.688-.86V-13.2a.975.975,0,0,0,.172.043c.086,0,.129-.215.215-.172.215-.344.559-.473.387-.516-.172-.129.172-.387.3-.559.215-.258.645-.516.731-.645s.043-.258.086-.473c.688-.172-.172-.043.43-.688.086-.774-.172-.9-.559-.86-.129-.086-.258-.129-.3-.086v.129a.133.133,0,0,0-.086.043c-.172-.172-.6.559-.731.516l-.043.043c.043.215-.172-.043-.129.129a6.205,6.205,0,0,1-.473.817l-.387.6c-.258.344-.043.645-.645.9a3.489,3.489,0,0,1-.258.344c-.043.086-1.376,1.634-1.376,1.677a.259.259,0,0,0,.043.172.15.15,0,0,1-.043.086c-.043,0-.086.043-.129.043a.69.69,0,0,0-.473.6c-.086.043-1.032.86-.989,1.032,0,.043-.129.086-.129.086-.043.172-.258.3-.3.344-.086.129-.215.516-.258.516h-.129l.043.043a.468.468,0,0,1-.043.215V-8.9c0-.043-.043-.043-.043,0-.043.086,0,.129-.086.129-.129-.086-.215.344-.344.43h-.086a2.425,2.425,0,0,1-.3.043c-.215.473-.731.774-1.118,1.118-.043,0-.043.3-.215.258a.15.15,0,0,1-.086.043h-.043c-.473.387-.516.559-.9.731a.15.15,0,0,0-.043.086c-.086.6-.516.3-.989,1.118,0-.086-1.161.946-2.064,1.462,0,.043-.731.9-1.2.9a2.024,2.024,0,0,0-.387.129l-.473.258c0,.086-.387.172-.43.172a.433.433,0,0,1-.129-.043l-.043.043c0,.043-.258.129-.258.172h-.215c-.129,0-.215.344-.387.344,0-.172-.043-.215-.129-.215-.258,0-.989.344-1.849.516-.172,0-.43.043-.731.043a3.508,3.508,0,0,1-.774-.043c.129.043-.688-.473-.774-.817.086-.086-.172.043-.172-.043a7.45,7.45,0,0,1-.172-.86,10.793,10.793,0,0,0,1.2-.9c.129-.086.473-.043.6-.086v-.129h.172c.086,0-.043-.129.086-.129h.215a8.683,8.683,0,0,0,1.376-1.075s1.075-1.118,1.333-1.118h.172c.172,0,.6-.516.645-.6.387-.43.6-1.161,1.419-1.161V-8.3c0-.043,1.29-1.247,1.247-1.247h.086c.3-.516-.215-.9.559-.9h.172c0-.387.086-.516.086-.86v-.172h.129c.129,0,.215-.129.215-.3V-12.9c0-.043.043-.086.043-.172-.215-.172-.516-.258-.688-.43,0-.559-1.376-2.322-2.064-2.322a1.081,1.081,0,0,0-.645.172.464.464,0,0,1-.344-.172c-.172,0-.172.172-.258.172s-.172-.086-.215-.086a4.516,4.516,0,0,0-2.15,1.333c-.86.774-2.408,1.763-2.408,2.881a1.863,1.863,0,0,1-.215-.043c-.344,0-.43.946-1.161,1.075-.043.215-.344,1.333-.817,1.333v.172a.854.854,0,0,1-.172.473c0,.086.043.086.043.172h-.258c-.086,0-.086.559-.129.774,0,.344-.387.688-.387.817,0,.086.086.172.086.215A5.538,5.538,0,0,0-112.6-4.6v.559c0,1.161.3,1.462.086,2.021-.043.344.172.3.258.387.172.172.129,1.075.43,1.075.387,0,.473.6.946.731.344.043.387.3.688.43V.559c0-.129.086-.129.215-.129s.258,0,.258.129V.6A8.09,8.09,0,0,1-108.3.817c.129-.172.473-.172.559-.387a.375.375,0,0,0,.344.172,2.556,2.556,0,0,0,.731-.086.433.433,0,0,0,.129.043c.258,0,.43-.344.645-.344h.172a1.951,1.951,0,0,0,.43-.043h.172V.086h.043c.086,0,.6-.172.645-.172a.922.922,0,0,1,.645-.387c.086,0,1.075-.344.989-.43S-102.189-1.5-102.146-1.5Zm-1.419-11.868s.129,0,.129-.043c0-.129.043.516.086.344.387.129.989.3.989.688,0,.172-.129.3-.129.516a1.367,1.367,0,0,1,.129.387c0,.215-.43.258-.43.731,0,.387-1.29.688-1.5,1.677h-.215c-.344,0-.731.473-.989.731a18.314,18.314,0,0,1-1.935,1.677c-.387.215-1.462,1.548-2.193,1.548a2.839,2.839,0,0,1-.6-.043,6.394,6.394,0,0,1,.258-1.462c-.043-.172.6-.731.6-.9,0-.215.086-1.333.473-1.333.3,0,.473-.086.473-.559v-.215c0-.215.344-.043.344-.387,0-.172-.043-.3-.043-.516,0-.172.387-.43.516-.559.516,0,.473-.43.946-.387.387-.258.86-1.29,1.247-1.29.215,0,.172-.086.387-.086.215-.043.3,0,.516-.129.129-.129.258-.086.344-.129.129-.129.043-.344.172-.473C-103.824-13.674-103.824-13.2-103.565-13.373Zm33.927-3.483c0-.043.344-.086.387-.086h.172c.043,0,.043-.129.086-.129.129,0,0,.129.3.129a15,15,0,0,0,2.107-.344c.086,0,.3.086.3.043.6,0,.731-.258,1.29-.258h.731c-.172,0,1.118-.387,1.118-.731a.534.534,0,0,0-.516-.43c-.344,0-.817.258-1.118.258-.215,0-.387-.086-.6-.086a1.753,1.753,0,0,0-.3.086h-.344c-.344,0-.688.172-.989.172a2.181,2.181,0,0,1-.387-.086c-.3,0-.172.086-.3.086a.445.445,0,0,1-.172-.043c-.129,0-.215-.129-.3-.129-.172,0-.215.129-.387.129-.215,0-.688.043-.86.043-.258,0-.516-.043-.774-.043s-.817.086-1.2.086a2.416,2.416,0,0,1-.559-.086,1.951,1.951,0,0,1-.344.086.639.639,0,0,1-.645-.387c0-.129.215-.172.258-.258a1.411,1.411,0,0,1,.989-1.247v-.086c0-.817,1.29-.86,1.29-1.72v-.172c0-.215.731-1.075.774-1.462,0-.086-.172-.3-.172-.473,0-.043.043-.086.043-.129-.6-.172-.946-1.247-1.548-1.333-.043,0-.043,0-.043-.043v-.043l-.559-.215c-.086.215-.946.258-.946.989,0,.043.043.086.043.129,0,0-.6.645-.6,1.032a5.055,5.055,0,0,0-1.5,1.677v.129c-.6,0-.559.688-.731,1.075a2.658,2.658,0,0,0-1.548,1.591c-.6.3-.9,1.419-1.935,1.505a1.62,1.62,0,0,0-.688-.172,3.084,3.084,0,0,1-.9.215,1.012,1.012,0,0,1-.344-.086.548.548,0,0,1-.473.215c-.215,0-.43-.043-.645-.043-.129,0-.129.086-.3.086s-.172-.086-.3-.086c-.215,0-.258.215-.473.215s-.258-.215-.516-.215c-.3,0-.473.172-.86.215-.215,0-.473-.129-.688-.129-.3,0-.6.086-.817.086-.258,0-.43-.043-.43-.387,0-.645.344-1.806.9-1.806h.129v-.086c0-.344.473-.688.473-.774,0-.043-.043-.086-.043-.129,0-.086.688-.086.688-.387,0-.215-.043-.473-.043-.731,0-.3.043-.516.258-.645.172,0,.3.129.516.129a.636.636,0,0,0,.473-.344c.086-.086.688-.946.946-1.032a.325.325,0,0,1-.043-.172c0-.172.129-.6.344-.6h.172a.393.393,0,0,0,.215-.129c.086-.6.3-.516.3-.688v-.258c0-.086.086-.043.129-.086a4.317,4.317,0,0,0,.172-1.032.6.6,0,0,0-.559-.6h-.129c-.258-.3-.344-.387-.387-.387h-.129c.172-.172-.258-.086-.258-.129a.15.15,0,0,1,.043-.086h-.172c-.043,0-.043,0-.043-.129-.043,0-.086.043-.172.043l-.043-.043v-.086a.188.188,0,0,1-.129.043c-.086,0-.129-.129-.258-.129h-.086c0-.043,0-.086-.086-.086h-.043v.043c0,.086-.215,0-.3.043-.086.086-.946.688-1.118,1.29a2.626,2.626,0,0,0,.129.559c0,.43.043.774-.086.774h-.043c-.387.774-.172,1.247-.9,1.849v.086c0,.688-.3.387-.817,1.849a3.77,3.77,0,0,1-.344.6c0,.043.043.086.043.129-.129.3-.43.473-.43.731v.043c-.215,0-.129.258-.344.258a.092.092,0,0,0-.086.086,1.862,1.862,0,0,0,.043.215,1.826,1.826,0,0,0-.559,1.118c0,.086.043.172.043.258a1.876,1.876,0,0,1-.43.344c0,.6-.86.473-1.333.645-.215-.043-.258-.344-.6-.344a.972.972,0,0,1-.645.215c-.258,0-.516-.043-.817-.043a1.764,1.764,0,0,0-.473.043c-.129-.086,0-.086-.3-.172a5.246,5.246,0,0,1-.817-.215c-.172,0-.258.129-.43.215-.086-.172-.258-.215-.473-.215h-.473c-.215,0-.387-.172-.6-.215-.387,0-.86.086-1.2.086-.258,0-.473-.215-.6-.215-.086,0-.3.043-.387.043-.172,0-.43-.3-.731-.3-.344.344-.9.086-.9.946,0,.817.43,1.161,1.2,1.376a2.952,2.952,0,0,1,.731-.215,2.741,2.741,0,0,1,.387.086c.086,0,.129-.086.3-.086.387,0,.129.258.473.258.172,0,.43-.043.473-.043a9.793,9.793,0,0,0,2.451.215.188.188,0,0,0,.043.129c.086,0,.215-.172.387-.172.043,0,.387.129.43.129s.129-.129.129-.129a3.349,3.349,0,0,0,.9.172c.258,0,.473-.043.645-.043.043,0,.129.086.129.086.129,0,.344-.129.516-.129a.494.494,0,0,1,.473.258.99.99,0,0,1-.387.6c0,.086.043.129.043.172,0,.172-.215.258-.258.344a4.252,4.252,0,0,0-.6,1.634v.172c-.473.3-.86,1.806-.86,1.763a.388.388,0,0,0,.043.215c-.3.258-.43,1.419-.731,1.419a.133.133,0,0,1-.086-.043c0,.043-.043.129-.043.172,0,.086.043.172.043.258-.086.215-.3.387-.3.688v.172c0,.215-.3.215-.3.559a.328.328,0,0,0,.086.215c.043,0-.344.3-.344.43,0,.043.043.129.043.172-.129.516-.3.989-.387,1.548h-.086a4.43,4.43,0,0,0-.473,1.72V-3.1a1.054,1.054,0,0,0-.3.731.6.6,0,0,0,.129.387c-.086,0-.086.043-.086.129v.172c0,.086-.129.086-.129.129,0,.086.129.129.129.172,0,0-.129.086-.129.172v.172c0,.43-.172,1.419-.172,1.462a1.41,1.41,0,0,1,.172.6v.129c.043.086.129.129.129.258v.043c.129,0,.516.43.9.43.43,0,.6-.43,1.118-.43.559,0,.344.344.559.344.86,0,1.29-1.161,1.806-1.247a.258.258,0,0,1-.043-.172c0-.6.86-.559.86-1.118,0-.086-.129-.172-.129-.3a5.722,5.722,0,0,1,.9-.946v-.129a2.48,2.48,0,0,1,.129-.6h.086c.172,0,.043-.3.3-.3,0-.043-.043-.129-.043-.172,0-.258.258-.258.258-.387v-.086c0-.172.387-.43.516-.473,0-.043-.043-.086-.043-.129,0-.215.172-.258.258-.387.817,0,1.075-.9,1.075-1.161,0-.043-.043-.086-.086-.172.344-.3.817-.43.86-.989a.807.807,0,0,0,.645-.9c0-.043,1.591-1.29,1.591-2.107v-.172c.344-.086.688-.774.86-.774v.043c.043,0,.043-.387.258-.387h.086c0-.6.215-.3.215-.6V-12c-.3,0,1.5-.344,1.5-1.677,0-.086-.172-.258-.172-.387a1.718,1.718,0,0,1,.3-.774.391.391,0,0,0,.344.172c.43,0,1.247-.946,1.247-1.2v-.086h.086c.215,0,.172-.3.387-.344a.322.322,0,0,0,.215.043c.129,0,.258-.043.387-.043.172,0,.344.043.387.129a1.626,1.626,0,0,1-.6,1.2v.086c0,.6-.817,1.634-1.634,3.483-.086.129-.559,2.236-.817,2.236v.172a1.712,1.712,0,0,1-.129.688v.129c0,.129-.215.172-.215.344,0,.086.043.172.043.258,0,.172-.129.086-.215.258-.3.9-.516.946-.516,1.419,0,.731-.43.043-.43,2.107v.129c-.516.473-.688,2.623-.688,3.526,0,.258.043.43.043.559s-.172.516-.172.6c0,.215.129.344.129.43,0,.129-.043.258-.043.387,0,.3.344.43.344.516v.129a1.416,1.416,0,0,0,1.247.989c.258,0,.516-.043.817-.043.086,0,.172-.3.387-.3.129,0,.215.172.387.172,0-.086.258-.129.344-.129.172,0,.258.043.387.043A2.5,2.5,0,0,0-76.6,1.978c.516-.43,1.2-.559,1.548-.9V.946c0-.215.215-.172.3-.387-.129,0-.172-.086-.172-.258,0-.086.6-.946,1.2-.946.258,0,.086-.129.516-.43.3-.3.946-1.075,1.548-1.075h.086c.387,0,.86-.473,1.118-1.075,0,.129,1.29-1.548,1.763-1.548h.172c.129,0,.3,0,.3-.129s-.043-.129-.043-.172c0-.215.129-.344.215-.344h.086c.086,0,1.462-1.247,1.548-1.247.344.043.43-1.419,1.333-1.419h.215c-.043-.774,2.021-1.505,2.021-1.978a.042.042,0,0,0-.043-.043c.043-.086.172-.172.172-.258,1.72-1.29,1.2-.817,1.677-1.548.129-.043.172-.559.258-.645-.258,0-.688-.6-.989-.6a16.056,16.056,0,0,0-1.677,1.376c-.172.086-.3.86-.473.86a.891.891,0,0,0-.258-.086,9.165,9.165,0,0,1-.946.9,10.76,10.76,0,0,0-1.462,1.677c-.086.086-1.806,1.462-1.806,1.5,0,.086,0,.258-.043.258h-.129c-.3.215-2.795,1.72-2.795,2.15,0,.473-.774.688-1.978,1.5a4.986,4.986,0,0,1-.9.817c.086,0-1.677.817-1.849,1.333,0,.344-1.5.688-1.72,1.333-.043,0-.129-.086-.215-.086-.172,0-.172.6-.516.688h-.129c-.387,0-.688.387-.989.387-.559,0-.516-.989-.516-.9,0-.344.129-.3.215-.473-.086,0-.129-.3-.129-.344,0-.172.129-.258.129-.344s-.129-.172-.129-.258c0-.043.043-.172.043-.258,0-.043-.258-.172-.344-.344A.316.316,0,0,0-80.3-1.72c0-.172-.086-.344-.086-.6s.215-.215.344-.387a4.487,4.487,0,0,0,.43-1.849c0-.215-.043-.473-.043-.688.129-.172.129-.559.43-.6a.316.316,0,0,1-.086-.258c.043.129.43-3.1,1.333-3.1a.325.325,0,0,1-.043-.172c0-.3.215-.43.215-.774v-.129c.43-.3.516-.946.688-1.505a.133.133,0,0,0,.086.043c.172,0,.043-.258.258-.258h.086v-.172c0-.344.215-.473.215-.86V-13.2c.688-.344.86-1.161,1.333-1.634,0-.043-.043-.129-.043-.172,0-.3.129-.473.129-.731v-.215c.344-.129.3-.559.6-.6a.545.545,0,0,0,.258.043,6.759,6.759,0,0,0,.989-.172c.086,0,.258.129.3.129,0-.172.3-.172.473-.172.258,0,.559.043.817.043s.473-.172.731-.215c.129,0,.172.129.3.129s.129-.129.344-.129C-70.2-16.9-69.81-16.856-69.638-16.856Zm-10.75.688a1.37,1.37,0,0,1,.344.258c0-.043-.43.774-.6.774-.043,0-.086-.043-.129-.043,0,.043-.129.344-.344.344h-.043c0,.215-.129.3-.129.516v.086a2.408,2.408,0,0,0-1.032,1.5.468.468,0,0,0,.043.215c-.129.086-.172.086-.215.086h-.129a.575.575,0,0,0-.215.043.388.388,0,0,1,.043.215c0,.3-.559.3-.559.559,0,.043.043.086.043.129h-.215a7.6,7.6,0,0,0-.516.731v.129c0,.172-.258,0-.387.258v.129c0,.258-.215.215-.215.43-.043-.129-1.118,1.849-2.236,2.494,0,.688-1.333,1.032-1.419,2.064h-.129c-.989,0-1.419,1.462-1.419,1.548a5.466,5.466,0,0,0-2.064,2.236c-.172,0-.215-.129-.344-.129H-92.3V-1.5c0,.086-.129.086-.215.129a.326.326,0,0,1-.086-.172c0-.086.172-.172.172-.3,0-.172-.172-.3-.172-.559V-2.58c0-.086,0-.129-.086-.129.129-.258,0-.9.258-.989a1.191,1.191,0,0,1-.043-.387c0-.6.258-.731.258-1.118v-.258c.129-.559.258-1.72.731-1.849a2.181,2.181,0,0,1-.086-.387c0-.172.258-.215.258-.473a.158.158,0,0,0-.043-.129c.172-.086.258-.258.473-.3,0,.172.258-1.032.516-1.032V-9.89c0-.516.344-.645.516-.989,0-.043-.129-.086-.129-.172-.086.086.516-.6.516-1.075a.15.15,0,0,1-.043-.086s.172-.731.473-.774v-.086c0-.344.129-.516.129-.817v-.129c.258-.086.3-.43.6-.516v-.172c0-.43.258-.645.387-.946.043.086.129.086.215.086.258,0,.559-.129.9-.129.172,0,.344.086.559.086a1.481,1.481,0,0,0,.387-.043c.129,0,.258.043.387.043a2.637,2.637,0,0,1,.946-.215c.172,0,.215.086.258.086a3.32,3.32,0,0,1,.43-.043c.258,0,.559.043.86.043a4.877,4.877,0,0,0,.86-.215c0,.043.086.086.129.129h.817A2.605,2.605,0,0,0-80.388-16.168ZM-76.26-18.1c.129-.172.258-.473.6-.516C-75.916-18.4-75.83-18.1-76.26-18.1Zm7.7,11.438c.043-.043.043-.043,0-.043ZM-64.693-12c-.516,0,.129.817.129.989,0,.3-.258.387-.258.688-.3,1.075-.559,1.118-.559,1.419v.3a10.127,10.127,0,0,0-1.032,1.419c0,.086.086.172.086.3,0,0-.6,1.29-.688,1.376.086.043.129.043.129.215,0,.086-.129.172-.129.172a1.814,1.814,0,0,0,.258.645c-.3.215-.258.817-.387,1.161.516.43,0,1.032.559,1.591,0,.129-.086.172-.086.258a.159.159,0,0,1,.086.129v.172c0,.043,0,.086.043.086a.433.433,0,0,0,.129-.043v.3h.086v.258h.086c.043,0,.043.043.043.129v.172c.9.9.86.559,1.634.946.086,0,.344.344.688.344.258-.043.387-.344.817-.344a8.458,8.458,0,0,0,1.032.129c.6,0,.946-.6,1.634-.6.043,0,.215-.559.43-.6.946,0,.43-.516.817-.731a.212.212,0,0,0,.129.043c.215,0,.688-.215.688-.473,0-.086-.086-.043-.086-.086A2.778,2.778,0,0,1-56.91-3.4c0-.215.215-.129.344-.258,0,.215.817-1.075,1.075-1.118,0-.86.473-.516.688-.731-.215,0,.473-.6.688-.86,0,.258.172-.129.387-.129s.258-.473.387-.473h.086c-.129-.6.516-.387.43-1.118.516-.43.172-1.505.172-1.806,0-.344.387-.3.387-.43,0-.086-.043-.3-.043-.344a.133.133,0,0,1,.043-.086c-.043.086-1.161-.86-.989-.9.215-.129-.258-.129-.258-.344-.43-.6-.387-.043-1.247-.043-.172,0-.473-.387-.559-.559a.732.732,0,0,1-.3.043c-.645,0-.946-1.032-1.591-1.032-.9,0-1.2-.774-2.795-.774h-.086c0-.473-.43-.43-.43-.86v-.043h-.129c-.344,0-.516-.344-.774-.387-.3,0-.473.387-.817.387-.172,0-.344-.172-.43-.172,0,0-.172.215-.215.215-.172,0-.172-.043-.43-.043-.172,0-.344.387-.43.43a.613.613,0,0,1-.172.086c-.3.172-.129,1.419-.3,1.634-.172,0-.215,0-.258.043l.043.043v.086a.158.158,0,0,0-.129.043C-64.779-12.771-64.693-12.04-64.693-12Zm8.815,1.032c.215.3.172.645.344.817-.129.344.129.774.129,1.29,0,.387-.3.86-.129.989-.6.731-.946,1.849-1.763,2.279v.129a1.012,1.012,0,0,1-.215.688c-1.505.731-1.677,1.763-2.709,2.494-.215.172-1.29.172-1.29.946v.215c-.3,0-.43-.172-.516-.172-.516,0-.3.387-.946.387-.129,0-.086-.043-.215-.043-.043,0-.258.344-.645.344-.645,0-.989-2.752-.989-2.666,0-.387.172-.258.172-.645,0-.215-.043-.3-.043-.6,0,.086.258-.731.6-.817a1.249,1.249,0,0,1-.129-.6,11.637,11.637,0,0,0,1.72-3.01c0-.129.172-.3.172-.645.387-.172.172-.43.559-.559-.043-.043.129-.172.172-.215.043,0,.688-1.548.946-1.548a.9.9,0,0,1,.645.3.851.851,0,0,0,.473-.086c.043,0,.172.043.258.043s.086-.129.258-.129a7.011,7.011,0,0,0,.989.086h.817C-57.254-11.7-57.039-11.954-55.878-10.965Zm43.86-13.029v.043c-.129-.043-1.118-.774-1.118-1.247-.6,0-.6-.387-.688-.387-.043,0-.129.043-.172.043-.215,0-.086-.387-.6-.387h-.129c-.043-.172-.172-.3-.215-.516-.6-.043-2.451-.989-2.451-1.462.043-.129.129-.215.344-.215h.129c0-.645.731-.989.731-1.591a.943.943,0,0,0-.129-.344c0-.129.129-.258.129-.344a.23.23,0,0,0-.129-.172.6.6,0,0,0,.172-.387c0-.172-.043-.344-.043-.688a.158.158,0,0,1-.129.043c-.215,0-.258-.43-.387-.43h-.172c-.3,0-.817-.129-1.376-.129-.6,0-.473.344-.86.731v.172c0,.258-.129.129-.129.344,0,.172.043.344.043.516,0,.43-.258.3-.258.516v.344c0,.129-.258.129-.258.258v.129c0,.258-.473.344-.6.344-.086,0-.645-.086-.645-.215a.15.15,0,0,1,.043-.086h-.215a3.18,3.18,0,0,0-2.365-.731c-.258-.043-.215-.344-.516-.344-.129,0-.086.129-.172.129s-.215-.129-.258-.129c-.172,0-.3.172-.516.172a6.345,6.345,0,0,1-2.064-1.161,4.186,4.186,0,0,1-2.064-.473,1.094,1.094,0,0,1-.3.086c-.258,0-.344-.215-.731-.215h-.172v-.043c0-.215-.172-.215-.258-.344h-.258c-.774,0-1.075-.473-1.892-.473H-33a2.268,2.268,0,0,0-1.29-.6c-.215,0-.43.043-.645.043s-.086-.043-.344-.172a1.862,1.862,0,0,1-.215.043,4.97,4.97,0,0,1-1.161-.774v-.258c0-.172-.043-.344-.215-.344v.129c0,.215-.086.344-.258.344-.215-.043-.215-.215-.344-.215a.619.619,0,0,0-.129.086c-.086,0-.645-.731-.989-.731h-.344c-.387,0-.3-.3-.559-.3-.172,0-.43.258-.6.258-.043,0-.086,0-.086-.043-.129.387-.473.559-.473.946,0,.3.258.516.258.86v.129c.215.215.731.129.817.473.731.9,1.634.43,1.849.989.258,0,.258-.129.473-.129a.6.6,0,0,1,.516.387c.172,0,.258-.129.387-.172a16.329,16.329,0,0,0,1.806.645h.129a10.258,10.258,0,0,1,1.634.387c.258,0,.43-.129.645-.129.086.344.559.3.731.6h.215c.3,0,.3.258.43.258.043,0,.086-.086.086-.086v-.043c.215.086,1.376.387,1.462.473H-29c.043,0,.043.043.043.129h.172c.989,0,1.29.645,1.935.645h.129c.086,0,.129.043.215.086h.215a19.621,19.621,0,0,0,2.451.6c-.258-.129,1.118.43,1.2.731.215,0,.258-.129.473-.129a3.559,3.559,0,0,0,.645.473.223.223,0,0,1,.172-.086,1.05,1.05,0,0,1,.645.344c-.344.086-.344.731-1.2,2.451h-.086c-.043,0-.043,0-.043.043v.129c0,.129-.215.086-.215.172-.086.172-.043.43-.129.6-.129.129-.387.129-.387.559v.129c0,.043,0,.086-.043.086a.15.15,0,0,0-.086-.043v.172c0,.172-.129.043-.129.172,0,.043.043.129.043.172h-.129a.042.042,0,0,0-.043.043c0,.043.043.129.043.172a.042.042,0,0,1-.043.043.15.15,0,0,1-.086-.043.15.15,0,0,0-.043.086c0,.043.043.129.043.172-.043,0-.129-.043-.129.043v.172c0,.344-.387.473-.387.6,0,.043.043.129.043.172h-.129a.042.042,0,0,0-.043.043c0,.043.043.129.043.172a.042.042,0,0,1-.043.043.15.15,0,0,1-.086-.043v.215a2.614,2.614,0,0,1-.387.774c-.258,0-.473.9-.473,1.591-.731.215-.989,1.462-1.2,1.935-.3.559-1.333,1.763-1.333,2.8a2.893,2.893,0,0,0-.946,1.849.578.578,0,0,0,.086.344,2.567,2.567,0,0,0-.946,1.376v.172c0,.688-.731,1.032-.731,1.677a.464.464,0,0,0,.086.3h-.086c-.559,0-.344.774-.774.86v.172c0,1.677-1.935,1.634-1.935,3.354,0,.817.731,1.032.731,1.161v.086a2.475,2.475,0,0,1,.43-.086c.172,0,.3.086.43.3,0,.344-.3.344-.3.6,0,.172.172.215.172.43v.344c0,.129.129.172.129.387V.258c.43.086.559.688.86.946h.129c.215,0,.344.129.473.129.086,0,.129-.043.215-.129.3.3.688.473.989.731a1.725,1.725,0,0,1,.645-.129c.645,0,1.29.215,1.763.215A5.531,5.531,0,0,0-23.37,1.2,17.7,17.7,0,0,0-21.349.215V.043c0-.043,0-.129.172-.172A.137.137,0,0,0-21.048,0c.129,0,.344-.258.344-.258a4.631,4.631,0,0,0,.688-.086h.172V-.473h.215c0,.043,0,.043.043,0h-.043c.043-.129.516-.86.9-.86.387-.215.774-.559,1.2-.86.043,0,.043.043.086.043s.043-.043.043-.086v-.172c0-.086.215-.129.3-.129h.172c.086-.688.559-.989,1.118-1.247.258-.6.688-.387,1.462-1.591h.086c.516,0,.946-1.032,1.72-1.333A2.63,2.63,0,0,1-11.76-8a4.073,4.073,0,0,0,.946-.086c0-.43,1.548-.645,2.322-.6.645.043.473-.215.645-.215.086,0,.129.129.172.129.258,0,.387-.3.473-.3.086.258.215.258.387.258a3.7,3.7,0,0,0,.688-.043,1.862,1.862,0,0,0,.215.043c0,.086.774-.344.731-.344.473,0,1.247-.086,1.892-.043A9.352,9.352,0,0,0-1.7-9.288l-.086.473a8.082,8.082,0,0,1-.43,1.5.8.8,0,0,1-.086.3,5.064,5.064,0,0,0-.172,1.075.243.243,0,0,1,0,.258c0,.172.043.258.043.344v.172c0,.086-.043.215-.258.473a1.082,1.082,0,0,0,.258.086.694.694,0,0,1-.129.387,17.653,17.653,0,0,1,.215,1.763c-.086.086-.086.129-.086.3,0,.129,0,.215.043.258,0,0,.3.946.387,1.118a.937.937,0,0,0,.043.258h.086V-.43c.086.086.129.129.129.215a.515.515,0,0,0,.129.344c.258,0,.43.215.731.387a2.531,2.531,0,0,0,1.763.817h.258c.086,0,.129-.043.215-.043a2.538,2.538,0,0,0,.6.086A.922.922,0,0,0,2.473,1.2,4.935,4.935,0,0,1,3.5,1.118,3.3,3.3,0,0,0,4.236.9c.086-.215.6-.258.989-.516A4.676,4.676,0,0,0,6.773-.344c0-.3.946-.817,1.247-.817a.655.655,0,0,0,.43-.258c.129-.086.215-.172.3-.172q.258-.129.258-.258l-.043-.172v-.043a.409.409,0,0,0,.3-.086.879.879,0,0,1,.344-.043c0-.172,0-.172.043-.215l.215-.129c.215-.043.129-.129.129-.3v-.086a1.278,1.278,0,0,1,.516-.086l.774-.3a.939.939,0,0,1,.516-.43c.946-.559,1.247-.688,1.247-1.2l.043-.043c.043-.043.258-.129.3-.215a1.2,1.2,0,0,0,.559-.43c.043-.086.172-.215.258-.215A9.4,9.4,0,0,1,14.943-7.1c.387,0,.387-.172.473-.3.043-.086.129-.129.344-.129.043-.215.344-.473.387-.559.3.172.258-.086.43-.344a.15.15,0,0,1,.043-.086c.215,0,.3-.215.473-.473.086-.172.344-.172.3-.215.129-.043.43-.688.215-.946v.043a.716.716,0,0,0-.473-.387.669.669,0,0,0-.387.129c-.043.043-.043.043-.086.043l-.387.3a.844.844,0,0,1-.6.6c-.3.129-.387.516-.6.731,0,.043,0,.086-.043.086-.086.043-.3.344-.473.473a3.257,3.257,0,0,0-.6.43c-.258.215-.215.3-.559.473,0,0-.215.3-.258.387-.086.043-.086.086-.086.086-.215,0-.344.086-.344.258v.043c-.086,0-.645.559-.817.645a2.294,2.294,0,0,1-.9.473c-.344.645-.688.645-1.118.946l-.645.559a1.707,1.707,0,0,0-.86.473,2.679,2.679,0,0,1-1.376.817c-.086.086-.774.3-.774.387-.043.129.043.172-.086.215a2.194,2.194,0,0,0-1.161.43c-.344.215-.473.516-.731.516-.043,0-.215-.043-.258-.043l-.9.172a7.932,7.932,0,0,0-.688.43A.578.578,0,0,0,2-.516a2.179,2.179,0,0,0-.559.086.891.891,0,0,1-.258.086c-.559,0-.6-.344-.6-.473-.43,0-.645-.6-.645-.688A.7.7,0,0,1,.022-1.72l-.258-.258A3.522,3.522,0,0,0-.8-4.085.823.823,0,0,0-.623-4.73v-.6a.816.816,0,0,1,.129-.387,1.862,1.862,0,0,0-.043-.215.464.464,0,0,1,.129-.3,3.957,3.957,0,0,0,.129-.387c-.172-.043-.172-.086-.172-.172v-.258c0-.043-.043-.129-.043-.172.129,0,.172-.473.258-.516.258-.3.215-.43.516-1.2a1.19,1.19,0,0,0,.043-.344C.28-9.374.366-9.46.495-9.46a.223.223,0,0,1,.172.086h.344a.475.475,0,0,0,.344,0,1.27,1.27,0,0,0,.559.086A3.334,3.334,0,0,0,2.3-9.331a2.129,2.129,0,0,1,.559.172,1.068,1.068,0,0,0,.387.043A.727.727,0,0,0,3.634-9.2c-.043,0,.43-.043.516.043a1.272,1.272,0,0,0,.43.086c.559,0,.473.086.774-.043A.454.454,0,0,0,5.569-9.2a1.615,1.615,0,0,0,1.118.258H7.16c.6.344.645.086,1.118-.258l.3-.258a.259.259,0,0,0,.172.043c.172,0,.3-.172.473-.344l.086-.172c0-.559-.3-.774-.645-1.118l-.215-.258a.634.634,0,0,1-.387-.387c-.086-.215-.086-.3-.516-.3a2.291,2.291,0,0,0-.559-.86,1.417,1.417,0,0,1-.387-.688c-.172-.3-.258-.344-.473-.387l-.344-.215a1.319,1.319,0,0,0-.387-.6l-.215-.3a.772.772,0,0,1-.473-.129.692.692,0,0,0-.473-.129H4.15a.8.8,0,0,0-.516-.3L3.2-15.7c-.043.129-.086.129-.129.129l-.43-.215c-.086.129-.129.129-.129.129H2.258c-.086,0-.129-.043-.215-.043-.258,0-1.032,1.376-1.032,1.505v.086a1.432,1.432,0,0,0-.473.387l-.645.559v.215c0,.129-.645.989-.731,1.376a1.292,1.292,0,0,0-.344.387l-.129.3a.545.545,0,0,0-.043.258c-.43,0-.86,0-1.419.043-.258,0-.559.172-.817.172a.828.828,0,0,1-.43-.086,2.49,2.49,0,0,0-1.2.172c0-.086-.086-.129-.172-.129a12.373,12.373,0,0,0-2.623.3c-.215-.043-1.419.086-1.548.043a1.37,1.37,0,0,1-.559.172.388.388,0,0,0,.043-.215c0-.043.6-1.462.6-1.505.215-.559.731-2.8.86-3.311.043-.258.172-.3.172-.387s-.086-.043-.086-.344c0-.43.129-.387.129-.774a.529.529,0,0,0-.086-.215c.043,0,.129-.172.129-.215,0-.3-.129-.344-.129-.774v-.344c0-.387-.3-.215-.3-.473,0-.086.043-.215.043-.258,0,.086-.172-.86-.258-1.2-.473-.172-.215-.9-1.591-2.322-.043-.086,0-.387-.129-.387H-10.9c-.043,0-.043,0-.043-.043v-.129c0-.3-.86-.9-1.075-1.075Zm.086,12.857c-.043.43-.817,1.2-1.161,1.806-.215,0-.559.043-.817.043-.43,0-1.849.559-2.709.6-.258-.043-.172.215-.387.258-.3.215-.645.086-1.032.344-.731.387-1.634.3-2.494.688.258,0-.946.129-1.075.516h-.387a3.568,3.568,0,0,0-1.161.258c.043.043-.774.731-1.032.688-.043,0-.043-.129-.043-.129-.172,0-.516.344-.688.344h-.129c-.043,0-.989.516-1.075.516a.158.158,0,0,1-.129-.043A6.546,6.546,0,0,1-29.261-4c.086-.817.344-.731.43-1.118a2.591,2.591,0,0,1,1.2-2.193c0-.731.215-2.322.645-2.322h.086a.545.545,0,0,1-.043-.258c0-.43.3-.645.3-1.075h.086c.258,0,.774-.387.774-1.419a.839.839,0,0,0-.043-.3h.129c.559,0,.172-.86.559-.86.172,0,.172.215.3.258.215-.043.129-.731.129-1.075a5.738,5.738,0,0,0,.516-1.247.388.388,0,0,0-.043-.215c.9-.473.688-1.419.989-2.064.043-.086.129,0,.129-.129,0-.3.731-.6.731-1.118-.086.129.043-.387.731-1.075,0-.043-.043-.129-.043-.172a7.727,7.727,0,0,0,.516-1.892c1.161-.645,1.247-1.634,1.591-2.58.215-.215.688-.344.86-.9h.516c.559,0,.344.3.6.3h.172c.086,0,.043.086.043.129h.172a2.22,2.22,0,0,1,.688.258c.043,0,.043.215.172.215h.215a1.919,1.919,0,0,1,.817.86c.817.086.86.559,1.806,1.2,0,.086.688.946,1.118.989v.086c0,.086-.043.172-.043.258,0,.215.559.43.774,1.118,0,.043-.043.129-.043.172a1.432,1.432,0,0,0,.516.43c0,.043-.043.129-.043.172,0,.344.645.946.645,1.247v.172a4.246,4.246,0,0,1,.129,1.118c0,.129-.043.258-.043.43a2.144,2.144,0,0,0,.129.516,1.691,1.691,0,0,1-.086.258v.172c0,.086-.043.129-.043.172,0,.086.043.215.043.43,0,.387-.258.731-.258,1.118,0,.043.043.129.043.172-.129.086-.129.344-.258.6C-10.986-13.072-11.932-11.266-11.932-11.137Zm-3.225,3.612c0-.129.387-.172.817-.215v.086c-.6,0-.9.946-1.2.946a1.028,1.028,0,0,1-.387-.129c0,.258-.172.3-.172.516,0,.043.043.086.043.129a4.247,4.247,0,0,0-1.72,1.548h-.086c-.387,0-2.15,1.29-2.193,1.72h-.086c-.43,0-3.053,2.064-3.526,2.064H-23.8a3.318,3.318,0,0,0-.645.258c-.086.086-.172.387-1.806.387a1.481,1.481,0,0,1-.387-.043s-.043.129-.086.129c-.086,0-.086-.129-.172-.129-.215,0-.43.043-.645.043-.129,0-.215-.043-.344-.043V-.387c0-.3-.344-.473-.344-.645.043-.086.215-.6.6-.6h.172V-1.72a1.606,1.606,0,0,1,.258-.3c.043,0,.129.043.172.043a.15.15,0,0,0,.086-.043c-.129.086.645-.516.645-.688v-.043a.616.616,0,0,1,.473-.129c.043-.258-.129-.258-.129-.387,0-.3,1.548-.559,1.849-1.29a4,4,0,0,0,1.763-.688c.086-.086.258-.043.344-.129A2.75,2.75,0,0,1-20.4-5.891,2.184,2.184,0,0,0-19.07-6.45h.172a2.984,2.984,0,0,0,1.5-.43C-17.049-7.052-15.157-7.31-15.157-7.525ZM6.386-10.836a2.957,2.957,0,0,1,.516.688c-.215.043-.086,0-.129,0l-.172.086-.559.043a19.923,19.923,0,0,0-3.827-.516c-.215,0-.3.043-.516.043H1.441a3.783,3.783,0,0,0-.6-.043H.753a.7.7,0,0,1,.258-.645,1.5,1.5,0,0,0,.731-1.075c.086,0,.172-.086.3-.172a5.066,5.066,0,0,1,.731-1.2c.086,0,.172,0,.215.129.129,0,.3.129.344.129a2.481,2.481,0,0,1,.344-.43c.6.043,1.032.473,1.806,1.419a2.89,2.89,0,0,1,.6,1.333C6.085-11.008,6.171-10.879,6.386-10.836Zm19.436-3.956c-.172-.387-.86-.946-.86-1.032V-16c0-.129-.731-.3-1.2-.9a.947.947,0,0,1-.344.043c-.344,0-.6-.129-.9-.129a1.012,1.012,0,0,0-.344.086,1.391,1.391,0,0,0-1.118-.516c-.258,0-.43.172-.516.172h-.172c-.129,0-.258.043-.344.043-.215,0-.387-.043-.688-.043s-.6.172-.9.172a.322.322,0,0,1-.215-.043,5.921,5.921,0,0,1-1.333.86,1.425,1.425,0,0,1-.387.9c0,.086.129,0,.129.086a.268.268,0,0,1-.129.215,19.43,19.43,0,0,0-.559,3.01c0,.3.086.6.086,1.075,0,.344-.043.731-.043,1.118a4.783,4.783,0,0,0,.516,1.806c.086.215.043.516.129.731a1.46,1.46,0,0,1,.258.258,18.653,18.653,0,0,1,.387,1.978.15.15,0,0,0,.086-.043v.258c.946.946.731,1.806,1.591,3.956h-.086c-.129,0-.344-.043-.516-.043-.989,0-.645.387-.9.387h-.086c-.344-.43-1.462-.215-1.72-.473h-.215c-.6-.215-1.72-.3-1.72-.516-.086,0-.129.129-.129.129-.172,0-.172-.129-.344-.129-.129,0-.086.258-.258.258,0,.387.215.516.645.516.129,0,.258-.043.43-.043.043.344.516.258.645.516H14.9c1.634,0,1.5.731,2.107.731h.43c.258,0,.258.258.516.258h.3a.95.95,0,0,0,.6.258A.15.15,0,0,0,18.942.9c.215.086.043.129.172.129A.268.268,0,0,0,19.329.9c.3,0,.516.258.817.258.731,0,1.419-1.032,1.419-1.548,0-.172-.129-.258-.129-.43v-.344c0-.43-.6-.731-.6-1.247a1.012,1.012,0,0,1,.086-.344c-.387-.215-.43-.645-.6-.989-.086,0-.172.043-.172-.086,0-.043.043-.129.043-.172-.086-.387-.215-.3-.387-.473a8.4,8.4,0,0,1-.731-2.107,4.229,4.229,0,0,1-.6-1.376c0-.086.129,0,.129-.129,0-.043-.215-.6-.258-.817,0-.043.086-.043.086-.043a6.483,6.483,0,0,0-.3-1.935c.043-.473.387-.688.387-1.247,0-.086-.043-.215-.043-.344h.043c.043,0,.043,0,.043-.086,0-.344.3-.086.3-.3v-.086a2.062,2.062,0,0,0,.215-.731V-13.8c.6,0,1.075-.731,1.2-.731h.172a1.092,1.092,0,0,1,.989-.387c.731,0,1.2.6,2.107.6.129,0,.172.43.559.43a.545.545,0,0,0,.258-.043c.172.258.215.6.6.6.258-.258.559-1.247.86-1.376ZM31.927-1.075c-.473,0-.473.258-1.247.774l-.3-.086c-.086.172-.43,0-.516.086a1.077,1.077,0,0,1-.344-.774c.043-.387.172-.215.215-.559a16.694,16.694,0,0,0,.344-1.677,4.187,4.187,0,0,0,.086-1.032h.043c.129,0,.086-.086.172-.215.043,0,.215-.516.3-.473.645.043-.043-.731-.043-.989A4.386,4.386,0,0,0,31.8-8.686,7.172,7.172,0,0,0,32.529-9.8c0-.129.043,0,.043-.129.043-.172-.043-.215-.043-.258l.043-.043c.344-.215.387-.688.43-.946a2.272,2.272,0,0,0-.043-.559c.172,0,.215-.258.387-.473a8.934,8.934,0,0,1,0-1.075c-.387-.172-.731-.946-.946-1.247.172-.817-.172-.989-.731-1.032h-.3c-.043,0,0,.129-.086.129H31.11c-.172,0-.344.43-.516.387-.043,0-.086,0-.086-.043-.043.258.043.344.043.6-.043.043.043.774-.129.946-.086.086.258.473.215.559.043,0-.3.688-.258.688-.086.258-.129.3-.086.473.129.258.043.215.043.387-.043.43-.6,1.247-.6,1.462,0,.172.172.3.172.516-.731.559-.645,1.591-.9,2.666a.932.932,0,0,0-.43.473,1.161,1.161,0,0,0,0,.387,10.11,10.11,0,0,1-.516,1.247v.258c-.043.3-.129.3-.172.559a.854.854,0,0,0,0,.344c0,.043,0,.086-.086.129-.215.129-.086.817-.258,1.032.258.3.043.774,0,.946,0,.086.043.086.043.129,0,.172-.086.258-.086.344a3.725,3.725,0,0,1,.086.43c0,.129-.129.215-.129.3,0,.043.086.129.086.215V.172c0,.129.258.516.215.817.6.258.774.774,1.29.817.387,0,.473-.172.559-.086a1.862,1.862,0,0,1,.215.043c.086,0,.129-.3.516-.258.645.086,1.892-1.161,2.279-1.161V.258c.387-.344.215-.043.774-.516.086.043.129-.172.215-.172.215,0,.344-.129.6-.129V-.6c0-.043.043-.086.129-.172a8.2,8.2,0,0,1,1.72-1.247c.043-.086.645-.258.731-.516,0-.344.688-.344.817-.559v-.086c0-.086.43-.086.43-.258v-.086c.387-.43.6-.473.989-.9h.086c-.129,0,.43-.258.559-.344.172-.3.43-.9.731-.9a7.058,7.058,0,0,0,1.247-1.075c.258-.344.946-1.161.946-1.2-.086-.043.215-.043.43-.215.344-.215.043-.6.129-.688.043-.043.086-.129.129-.129.086-.086.086.086.258-.043.172-.043.172-.731.344-.817l-.43-.129c0,.215-.387-.172-.387.129v.086a6.82,6.82,0,0,0-1.591,1.548.325.325,0,0,0,.043.172H41.43c.043,0-.774.516-.86.6a3.568,3.568,0,0,1-.645.731c-.258,0-1.032.9-1.806,1.419,0-.129-.086-.129-.172-.129-.3,0-.043.516-.3.516h-.129c-.473.731-.473.387-.946.645-.086.086-.086.215-.172.215h-.172a12.288,12.288,0,0,1-2.021,1.5c-.989.6-.43.688-1.333.989C32.959-1.548,32.013-1.161,31.927-1.075ZM37-25.2a4.9,4.9,0,0,1-.516-.6v-.172c0-.043,0-.086-.043-.086a5.325,5.325,0,0,0-.817.215c-.3,0-.473-.043-.473-.172a.6.6,0,0,1-.387.258h-.172c-.086,0,0,.3-.086.3-.086-.129-.086-.129-.172-.129-.215,0-.774.645-.731.645,0,.559-.172.774.344,1.118.086.043.086.258.172.258.086.129.215.086.344.172.043,0-.043.129.086.129h.387c.086.516.86.3,1.29.344.215-.344.6-.516.6-.817v-.215c.043-.215.215-.172.215-.344-.043-.172-.344-.215-.344-.344,0-.3.215-.258.3-.473ZM75.143-10.277c.129,0,.129.172.129.258a8,8,0,0,1-.344,1.376c-.172.731-.43,1.978-.43,1.978,0-.043.043.215.129.3a2.409,2.409,0,0,0-.344.9V-5.2a4.849,4.849,0,0,1-.086.6c0,.172.086.172.086.258,0,.172-.086.387-.086.774v.9a4.879,4.879,0,0,1-.043.6A6.844,6.844,0,0,0,74.626.688a5.216,5.216,0,0,0,1.462,1.591,2.424,2.424,0,0,1,.3-.043c.129,0,.086.3.258.344a8.807,8.807,0,0,0,1.032.215,3.248,3.248,0,0,0,1.29-.43h.172c.215-.043.258-.043.344-.129.043,0,.086.043.129.043a.042.042,0,0,0,.043-.043V2.15h.258V2.064h.172c.086,0-.043-.129.086-.129H80.3c.559-.387.387-.774,1.161-.946.774-.3,1.247-.817,1.978-1.161-.215-.215-.129-.516-.559-.688a2.536,2.536,0,0,1-1.2.473c-.473.172-.688.989-1.376.9-.043,0-.6.3-.645.258-.817,0-.6.215-1.677.215a1.959,1.959,0,0,1-.946-.3c-.215-.989-.645-1.2-.645-1.634a1.521,1.521,0,0,0,.043-.258c0-.129-.172-.129-.172-.344a6.048,6.048,0,0,1,.172-1.161,1.834,1.834,0,0,0-.258-1.032c.43-.215.086-1.075.559-1.2a1.069,1.069,0,0,1-.043-.344c0-.516.258-1.075.258-1.634v-.43a1.116,1.116,0,0,1,.258-.6c0-.086-.043-.172-.043-.3a.042.042,0,0,1,.043-.043c.3-.645.3-.473.3-1.075a.15.15,0,0,0,.086.043c.43,0,.172-1.29.387-1.29.043,0,.129.043.172.043s.086-.043.086-.129c-.086,0,.516-.86.516-1.161,0-.43-.172-1.247-.215-1.849-.172,0-.473-.129-.516-.3H77.98c-.043,0-.043.086-.086.086-.129,0-.215-.172-.387-.172-.129,0-.172.086-.258.086-.043,0-.043-.086-.172-.086h-.043v.043c0,.086-.129.129-.215.129h-.129c-.258,0-.258.215-.258.387,0,.043-.3.129-.3.172a2.7,2.7,0,0,1-.774.516c-.129.043-.129.645-.344.645a.188.188,0,0,1-.129-.043c-.387,0-.774.86-1.032,1.29-.129.129-.344.215-.43.387-.043,0-.172.172-1.806,1.849a3.587,3.587,0,0,1-.344.516c.129,0-.6.473-.645.774v.172h-.086v.129c-.215.258-.989.946-1.032,1.333v.086c-.215.043-.215.3-.516.258h-.043c-.645,1.118-1.2,2.064-1.462,2.107-.043-.215-.473-.086-.473-.3a.7.7,0,0,0,.129-.258,6.133,6.133,0,0,1-.129-.9c.129,0,.3,0,.3-.129v-.086a2.06,2.06,0,0,1,.43-1.72,13.28,13.28,0,0,1,.6-2.623c.215,0,.258.086.387.086s.172-.387.172-.6v-.344c.258,0,.6.043.731-.086-.043.043.645-1.29.774-1.548-.043,0-.043-.086-.043-.172,0-.129.129-.731.559-.731V-12.9c0-.387.215-.6.215-.946,0-.258-.129-.086-.129-.258v-.172c0-.688-1.161-1.118-1.2-1.118-.172,0-.387.086-.6.086a.8.8,0,0,1-.3-.086c-.086.3-.387.387-.516.516a2.39,2.39,0,0,0-.215.688c-.215.344.086-.086-.43,1.032a2.862,2.862,0,0,0-.731.731c-.043.129-.086.43-.129.43a.15.15,0,0,1-.086-.043v.172l-.043.043-.086.086a.042.042,0,0,0-.043.043c-.258.172-.688.559-.731.559a.15.15,0,0,0-.086-.043c-.344.172.086.86-.473.86-.129,0-.3-.129-.473-.129-.043,0-.086.043-.172.129v-.043a2.635,2.635,0,0,1-1.376.817,4.112,4.112,0,0,0-1.376.731,2.118,2.118,0,0,0-1.806.946v-.043a1,1,0,0,1-.6.3c-.043,0-.086.043-.129.043a2.254,2.254,0,0,0-.86.645,1.256,1.256,0,0,0-1.2.258,3.674,3.674,0,0,1-1.634.688,6.441,6.441,0,0,1-.086-.946A10.733,10.733,0,0,1,55.535-8c0-.043.043-.086.086-.129.043,0,.129-.172.129-.3a.666.666,0,0,0-.086-.344l-.129-.258c0-.172.043-.258.043-.344a.578.578,0,0,0-.086-.387c-.43-.344-.6-.3-.6-.516v-.473c-.344,0-.387-.043-.387-.129-.043-.3-.043-.731-.946-1.247l-.086.344c-.086,0-1.72-.473-1.634-.6a1.1,1.1,0,0,0-.473.387c-.043.043-.086.086-.043.086-.3,0-.387.258-.387.473v.043c-.215.086-.172.043-.172.215h-.043l-.086.344a3.154,3.154,0,0,1-.559.559,6.983,6.983,0,0,0-.774.86,3.65,3.65,0,0,0-1.161,1.462v.086a4.007,4.007,0,0,0-1.2,1.462c-.086-.043-.086,0-.129,0a5.884,5.884,0,0,0-1.591,1.548l-.258.258a1.742,1.742,0,0,0-.344.559c0,.172-.559.473-.731.559v.344a1.152,1.152,0,0,0-.645.43,1.406,1.406,0,0,1-.6.473.81.81,0,0,0,.086-.344,1.585,1.585,0,0,1,.258-.688c0-.043-.043-.172-.043-.215a3.167,3.167,0,0,1,.516-1.591,5.39,5.39,0,0,0,.774-2.58c.817-.129.731-.688.731-1.29A1.326,1.326,0,0,1,45-9.331c.559-.215,1.075-1.333,1.075-1.376v-.129a17.529,17.529,0,0,0,1.5-2.365v-.258c.043.043.086.043.086,0a1.177,1.177,0,0,0,.817.3,2.521,2.521,0,0,1,.6-.774c.215-.258.516-.473.6-.774a1.531,1.531,0,0,0,.774-.6,2.024,2.024,0,0,1,.645-.559v.215a5.207,5.207,0,0,1-.344,1.978,2.26,2.26,0,0,0-.129.86h.43l.129-.043.086-.086a.15.15,0,0,1,.086-.043c.043-.086.086-.086.129-.086a.463.463,0,0,1,.344.086.689.689,0,0,0,.43.086c0-.215.086-.258.215-.3.215-.086.344-.129.344-.129L53-13.846a1.8,1.8,0,0,1,.172-.43c.516-.086.516-.3.516-.645a1.772,1.772,0,0,0-.043-.516c0-.043-.043-.129-.043-.172l.086-.172a2.317,2.317,0,0,0,.129-.43.545.545,0,0,0-.043-.258v.086c0-.043-.043-.086-.043-.129l.043-.043a.515.515,0,0,0,.215-.43,1.782,1.782,0,0,0-1.118-.516h-.043l-.344-.43-.344-.473c-.172.129-.387,0-.6-.086a1.934,1.934,0,0,0-.344-.086.611.611,0,0,0-.258.086c-.086.043-.043.129-.172.129a.626.626,0,0,0-.516-.215,1.8,1.8,0,0,0-1.118.473,1.268,1.268,0,0,1-.86.3,14.764,14.764,0,0,1-1.161,1.419,10.4,10.4,0,0,0-.86,1.118c-.129.086-.344.172-.344.258l-.344.559a6.593,6.593,0,0,0-1.419,2.623,1.811,1.811,0,0,0-.3.559c0,.086-.043.086-.043.086a.277.277,0,0,0-.172.3v.086a2.2,2.2,0,0,0-.43.731,3.256,3.256,0,0,1-.387.774l-.129.344v.129A4.561,4.561,0,0,0,42.161-7.4l-.043-.043A.383.383,0,0,0,41.9-7.1v.3c0,.043-.043.086-.086.129a.371.371,0,0,0-.129.344v.344a1.581,1.581,0,0,1-.344.645c-.043.086-.086.043-.086.3a.43.43,0,0,1-.129.344.335.335,0,0,0-.129.3c0,.129-.043.129,0,.172a.639.639,0,0,0-.086.387A.619.619,0,0,0,41-3.7c-.043.172-.086.086-.172.172h.043a.6.6,0,0,0-.3.516.619.619,0,0,0,.086.387.042.042,0,0,0,.043.043H41a1.754,1.754,0,0,0-.559,1.032c0,1.2.387,2.15,1.548,2.021a2.3,2.3,0,0,0,1.419-.688h-.043a1.3,1.3,0,0,1,.688-.344,4.753,4.753,0,0,1,.559-.516C44.827-1.2,45-1.29,45-1.591c0-.043.086-.086.172-.172.215-.215.559-.387.559-1.419.129-.086.731-.516,1.075-.817.086.043.3-.258.516-.6a4.816,4.816,0,0,1,1.892-1.677,10.474,10.474,0,0,1,2.322-2.881,2.033,2.033,0,0,0,.516-.3.466.466,0,0,0,.258.043H52.4a.042.042,0,0,0,.043.043,1.012,1.012,0,0,0,.086.344v.086c.129.129.129.129.129.172,0,.172.215.559.387,1.29a.712.712,0,0,0,.215.516h-.043a.961.961,0,0,1,.129.43v.559a1.326,1.326,0,0,0,.043.43c0,.129.043.215.043.3,0,.129.215.215.215.3-.129.172-.129.129-.258.172v.043a.862.862,0,0,0-.516.43h-.387s-.3.172-.473.3h-.086l-.043.043a.433.433,0,0,1-.129.043,1.444,1.444,0,0,0-.645.387,4.375,4.375,0,0,0-1.849,1.462v-.043c-.043,0-.215-.043-.344-.043-.3.215-.43.215-.473.215l-.473.215c-.043.043-.172-.086-.387-.258.086.387-.516.989-1.032,1.2-.129,0-.258,0-.3.043l-.172.215a1.561,1.561,0,0,1-.344.387A8.649,8.649,0,0,0,45,.344a2.564,2.564,0,0,1-1.032.473c0,.086-.043.086-.043.129a2.31,2.31,0,0,0-.989.817,1.186,1.186,0,0,1-.387.3.186.186,0,0,0-.172.086c0,.043-.129.129-.258.172a.433.433,0,0,1-.043.129c-.172,0-.215.043-.215.086,0,.172-.215.43-.387.6-.043-.172-.172-.172-.344.344V3.44c-.129.172-.344.645-.774.774L40.1,4.085c.086.559-.086.731-.215.86h.043a.868.868,0,0,0-.387.774.572.572,0,0,1-.129.3c-.129.043-.3.473-.344.559v.172l-.172.172a.39.39,0,0,1-.3.129,2.826,2.826,0,0,1-.344,1.032.726.726,0,0,0-.086.215v.258c-.129-.043-.129,0-.129,0l-.129.172a7.708,7.708,0,0,0-.473,1.505c0,.172-.043.043-.086.086a.323.323,0,0,0-.129.3c0,.43-.086,1.247-.129,1.806C37.044,13.2,37,13.889,37,14.233c0,.258.043.215.086.3l.129.215c0,.043-.043.086-.043.129v-.086a.677.677,0,0,0-.043.516.657.657,0,0,0,.172.43c0,.086-.043.086-.043.086l.086.516.086.215a.306.306,0,0,0-.129.258,1.541,1.541,0,0,0,.172.473l.172.516v.086c0,.258.215.473.258.688a2.1,2.1,0,0,1,.129.3.621.621,0,0,0,.086.3c0,.086.086.086.086.129.086-.043.3.129.344.258l-.043.043v.258a.639.639,0,0,0,.387.086c.086,0,.172,0,.172.043,0,.215.043.3.172.3.172.387.516.473.9.559a1.182,1.182,0,0,1,.946.774c.129-.129.258-.258.3-.258a2.065,2.065,0,0,1,.9.043,1.951,1.951,0,0,0,.989.043l.559-.215a3.984,3.984,0,0,1,.86-.387c0-.258.043-.387.172-.43.344-.086.258-.086.344-.172a2.176,2.176,0,0,1,.86-.688,2.394,2.394,0,0,1,.688-.9,2.665,2.665,0,0,0,1.032-1.591,1.875,1.875,0,0,0,.387-.473c.086-.172,0-.344.43-.43.086-.559-.043-.9.43-.989-.043-.645.129-.817.3-.946.043-.043.086,0,.172-.258.258-.258.258-.86.516-1.161l.086-.516.258-.6.172-.215a1.681,1.681,0,0,0,.43-.946c.215-.473.172-.688.3-.9a.635.635,0,0,0,.3-.688c0-.172,0-.258.086-.344a.948.948,0,0,0,.258-.645,1.306,1.306,0,0,0,.774-1.5c0-.043-.043-.086-.043-.129,0-.086-.043-.215-.043-.258s.086,0,.086,0c.129-.043.387-.215.3-.473a.611.611,0,0,0-.086-.258,1.951,1.951,0,0,1,.731-1.5v-.3c0-.043.086-.129.129-.172a.545.545,0,0,0,.172-.387V2.623c0-.172.043-.258.043-.387v-.43A7.757,7.757,0,0,0,54.5.731V.516c.215,0,.215-.215.172-.344,0-.129-.043-.129-.043-.215V-.215L54.8-.6a1.874,1.874,0,0,0,.258-.731,4.332,4.332,0,0,0,.129-1.075,4.688,4.688,0,0,1,.043-.731h.043a.509.509,0,0,0,.172-.3v-.3l.344-.344H55.75a.619.619,0,0,0,.3-.258h-.043c.129-.129.559-.129.946-.215s.989-.172,1.2-.43v-.043a.908.908,0,0,0,.43-.172,4.615,4.615,0,0,1,1.032-.516l.9-.9a4.2,4.2,0,0,0,1.2-.3c-.172-.172.559-.43.645-.516L63.4-8.084c.559.3.946.043,1.376-.344.215-.172.387-.43.774-.387l.172-.172v.172c-.043,0-.344.688-.387.688.344-.086-.172,1.075-.129,1.376-.215.215-.172.731-.258,1.032-.086.387-.215.516-.086.9l-.043.086c.043,0-.043.215,0,.258a5.357,5.357,0,0,0-.258,1.806,7.249,7.249,0,0,0,.129,1.419c.43.086.559.688.817.688.086,0,.086-.043.172-.043.043,0,.086,0,.086.043v.172h.43c.9,0,1.247-.731,1.978-.731V-1.2c0-.043.215-.43.43-.43h.043v-.215c.043-.43.43-.6.473-.9,0-.129-.043-.215-.043-.344h.172c.3,0,.774-1.333.817-1.462.215-.516,1.032-.473,1.247-1.763.516-.129.645-1.2,1.5-1.376a.15.15,0,0,0-.043-.086c0-.387.6-.6.6-.989l.043-.215A19.9,19.9,0,0,0,75.143-10.277ZM53.471-3.1a1.691,1.691,0,0,1,.086.258c0-.043-.086.129-.129.215v.043a4.362,4.362,0,0,0-.344,1.333.545.545,0,0,0,.043.258c0,.086.043.043.043.086S53.083-.559,52.7.946a4.889,4.889,0,0,0-.344,1.29,1.027,1.027,0,0,1-.086.387,2.179,2.179,0,0,1-.258.645c.086.172.086.172.086.215a.743.743,0,0,1-.043.43l-.387.9h.043a7.5,7.5,0,0,0-.473,1.419c0,.129,0,.215.043.258a.15.15,0,0,1-.043.086C51.02,7.525,50.16,8.17,50.16,9.2l-.172.473c-.172,0-.3.3-.6.989,0,.043-.043.688-.043.731-.043.043.172.516-.645.817-.172,1.161-1.161.989-.9,2.064a10.809,10.809,0,0,1-.43,1.118,5.827,5.827,0,0,0-1.935,2.537,1.22,1.22,0,0,0-.43.387l-.3.344a.611.611,0,0,0-.258.086c-.129,0-.215.086-.258.086a4.745,4.745,0,0,1-1.634.946c-.215.043-.6.086-.6-.215-.172.129-.3.172-.387.258-.258.043-.344.043-.387,0a2.9,2.9,0,0,0-.817-.258c-.043-.6-.3-.731-.473-.817a1.883,1.883,0,0,0-.473-.688.9.9,0,0,1-.473-.86.889.889,0,0,1,.129-.6,3.113,3.113,0,0,1-.473-.817,1.222,1.222,0,0,1,.172-.516l-.172-.3-.086-.3c-.043-.043,0-.172.086-.258-.43-.258-.215-1.548-.215-2.064A.666.666,0,0,0,38.292,12h-.043a.587.587,0,0,0,.172-.473.374.374,0,0,1,.215-.387l-.129-.3c0-.043.258-.086.258-.129a1.15,1.15,0,0,1,.215-.946.771.771,0,0,0,.215-.559V9.159l.172-.129.387-.344a.839.839,0,0,1-.043-.3.368.368,0,0,0,.129-.258L39.8,8.041a1.178,1.178,0,0,0,.172-.3V7.525c0-.086-.129-.473.6-.645,0-.172.129-.3.129-.344-.043-.172.086-.344.258-.473v.043a7.912,7.912,0,0,0,2.236-2.279c.043-.129.086-.387.3-.43.258-.172.258-.344.215-.43h.129a.931.931,0,0,0,.43-.344V2.58a.278.278,0,0,0,.215.086.579.579,0,0,0,.387-.215c.043-.043.086-.086.129-.086.172,0,.215-.172.516-.43A5.132,5.132,0,0,1,47.451.516L47.408.6a.39.39,0,0,0,.387-.258l.086-.172h-.043l.688-.6h.043c.086,0,.215-.043.258-.043.215-.086,2.15-.946,2.322-1.505a.545.545,0,0,0,.258.043v-.3c.172,0,.43.043.43.086a8.379,8.379,0,0,0,1.118-.774Zm53.836-18.275a.425.425,0,0,0,.258-.086c.516.387.86.172,1.462.129.043,0,1.29,0,1.376.3.473,0,.387-.129.9-.172.344.086.473.3.817.387a.384.384,0,0,1,.344-.172c.129,0,.9.086,1.032.086h.387c.258,0,.6-.043.817-.043h.172a2.116,2.116,0,0,1,.6.043c.129,0,.086-.215.344-.258.129,0,.3.043.387.043.258-.043.172-.387.172-.516,0-.258-.215-.344-.258-.688a2.47,2.47,0,0,0-.731-.215h-.129v-.043a1.863,1.863,0,0,1-.043-.215c0-.086-.086-.043-.172-.043-.129,0-.258.043-.516.043a4.181,4.181,0,0,1-.774-.043c-.215,0-.215.086-.387.129,0,0,0-.086-.129-.086h-.86c-.215,0-.172-.129-.258-.086a3.488,3.488,0,0,0-.473.129c0-.086-.258-.086-.258-.086h-.3c-.473.043-.946-.258-1.462-.3a6.632,6.632,0,0,0-2.924-.215l-.9-.387v-.172c0-.258.258-.43.3-.688a.621.621,0,0,1-.129-.473c0-.172.043-.344.043-.559,0-.473-.774-.9-1.419-.9a2.42,2.42,0,0,0-.43.086c0,.086-.3.344-.559.387-.086.516-.129,1.161-.258,1.72-.43-.215-.86-.43-.817-.473-.086,0-.172.043-.258.043-.344.043-.344-.215-.559-.258a9.353,9.353,0,0,0-1.075-.043c0-.129-.043-.3-.172-.3s-.172.043-.344.043c-.215.043-.3-.215-.43-.215h-.172c-.129,0,0-.129-.129-.129-.086,0-.215.043-.258.043-.6-.215-1.72-.344-2.193-.817-.6-.086-1.5-.129-2.322-.172-.129,0-.172-.258-.258-.3-.129,0-.129.129-.215.129s.043-.129-.086-.129-.258.043-.387.043a10.312,10.312,0,0,1-2.709-.172c-.645.559-1.2.731-1.161,1.505,0,.172.129.086.172.129.3.645.43,1.247,1.634,1.161.6-.043,1.505-.3,2.193-.3a6.152,6.152,0,0,0,1.161.3c.086,0,.086-.043.129-.043.172.086.516.129.774.215,0-.043-.043-.129,0-.129.129-.043.258.172.258.172a7.122,7.122,0,0,0,1.72.3,12,12,0,0,0,2.451.473c.43,0,.86.3,1.29.344.215.086.215.3.344.3a1.862,1.862,0,0,0,.215-.043c.172,0,.258.043.344.043.258-.043.43.172.731.172v.215a7.749,7.749,0,0,1-.215,1.978v.172a3.12,3.12,0,0,0-.215.387s-.043.43-.043.516c0,.043-.172.774-.172.817a11.361,11.361,0,0,1-.473,1.806c-.172.473-.258,1.161-.516,1.935-.043.215-.258.473-.258.688a1.862,1.862,0,0,0,.043.215c0,.172-.215.129-.258.215-.129.215-.086.559-.172.774h-.086c-.043,0-.043,0-.043.043v.172c0,.344-.258.6-.258.946a1.862,1.862,0,0,1,.043.215,7.184,7.184,0,0,0-.688,1.634v.172c-.043.3-.258.43-.258.6,0,.043.043.129.043.172a3.765,3.765,0,0,0-.258,1.2c0,.086-.559,1.118-.559,1.2v.559c0,.473-.258.6-.258.86,0,.043.043.129.043.172-.129.516-.387,1.161-.43,1.505a7.774,7.774,0,0,0-.559,1.462c0,.258.129.3.129.559v.129A2.443,2.443,0,0,0,97.33.516c0,.215-.258.516-.258.86,0,.387.3.473.086.774,0,0,.6.688.6.645.043.258.258.3.516.3s.3-.043.3-.258V2.666c0-.559.86-.215.86-.86,0-.129-.344-.3-.344-.516,0-.086.215-.129.215-.258V.817c0-.344.172-.86.172-1.2a1.471,1.471,0,0,0-.043-.473c.3-.129.344-.43.344-.731,0-.215-.043-.344-.043-.559,0-1.419.688-.774.688-2.494v-.688c0-.172.3,0,.3-.172a2.425,2.425,0,0,0-.043-.3,6.2,6.2,0,0,1,.258-.688v-.172h.172a2.583,2.583,0,0,0,.086-.688c0-.129.172-.129.172-.387,0-.129-.043-.344-.043-.516v-.086c.387,0,.43-1.978,1.032-2.451v-.086a1.629,1.629,0,0,1,.215-.688c.172-.387.258-1.075.6-1.419.129-.258.129-.989.215-1.161a8.988,8.988,0,0,0,.774-2.537c0-.172.129-.129.129-.172a4.516,4.516,0,0,0,.43-1.2v-.215a2.776,2.776,0,0,1,.172-.817c0-.129.215-.817.215-.86a.223.223,0,0,1,.086-.172,3.2,3.2,0,0,1,.3-1.591C106.188-21.586,107.049-21.371,107.306-21.371Zm3.44,14.147c.129,0,.172-.473.258-.516.258-.3.215-.43.516-1.2a1.19,1.19,0,0,0,.043-.344c-.043-.086.043-.172.172-.172a.223.223,0,0,1,.172.086h.344a.475.475,0,0,0,.344,0,1.27,1.27,0,0,0,.559.086,3.334,3.334,0,0,0,.387-.043,2.129,2.129,0,0,1,.559.172,1.068,1.068,0,0,0,.387.043.727.727,0,0,0,.387-.086c-.043,0,.215.086.3.172a1.272,1.272,0,0,0,.43.086,1.936,1.936,0,0,0,.989-.172.454.454,0,0,0,.215-.086,1.615,1.615,0,0,0,1.118.258h.473c.6.344.645.086,1.118-.258l.3-.258a.259.259,0,0,0,.172.043c.172,0,.3-.172.473-.344l.086-.172c0-.559-.3-.774-.645-1.118l-.215-.258a.634.634,0,0,1-.387-.387c-.086-.215-.086-.3-.516-.3a2.291,2.291,0,0,0-.559-.86,1.417,1.417,0,0,1-.387-.688c-.172-.3-.258-.344-.473-.387l-.344-.215a1.319,1.319,0,0,0-.387-.6l-.215-.3a.772.772,0,0,1-.473-.129.692.692,0,0,0-.473-.129h-.086a.8.8,0,0,0-.516-.3l-.43-.086c-.043.129-.086.129-.129.129l-.43-.215c-.086.129-.129.129-.129.129H113.5c-.086,0-.129-.043-.215-.043-.258,0-1.032,1.376-1.032,1.505v.086a1.432,1.432,0,0,0-.473.387l-.645.559v.215c0,.129-.645.989-.731,1.376a1.292,1.292,0,0,0-.344.387l-.129.3a1.431,1.431,0,0,0-.043.6,4.577,4.577,0,0,0-.43,1.462,8.081,8.081,0,0,1-.43,1.5.8.8,0,0,1-.086.3,5.064,5.064,0,0,0-.172,1.075.243.243,0,0,1,0,.258c0,.172.043.258.043.344v.172c0,.086-.043.215-.258.473a1.082,1.082,0,0,0,.258.086.694.694,0,0,1-.129.387,17.653,17.653,0,0,1,.215,1.763c-.086.086-.086.129-.086.3,0,.129,0,.215.043.258,0,0,.3.946.387,1.118a.937.937,0,0,0,.043.258h.086V-.43c.086.086.129.129.129.215a.515.515,0,0,0,.129.344c.258,0,.43.215.731.387a2.531,2.531,0,0,0,1.763.817h.258c.086,0,.129-.043.215-.043a2.538,2.538,0,0,0,.6.086.922.922,0,0,0,.516-.172,4.935,4.935,0,0,1,1.032-.086A3.3,3.3,0,0,0,115.477.9c.086-.215.6-.258.989-.516a4.676,4.676,0,0,0,1.548-.731c0-.3.946-.817,1.247-.817a.655.655,0,0,0,.43-.258c.129-.086.215-.172.3-.172q.258-.129.258-.258l-.043-.172v-.043a.409.409,0,0,0,.3-.086.879.879,0,0,1,.344-.043c0-.172,0-.172.043-.215l.215-.129c.215-.043.129-.129.129-.3v-.086a1.278,1.278,0,0,1,.516-.086l.774-.3a.939.939,0,0,1,.516-.43c.946-.559,1.247-.688,1.247-1.2l.043-.043c.043-.043.258-.129.3-.215a1.2,1.2,0,0,0,.559-.43c.043-.086.172-.215.258-.215a9.4,9.4,0,0,1,.731-1.247c.387,0,.387-.172.473-.3.043-.086.129-.129.344-.129.043-.215.344-.473.387-.559.3.172.258-.086.43-.344a.15.15,0,0,1,.043-.086c.215,0,.3-.215.473-.473.086-.172.344-.172.3-.215.129-.043.43-.688.215-.946v.043a.716.716,0,0,0-.473-.387.669.669,0,0,0-.387.129c-.043.043-.043.043-.086.043l-.387.3a.844.844,0,0,1-.6.6c-.3.129-.387.516-.6.731,0,.043,0,.086-.043.086-.086.043-.3.344-.473.473a3.257,3.257,0,0,0-.6.43c-.258.215-.215.3-.559.473,0,0-.215.3-.258.387-.086.043-.086.086-.086.086-.215,0-.344.086-.344.258v.043c-.086,0-.645.559-.817.645a2.294,2.294,0,0,1-.9.473c-.344.645-.688.645-1.118.946l-.645.559a1.707,1.707,0,0,0-.86.473,2.679,2.679,0,0,1-1.376.817c-.086.086-.774.3-.774.387-.043.129.043.172-.086.215a2.194,2.194,0,0,0-1.161.43c-.344.215-.473.516-.731.516-.043,0-.215-.043-.258-.043l-.9.172a7.933,7.933,0,0,0-.688.43.578.578,0,0,0-.387-.086,2.179,2.179,0,0,0-.559.086.891.891,0,0,1-.258.086c-.559,0-.6-.344-.6-.473-.43,0-.645-.6-.645-.688a.7.7,0,0,1,.086-.215L111-1.978a3.522,3.522,0,0,0-.559-2.107.823.823,0,0,0,.172-.645v-.6a.816.816,0,0,1,.129-.387,1.862,1.862,0,0,0-.043-.215.465.465,0,0,1,.129-.3,3.957,3.957,0,0,0,.129-.387c-.172-.043-.172-.086-.172-.172v-.258C110.79-7.1,110.747-7.181,110.747-7.224Zm6.579-3.784a4.091,4.091,0,0,1,.473.645c-.215.043-.086,0-.129,0l-.172.086-.516.043a19.2,19.2,0,0,0-3.612-.473c-.215,0-.3.043-.473.043h-.258a3.343,3.343,0,0,0-.559-.043h-.086c0-.387.086-.473.258-.6.344-.3.688-.645.688-1.032.086,0,.129-.086.258-.172a5.237,5.237,0,0,1,.688-1.118c.086,0,.172,0,.215.129a1.951,1.951,0,0,1,.344.086,1.906,1.906,0,0,1,.3-.387c.559.043.989.43,1.72,1.333a2.986,2.986,0,0,1,.559,1.247C117.025-11.18,117.111-11.051,117.326-11.008ZM135.3-12.169c.043,0,.258-.516.731-.645-.086-.043-.086-.086-.086-.172-.043-.258.129-.43.086-.688,0-.129-.258-.43-.3-.516,0-.043.043-.043.043-.086a2.156,2.156,0,0,0-1.419-.9h-.215c-.086,0,.043-.129-.215-.129a1.637,1.637,0,0,0-.645.129c-.043,0-.043-.086-.129-.086-.172,0-.559.215-.559.344-.043,0-.172-.043-.215-.043-.6,0-.86.731-1.591,1.075-.172.43-.688.6-.645.688-.817,1.29-.258.774-.86,1.161-.086.129,0,.43-.086.43h-.129c-.129,0-.258.3-.258.3a.388.388,0,0,1,.043.215.15.15,0,0,1,.043.086h-.086c-.172,0-.172.086-.3.086a.212.212,0,0,1,.043.129c0,.258-.258.258-.215.387a.15.15,0,0,0,.043.086c-.86.086-.215,1.29-.9,1.29h-.086a2.465,2.465,0,0,1-.172.6c.086-.086-.645.645-.645.989a.475.475,0,0,1,.215.215.133.133,0,0,1-.043.086c-.258.043-.559,1.161-.516,1.075-.3.172-.043.86-.559,1.075a.975.975,0,0,1,.043.172c.086.559-.129.731-.086.946v.129c0,.129-.172.172-.129.3V-3.4c0,.258-.258.989-.215,1.2,0,.086.129.129.129.129,0,.086-.086.129-.043.258a1.481,1.481,0,0,0,.043.387c.043.258-.129.43-.086.688,0,.129.215.172.344.258,0,.086.043.129.043.172,0,0,.473,1.032,1.161,1.032h.172c.129,0,.215.129.344.172.129,0,.172-.086.344-.086a1.333,1.333,0,0,1,.3.086c-.043-.172.6-.172.86-.172,0,.043.344-.344.559-.344.172.043.215.129.3.129.387,0,.946-.9,1.419-1.118V-.731c-.129-.645.43-.387.3-1.075.473-.344.731-.989,1.247-1.462.086-.043.258-.043.258-.129v-.086c0-.043.129-.043.172-.086,0-.043-.043-.3.086-.3-.043-.258-.387-.172-.473-.43,0-.344.6-.688,1.032-.817.3-.516.559-1.2,1.075-1.333a.438.438,0,0,1,.215.344,2.645,2.645,0,0,0,.043.559c0,.043.086.043.086.043a.15.15,0,0,1-.043.086c0,.129.086.129.086.3a1.948,1.948,0,0,1,.043.344c.043.258.258.9.344,1.2a5.3,5.3,0,0,1,.688,1.591l.086.172c.6.344.731,1.2,1.591,1.247.172.731,1.978,1.032,2.408,1.032h.3c.043,0,.086.043.129.043.172-.043,2.107-.258,2.107-.3V.172c.172-.129.645.043.6-.473,0-.043-.086-.086-.129-.172.258-.043.559-.129.559-.387a7.073,7.073,0,0,0-.817-.43c-.043.172-1.376.387-1.634.387-.215,0-.3-.043-.559-.043-.129,0-.215.086-.387.086a2.6,2.6,0,0,1-1.118-.43c-.172-.086-.172-.3-.344-.387-.258-.043-.344-.258-.516-.387a.265.265,0,0,0,.043-.3c-.043-.3-.215-.559-.258-.817,0-.129-.043-.258-.043-.387a1.957,1.957,0,0,1-.344-.817c-.129-.774-.516-1.075-.6-1.548a.042.042,0,0,1,.043-.043.133.133,0,0,0-.043-.086,7.169,7.169,0,0,1-.043-.817c0-.043-.086-.086-.086-.086-.043-.258-.172-.559-.172-.731-.086-.387.086-.516.086-.731-.043-.215-.129-.215-.129-.43,0-.086-.043-.172-.043-.258,0-.172-.344-.258-.387-.6-.043-.043-.043-.172-.043-.3-.086-.3-1.161-.774-1.118-.774h-.387c-.215,0-.387-.043-.516-.043a.875.875,0,0,1-.215.043h-.215c-.129,0-.43.688-.516,1.2v.043a.325.325,0,0,1,.043.172c-.043.215-.086.516-.172.559l.043.043v.129c.043.43-.946.6-.86,1.161.086.3-.559.473-.473,1.032h-.086c-.215,0-.172.129-.172.215,0,.043-.215.043-.215.172a.433.433,0,0,1,.043.129c-.043.043-.172.043-.129.129a.158.158,0,0,0,.043.129c0,.086-.172,0-.172.043V-5.5c.043.172-.344.3-.3.516.043.043.043.172.043.172-.129,0-.6.516-.559.559l-.215.516c.258,0-.774.344-.688,1.032a.092.092,0,0,0,.086.086c-.258.129-.473.172-.516.3-.043.645-.688.559-.817.9-.086.086-.129.3-.258.3-.215,0-.387-.3-.43-.473a6.056,6.056,0,0,0,.043-.9c0-.129-.086-.258-.086-.344a9.712,9.712,0,0,1,.172-1.419c.258-.43.129-1.29.387-1.634,0-.086.129-.129.086-.258,0-.086-.086-.215-.086-.258,0-.559,1.161-.6,1.161-1.376a.259.259,0,0,1-.043-.172c0-.516.043-.473.387-.731-.129-.946,1.118-.387,1.075-1.376.473.172.344-1.118.43-1.161h.086c.3,0,.129-.3.43-.3h.086c-.043-.387.688-1.075,1.032-1.161.215-.172.043-.516.6-.516.258,0,.3.258.559.258a.158.158,0,0,0,.043.129.928.928,0,0,0,.9.688C135.214-12.126,135.257-12.126,135.3-12.169ZM140.847.516c-.043,0-.043.043.043.043ZM167.464-.946a.773.773,0,0,1-.387.172c-.086,0-.86-.043-.86-.43,0-.172.129-.344.129-.559,0-1.677-.3-2.623.129-3.311a1.35,1.35,0,0,1-.043-.387c0-.086,0-.129.043-.129h.086c.043,0,.043-.3.043-.387-.086-.086-.086-.258-.258-.387.387-.516.473-.6.43-.731a2.87,2.87,0,0,1,.086-2.064,2.26,2.26,0,0,0-.6-1.333.133.133,0,0,1,.086-.043c.129,0,.215.043.3.043s.086,0,.172-.129c-.086-.3-.344-.645-.344-.774v-.258a1.82,1.82,0,0,0-1.591-1.462.084.084,0,0,0-.086.086,1.951,1.951,0,0,0-.344-.086.68.68,0,0,0-.559.258h-.258v.258c0,.043,0,.043-.086.043h-.129c-.258,0-.516,1.118-.946,1.118a.15.15,0,0,0-.086-.043,1.25,1.25,0,0,1-.9.817c0,.043.043.086.043.172,0-.043-.86.688-.645.774H160.8c-.043,0-.172.6-.258.645-.043.043-.258,0-.258.086a.259.259,0,0,1,.043.172s-.129.172-.215.172h-.086c-.043,0-.043.043-.043.086v.086c0,.086-.043.129-.086.129h-.129c-.129,0-.086.215-.215.258v.258c0,.129-.731.946-.946.946,0,.086.043.129.043.172,0,.344-.817.946-.817,1.161,0,.086.043.129.043.172-.387.172-.387.6-.817.688-.258-.473.172-.3.344-.559,0,0,0-.172-.043-.215,0-.129.3-.215.3-.516v-.086a2.673,2.673,0,0,1-.344-.774c0-.258.129-.6.129-.946,0-1.075-.172-.817-.172-1.677,0-.129.172-.215.172-.43a.639.639,0,0,0-.043-.258c.129-.258.344-.043.344-.387a6.854,6.854,0,0,1-.086-.731c0-.086.086-.043.086-.129a8.029,8.029,0,0,0-.43-1.118c0-.086.129-.086.129-.215,0-.387-.6-.731-.774-1.2a6.82,6.82,0,0,1-.774-.344v-.086h-.172a.133.133,0,0,1-.086-.043.15.15,0,0,1,.043-.086h-.172c0-.043-.215-.086-.473-.172-.129,0-.559-.043-.645.043v.172a15.033,15.033,0,0,0-1.075,1.505c-.258,0-.86.817-.86.86a7.455,7.455,0,0,1-.473.731h-.043c-.172.129,0,.43-.258.516-.043.086-.3.043-.3.172a.15.15,0,0,1,.043.086c0,.043-.086.043-.086.043-.086,0-.129-.043-.172-.043-.043.043,0,.172-.172.172a.545.545,0,0,1,.043.258,1.716,1.716,0,0,1-.688,1.161h-.129c-.129,0-.129.215-.258.215h-.043c0,.258-.215.3-.215.516,0,.043.043.172.043.258a2.807,2.807,0,0,0-.688.559v.086c0,.387-.43.473-.43.817,0,.086,0,.129.043.172-.129,0-.215.043-.215.172,0,.086.043.086.043.129-.86.258-1.161,1.763-1.634,1.763-.258.086,0,.516-.645.645,0,.129.043.215.043.3s-.043.215-.258.215-.172-.215-.172-.3c0-.215.043-.387.215-.43.086-1.161.946-.645,1.161-2.322.172,0,.43-.946.559-.946s.129-.129.129-.344V-7.7c0-.559.3-.9.9-1.419a.969.969,0,0,0,.215-.215c0-.086.172-1.075.129-1.075,0-.129.172-1.032.817-1.032.129,0,.344-.6.344-1.032v-.086c.086-.215.645-.731.9-.731a14.3,14.3,0,0,0,.817-2.15c0-.086-.043-.129-.086-.215,0-.946-1.333-1.161-1.462-1.29-.129,0-.129-.086-.258-.129a4.646,4.646,0,0,1-.817-.172c-.086.258-.3.344-.473.516v1.462c-.344.688-.387.6-.387,1.118-.129.043-.43.473-.43.473a.433.433,0,0,1,.043.129c-.043.215-.258-.086-.258.387v.344c0,.344-.129.215-.129.258v.3a3.03,3.03,0,0,0-.645,1.634,1.862,1.862,0,0,0,.043.215c-.559.215-.215.172-.43,1.032-.043.043-.172.086-.172.215,0,0,0,.086.043.086-.516,0-.3,1.376-.774,1.72v.129c0,.43-.387.645-.387,1.118v.129h-.086c-.215,0-.172.172-.3.215v.172c0,.043-.086.258-.086.3.043,0,.086,0,.086.043s-.129.086-.129.258a.153.153,0,0,0,.086.129c-.258,0-.344.344-.344.43,0,.043-.043.043-.043.172,0,.086.043.043.043.129,0,.258-.215.258-.215.473a1.521,1.521,0,0,0,.043.258c-.086,0-.215.473-.215.559,0,.043,0,.086.086.129-.3.043-.129.43-.473.43v.473q0,.064.129.129a.722.722,0,0,0-.258.6,1.069,1.069,0,0,0,.043.344,1.089,1.089,0,0,0-.387.731c0,1.2,1.247,1.161,1.247,1.247.43,0,.344-.258.731-.258h.043v.086a.365.365,0,0,0,.344.3c.043-.258.774-.043.774-.774a1.862,1.862,0,0,1-.043-.215.694.694,0,0,0,.387-.129,1.027,1.027,0,0,1-.086-.387c0-.516.516-.774.774-1.118a3.667,3.667,0,0,1,.688-1.978h.215l-.043-.043h.129V-3.4a1.061,1.061,0,0,0,.3-.516c0-.129-.043-.258-.043-.43a5.01,5.01,0,0,1,1.118-1.935v-.129c0-.387.258-.473.6-.473,0-.043-.086-.086-.086-.129,0-.215.172-.344.172-.473v-.043c0-.215.43-.731.9-.989.086-.258,0-.559.387-.559a.891.891,0,0,1-.086-.258c0-.516.6-.086,1.333-1.72.6-.172.817-.989,1.118-.989h.043a.813.813,0,0,1,.774-.387c0,.3.172.817.172,1.161a.5.5,0,0,1-.086.3v.086a.44.44,0,0,0,.215.258.739.739,0,0,0-.129.43c0,.043.086.086.086.129a7.9,7.9,0,0,1-.086.989c0,.043.086.086.086.172-.043.344-.172.473-.172.6,0,.172.215.258.215.387s-.172.344-.172.559c0,.3.086.688.086,1.032a12.533,12.533,0,0,0-.215,1.72c0,.215.086.731.086.946,0,.129-.172.129-.172.387v.258a.782.782,0,0,1-.129.473c.215,0,.215.043.258.172,0,.086-.043.215-.043.3a.634.634,0,0,0,.645.645.188.188,0,0,1,.129-.043c.086.258.344.3.559.387a.922.922,0,0,1,.688-.43c.516,0,.6.473,1.075.559,0-.129.129-.172.129-.215a.975.975,0,0,1-.043-.172c0-.129.3-.086.387-.172.043-.172.215-2.408,1.2-2.537,0-.086-.086-.086-.086-.215a1.818,1.818,0,0,1,.774-1.118h.043c-.043-.215-.172-.215-.215-.43,0-.043.043-.086.043-.172l.086.043c.215,0,.129-.129.344-.129h.043v-.344c0-.43.387-.688.387-.731,0,0-.086-.043-.086-.258.387-.344,1.419-.946,1.419-1.548,0-.129-.043-.086-.129-.172.387-.086.344-.516.86-.516h.129v-.086c-.086-.172-.172-.258-.172-.344s.129-.817.645-.817h.172c-.043,0,.258-.387.3-.387.172,0,.215.258.258.3l.043.516c.043.129.043.215.129.3a.288.288,0,0,0-.172.3c0,.215.129.516.129.774a3.885,3.885,0,0,1-.129.989,3.041,3.041,0,0,1,.086.516c0,.086-.086.129-.086.215s.043.129.043.172a11.211,11.211,0,0,0-.172,1.333,1.316,1.316,0,0,0,.129.645.821.821,0,0,0-.3.6c0,.129.043.129.043.172v.086A.947.947,0,0,0,164.41-4a5.592,5.592,0,0,0,.129.946c-.086.043-.129.344-.129.645v1.075c-.043.086-.215,0-.215.129a1.793,1.793,0,0,1,.086.258c0,.172-.086.129-.086.172a2.976,2.976,0,0,0,.215,1.2h.043c.043.043.258.172.258.258V.817a3.876,3.876,0,0,0,1.462.43,2.852,2.852,0,0,0,1.462-.516c.215,0,.946-1.032,1.333-1.032.774,0,.344-.688,1.075-.989.688-.43.688-1.548,1.634-1.763-.3-.172-.3-.516-.731-.6a2.259,2.259,0,0,1-1.118.688c-.387.258-.516,1.161-1.161,1.161a.259.259,0,0,1-.172-.043.951.951,0,0,1-.645.688h-.086C167.678-1.161,167.592-.989,167.464-.946Z" transform="matrix(0.995, -0.105, 0.105, 0.995, -4336.913, 2430.113)" fill="#1c1c1c"/>
    </g>
  </g>
</svg>
