<svg xmlns="http://www.w3.org/2000/svg" viewBox="0 0 279.43 69"><g id="完成データ"><path d="M263.7,48.76a7.88,7.88,0,0,1,.6-3.06A7.53,7.53,0,0,1,266,43.18a7.92,7.92,0,0,1,11.17,0,7.84,7.84,0,0,1,2.28,5.58,8,8,0,0,1-.6,3.06,8.06,8.06,0,0,1-1.68,2.52,8,8,0,0,1-5.59,2.29,7.79,7.79,0,0,1-7.26-4.81A8,8,0,0,1,263.7,48.76Z"/><path d="M238.5,23a12,12,0,1,1-12,12,12,12,0,0,1,12-12m0-10a22,22,0,1,0,22,22,22,22,0,0,0-22-22Z"/><path d="M22,13a21.89,21.89,0,0,0-12,3.56V13H0V69H10V53.44A22,22,0,1,0,22,13Zm0,34A12,12,0,1,1,34,35,12,12,0,0,1,22,47Z"/><rect x="99" width="10" height="56"/><path d="M137.5,13a22,22,0,1,0,19.59,32h-13a12,12,0,0,1-17.51-5h32.31a21.72,21.72,0,0,0,.58-5A22,22,0,0,0,137.5,13Zm0,10a12,12,0,0,1,10.89,7H126.61A12,12,0,0,1,137.5,23Z"/><polygon points="186 15 180 15 180 7 170 7 170 15 164.5 15 164.5 25 170 25 170 56 180 56 180 25 186 25 186 15"/><polygon points="211 15 205 15 205 7 195 7 195 15 189.5 15 189.5 25 195 25 195 56 205 56 205 25 211 25 211 15"/><path d="M93,34A22,22,0,1,0,83,53.44V56H93V34ZM71,47A12,12,0,1,1,83,35,12,12,0,0,1,71,47Z"/></g></svg>